<svg width="724" height="108" viewBox="0 0 724 108" fill="none" xmlns="http://www.w3.org/2000/svg">
<rect x="255" y="9" width="457" height="90" rx="20" fill="#442B48"/>
<mask id="mask0" mask-type="alpha" maskUnits="userSpaceOnUse" x="255" y="9" width="457" height="90">
<rect x="255" y="9" width="457" height="90" rx="20" fill="#442B48"/>
</mask>
<g mask="url(#mask0)">
<mask id="path-3-outside-1" maskUnits="userSpaceOnUse" x="34.732" y="-180" width="503.241" height="490.872" fill="black">
<rect fill="white" x="34.732" y="-180" width="503.241" height="490.872"/>
<path d="M215.502 -35.0152C217.079 -47.2899 227.816 -53.7645 225.874 -46.9472C223.932 -40.1299 241.927 32.981 238.405 43.1238C234.884 53.2666 228.255 58.0068 228.98 53.6097C229.704 49.2125 213.925 -22.7405 215.502 -35.0152Z"/>
<path d="M244.277 -5.06471C245.854 -17.3394 256.592 -23.814 254.649 -16.9967C252.707 -10.1794 270.702 62.9315 267.181 73.0743C263.66 83.2171 257.031 87.9574 257.755 83.5602C258.48 79.163 242.701 7.20997 244.277 -5.06471Z"/>
<path d="M362.146 111.268C363.723 98.9936 374.46 92.519 372.518 99.3363C370.575 106.154 388.571 179.265 385.049 189.407C381.528 199.55 374.899 204.29 375.624 199.893C376.348 195.496 360.569 123.543 362.146 111.268Z"/>
<path d="M127.855 -121.95C129.431 -134.224 140.169 -140.699 138.227 -133.882C136.284 -127.064 154.279 -53.9535 150.758 -43.8107C147.237 -33.6679 140.608 -28.9276 141.332 -33.3248C142.057 -37.722 126.278 -109.675 127.855 -121.95Z"/>
<path d="M272.988 24.2201C274.565 11.9454 285.302 5.47075 283.36 12.2881C281.417 19.1054 299.413 92.2163 295.891 102.359C292.37 112.502 285.741 117.242 286.466 112.845C287.19 108.448 271.411 36.4947 272.988 24.2201Z"/>
<path d="M390.856 140.553C392.433 128.278 403.171 121.804 401.228 128.621C399.286 135.438 417.281 208.549 413.76 218.692C410.238 228.835 403.61 233.575 404.334 229.178C405.059 224.781 389.28 152.828 390.856 140.553Z"/>
<path d="M156.565 -92.6649C158.142 -104.94 168.879 -111.414 166.937 -104.597C164.995 -97.7796 182.99 -24.6687 179.469 -14.5259C175.947 -4.38311 169.318 0.357155 170.043 -4.04004C170.767 -8.43724 154.989 -80.3902 156.565 -92.6649Z"/>
<path d="M301.9 53.2156C303.476 40.9409 314.214 34.4663 312.272 41.2836C310.329 48.1009 328.324 121.212 324.803 131.355C321.282 141.497 314.653 146.238 315.378 141.84C316.102 137.443 300.323 65.4903 301.9 53.2156Z"/>
<path d="M419.768 169.549C421.345 157.274 432.082 150.799 430.14 157.617C428.198 164.434 446.193 237.545 442.672 247.688C439.15 257.83 432.521 262.571 433.246 258.173C433.971 253.776 418.192 181.823 419.768 169.549Z"/>
<path d="M185.477 -63.6694C187.054 -75.944 197.791 -82.4187 195.849 -75.6014C193.907 -68.7841 211.902 4.32685 208.38 14.4696C204.859 24.6124 198.23 29.3527 198.955 24.9555C199.679 20.5583 183.9 -51.3947 185.477 -63.6694Z"/>
<path d="M332.023 82.242C333.6 69.9673 344.337 63.4926 342.395 70.31C340.452 77.1273 358.447 150.238 354.926 160.381C351.405 170.524 344.776 175.264 345.501 170.867C346.225 166.47 330.446 94.5166 332.023 82.242Z"/>
<path d="M449.891 198.575C451.468 186.3 462.205 179.826 460.263 186.643C458.321 193.46 476.316 266.571 472.795 276.714C469.273 286.857 462.645 291.597 463.369 287.2C464.094 282.803 448.315 210.85 449.891 198.575Z"/>
<path d="M248.524 -18.734C242.157 -16.3055 241.164 -22.9443 241.464 -26.5673C242.762 -29.7724 248.77 -27.8533 251.232 -29.2625C253.694 -30.6718 256.484 -21.7696 248.524 -18.734Z"/>
<path d="M366.393 97.5991C360.025 100.028 359.032 93.3887 359.332 89.7657C360.63 86.5606 366.639 88.4797 369.101 87.0705C371.562 85.6612 374.352 94.5634 366.393 97.5991Z"/>
<path d="M132.102 -135.619C125.734 -133.19 124.741 -139.829 125.041 -143.452C126.339 -146.657 132.347 -144.738 134.809 -146.148C137.271 -147.557 140.061 -138.655 132.102 -135.619Z"/>
<path d="M277.235 10.5508C270.867 12.9793 269.874 6.34046 270.174 2.71746C271.472 -0.487601 277.481 1.43147 279.943 0.0222309C282.405 -1.38701 285.194 7.51522 277.235 10.5508Z"/>
<path d="M395.103 126.884C388.736 129.312 387.743 122.673 388.043 119.05C389.341 115.845 395.349 117.764 397.811 116.355C400.273 114.946 403.063 123.848 395.103 126.884Z"/>
<path d="M160.812 -106.334C154.444 -103.906 153.452 -110.545 153.751 -114.168C155.05 -117.373 161.058 -115.454 163.52 -116.863C165.982 -118.272 168.772 -109.37 160.812 -106.334Z"/>
<path d="M306.147 39.5464C299.779 41.9749 298.786 35.336 299.086 31.713C300.384 28.5079 306.393 30.427 308.854 29.0178C311.316 27.6085 314.106 36.5107 306.147 39.5464Z"/>
<path d="M424.015 155.879C417.647 158.308 416.655 151.669 416.954 148.046C418.253 144.841 424.261 146.76 426.723 145.351C429.185 143.942 431.975 152.844 424.015 155.879Z"/>
<path d="M189.724 -77.3386C183.356 -74.9101 182.364 -81.549 182.663 -85.172C183.962 -88.3771 189.97 -86.458 192.432 -87.8672C194.894 -89.2765 197.684 -80.3742 189.724 -77.3386Z"/>
<path d="M336.27 68.5727C329.902 71.0012 328.909 64.3623 329.209 60.7393C330.507 57.5343 336.516 59.4534 338.978 58.0441C341.439 56.6349 344.229 65.5371 336.27 68.5727Z"/>
<path d="M454.138 184.906C447.77 187.334 446.778 180.695 447.077 177.072C448.376 173.867 454.384 175.786 456.846 174.377C459.308 172.968 462.098 181.87 454.138 184.906Z"/>
<path d="M219.847 -48.3123C213.479 -45.8838 212.487 -52.5226 212.786 -56.1456C214.085 -59.3507 220.093 -57.4316 222.555 -58.8409C225.017 -60.2501 227.807 -51.3479 219.847 -48.3123Z"/>
<path d="M239.328 65.7916C245.621 62.7132 241.284 57.4836 238.33 55.2537C234.993 54.0472 232.246 59.8016 229.457 60.6735C226.668 61.5454 231.462 69.6397 239.328 65.7916Z"/>
<path d="M357.197 182.125C363.489 179.046 359.153 173.817 356.198 171.587C352.862 170.38 350.115 176.135 347.326 177.007C344.536 177.878 349.331 185.973 357.197 182.125Z"/>
<path d="M122.905 -51.0933C129.198 -54.1718 124.862 -59.4013 121.907 -61.6313C118.571 -62.8378 115.824 -57.0834 113.034 -56.2114C110.245 -55.3395 115.04 -47.2453 122.905 -51.0933Z"/>
<path d="M268.039 95.0764C274.331 91.9979 269.995 86.7684 267.04 84.5385C263.704 83.332 260.957 89.0864 258.168 89.9583C255.378 90.8302 260.173 98.9245 268.039 95.0764Z"/>
<path d="M385.907 211.409C392.2 208.331 387.863 203.101 384.909 200.871C381.572 199.665 378.825 205.419 376.036 206.291C373.247 207.163 378.041 215.258 385.907 211.409Z"/>
<path d="M151.616 -21.8086C157.908 -24.887 153.572 -30.1166 150.617 -32.3465C147.281 -33.553 144.534 -27.7986 141.745 -26.9267C138.956 -26.0547 143.75 -17.9605 151.616 -21.8086Z"/>
<path d="M296.951 124.072C303.243 120.993 298.907 115.764 295.952 113.534C292.616 112.328 289.869 118.082 287.079 118.954C284.29 119.826 289.085 127.92 296.951 124.072Z"/>
<path d="M414.819 240.405C421.112 237.326 416.775 232.097 413.82 229.867C410.484 228.661 407.737 234.415 404.948 235.287C402.159 236.159 406.953 244.253 414.819 240.405Z"/>
<path d="M180.528 7.18696C186.82 4.1085 182.484 -1.12103 179.529 -3.35098C176.193 -4.55747 173.446 1.19695 170.657 2.06886C167.867 2.94078 172.662 11.035 180.528 7.18696Z"/>
<path d="M327.074 153.098C333.366 150.02 329.03 144.79 326.075 142.56C322.739 141.354 319.992 147.108 317.202 147.98C314.413 148.852 319.208 156.946 327.074 153.098Z"/>
<path d="M444.942 269.431C451.235 266.353 446.898 261.123 443.943 258.893C440.607 257.687 437.86 263.441 435.071 264.313C432.282 265.185 437.076 273.279 444.942 269.431Z"/>
<path d="M210.651 36.2133C216.943 33.1348 212.607 27.9053 209.652 25.6754C206.316 24.4689 203.569 30.2233 200.78 31.0952C197.99 31.9671 202.785 40.0614 210.651 36.2133Z"/>
<path d="M232.958 -49.0259C224.965 -49.2292 230.024 -26.3355 233.552 -14.8633C234.937 -10.0255 238.72 18.2382 240.06 24.7485C241.399 31.2588 246.088 59.6381 244.48 74.3159C242.873 88.9938 247.901 93.5373 252.578 88.6519C257.254 83.7665 252.553 78.3482 251.603 68.6096C250.654 58.8711 243.244 7.75579 240.007 -7.0453C236.77 -21.8464 242.95 -48.7717 232.958 -49.0259Z"/>
<path d="M350.827 67.3072C342.833 67.1038 347.892 89.9975 351.421 101.47C352.805 106.307 356.588 134.571 357.928 141.082C359.267 147.592 363.956 175.971 362.349 190.649C360.741 205.327 365.77 209.87 370.446 204.985C375.123 200.1 370.421 194.681 369.472 184.943C368.522 175.204 361.113 124.089 357.876 109.288C354.639 94.4866 360.819 67.5614 350.827 67.3072Z"/>
<path d="M116.535 -165.911C108.542 -166.114 113.601 -143.221 117.13 -131.748C118.514 -126.911 122.297 -98.6468 123.637 -92.1365C124.976 -85.6262 129.665 -57.2469 128.058 -42.5691C126.45 -27.8912 131.479 -23.3477 136.155 -28.2331C140.832 -33.1184 136.13 -38.5368 135.18 -48.2753C134.231 -58.0139 126.822 -109.129 123.585 -123.93C120.348 -138.731 126.527 -165.657 116.535 -165.911Z"/>
<path d="M261.669 -19.7411C253.675 -19.9444 258.734 2.94925 262.263 14.4215C263.647 19.2592 267.431 47.523 268.77 54.0333C270.11 60.5436 274.799 88.9229 273.191 103.601C271.583 118.279 276.612 122.822 281.288 117.937C285.965 113.051 281.263 107.633 280.314 97.8944C279.364 88.1559 271.955 37.0406 268.718 22.2395C265.481 7.43839 271.661 -19.4869 261.669 -19.7411Z"/>
<path d="M379.537 96.5919C371.544 96.3886 376.603 119.282 380.131 130.755C381.516 135.592 385.299 163.856 386.638 170.366C387.978 176.877 392.667 205.256 391.059 219.934C389.452 234.612 394.48 239.155 399.157 234.27C403.833 229.384 399.131 223.966 398.182 214.227C397.233 204.489 389.823 153.374 386.586 138.573C383.349 123.771 389.529 96.8461 379.537 96.5919Z"/>
<path d="M145.246 -136.626C137.252 -136.829 142.311 -113.936 145.84 -102.463C147.225 -97.6257 151.008 -69.362 152.347 -62.8517C153.687 -56.3414 158.376 -27.9621 156.768 -13.2843C155.161 1.39357 160.189 5.93712 164.866 1.05173C169.542 -3.83366 164.84 -9.25203 163.891 -18.9906C162.941 -28.7291 155.532 -79.8444 152.295 -94.6455C149.058 -109.447 155.238 -136.372 145.246 -136.626Z"/>
<path d="M290.581 9.25446C282.587 9.05109 287.646 31.9448 291.175 43.417C292.559 48.2548 296.342 76.5185 297.682 83.0288C299.021 89.5391 303.71 117.918 302.103 132.596C300.495 147.274 305.524 151.818 310.2 146.932C314.877 142.047 310.175 136.628 309.225 126.89C308.276 117.151 300.867 66.0361 297.63 51.235C294.393 36.4339 300.572 9.50867 290.581 9.25446Z"/>
<path d="M408.449 125.587C400.455 125.384 405.514 148.278 409.043 159.75C410.428 164.588 414.211 192.852 415.55 199.362C416.89 205.872 421.579 234.251 419.971 248.929C418.364 263.607 423.392 268.151 428.069 263.265C432.745 258.38 428.043 252.961 427.094 243.223C426.144 233.484 418.735 182.369 415.498 167.568C412.261 152.767 418.441 125.842 408.449 125.587Z"/>
<path d="M174.158 -107.631C166.164 -107.834 171.223 -84.9402 174.752 -73.4679C176.137 -68.6302 179.92 -40.3665 181.259 -33.8562C182.599 -27.3458 187.288 1.03343 185.68 15.7113C184.072 30.3891 189.101 34.9327 193.777 30.0473C198.454 25.1619 193.752 19.7435 192.803 10.005C191.853 0.266458 184.444 -50.8489 181.207 -65.65C177.97 -80.4511 184.15 -107.376 174.158 -107.631Z"/>
<path d="M320.704 38.2808C312.71 38.0774 317.769 60.9711 321.298 72.4434C322.682 77.2811 326.465 105.545 327.805 112.055C329.144 118.565 333.833 146.945 332.226 161.623C330.618 176.3 335.647 180.844 340.323 175.959C345 171.073 340.298 165.655 339.349 155.916C338.399 146.178 330.99 95.0624 327.753 80.2614C324.516 65.4603 330.696 38.535 320.704 38.2808Z"/>
<path d="M438.572 154.614C430.578 154.41 435.637 177.304 439.166 188.776C440.551 193.614 444.334 221.878 445.673 228.388C447.013 234.898 451.702 263.278 450.094 277.956C448.487 292.633 453.515 297.177 458.192 292.292C462.868 287.406 458.166 281.988 457.217 272.249C456.267 262.511 448.858 211.395 445.621 196.594C442.384 181.793 448.564 154.868 438.572 154.614Z"/>
<path d="M204.281 -78.6042C196.287 -78.8075 201.346 -55.9139 204.875 -44.4416C206.26 -39.6039 210.043 -11.3401 211.382 -4.82982C212.722 1.68051 217.411 30.0598 215.803 44.7376C214.195 59.4154 219.224 63.959 223.9 59.0736C228.577 54.1882 223.875 48.7699 222.926 39.0313C221.976 29.2928 214.567 -21.8225 211.33 -36.6236C208.093 -51.4247 214.273 -78.35 204.281 -78.6042Z"/>
</mask>
<path d="M215.502 -35.0152C217.079 -47.2899 227.816 -53.7645 225.874 -46.9472C223.932 -40.1299 241.927 32.981 238.405 43.1238C234.884 53.2666 228.255 58.0068 228.98 53.6097C229.704 49.2125 213.925 -22.7405 215.502 -35.0152Z" fill="#B37BA4" fill-opacity="0.3"/>
<path d="M244.277 -5.06471C245.854 -17.3394 256.592 -23.814 254.649 -16.9967C252.707 -10.1794 270.702 62.9315 267.181 73.0743C263.66 83.2171 257.031 87.9574 257.755 83.5602C258.48 79.163 242.701 7.20997 244.277 -5.06471Z" fill="#B37BA4" fill-opacity="0.3"/>
<path d="M362.146 111.268C363.723 98.9936 374.46 92.519 372.518 99.3363C370.575 106.154 388.571 179.265 385.049 189.407C381.528 199.55 374.899 204.29 375.624 199.893C376.348 195.496 360.569 123.543 362.146 111.268Z" fill="#B37BA4" fill-opacity="0.3"/>
<path d="M127.855 -121.95C129.431 -134.224 140.169 -140.699 138.227 -133.882C136.284 -127.064 154.279 -53.9535 150.758 -43.8107C147.237 -33.6679 140.608 -28.9276 141.332 -33.3248C142.057 -37.722 126.278 -109.675 127.855 -121.95Z" fill="#B37BA4" fill-opacity="0.3"/>
<path d="M272.988 24.2201C274.565 11.9454 285.302 5.47075 283.36 12.2881C281.417 19.1054 299.413 92.2163 295.891 102.359C292.37 112.502 285.741 117.242 286.466 112.845C287.19 108.448 271.411 36.4947 272.988 24.2201Z" fill="#B37BA4" fill-opacity="0.3"/>
<path d="M390.856 140.553C392.433 128.278 403.171 121.804 401.228 128.621C399.286 135.438 417.281 208.549 413.76 218.692C410.238 228.835 403.61 233.575 404.334 229.178C405.059 224.781 389.28 152.828 390.856 140.553Z" fill="#B37BA4" fill-opacity="0.3"/>
<path d="M156.565 -92.6649C158.142 -104.94 168.879 -111.414 166.937 -104.597C164.995 -97.7796 182.99 -24.6687 179.469 -14.5259C175.947 -4.38311 169.318 0.357155 170.043 -4.04004C170.767 -8.43724 154.989 -80.3902 156.565 -92.6649Z" fill="#B37BA4" fill-opacity="0.3"/>
<path d="M301.9 53.2156C303.476 40.9409 314.214 34.4663 312.272 41.2836C310.329 48.1009 328.324 121.212 324.803 131.355C321.282 141.497 314.653 146.238 315.378 141.84C316.102 137.443 300.323 65.4903 301.9 53.2156Z" fill="#B37BA4" fill-opacity="0.3"/>
<path d="M419.768 169.549C421.345 157.274 432.082 150.799 430.14 157.617C428.198 164.434 446.193 237.545 442.672 247.688C439.15 257.83 432.521 262.571 433.246 258.173C433.971 253.776 418.192 181.823 419.768 169.549Z" fill="#B37BA4" fill-opacity="0.3"/>
<path d="M185.477 -63.6694C187.054 -75.944 197.791 -82.4187 195.849 -75.6014C193.907 -68.7841 211.902 4.32685 208.38 14.4696C204.859 24.6124 198.23 29.3527 198.955 24.9555C199.679 20.5583 183.9 -51.3947 185.477 -63.6694Z" fill="#B37BA4" fill-opacity="0.3"/>
<path d="M332.023 82.242C333.6 69.9673 344.337 63.4926 342.395 70.31C340.452 77.1273 358.447 150.238 354.926 160.381C351.405 170.524 344.776 175.264 345.501 170.867C346.225 166.47 330.446 94.5166 332.023 82.242Z" fill="#B37BA4" fill-opacity="0.3"/>
<path d="M449.891 198.575C451.468 186.3 462.205 179.826 460.263 186.643C458.321 193.46 476.316 266.571 472.795 276.714C469.273 286.857 462.645 291.597 463.369 287.2C464.094 282.803 448.315 210.85 449.891 198.575Z" fill="#B37BA4" fill-opacity="0.3"/>
<path d="M248.524 -18.734C242.157 -16.3055 241.164 -22.9443 241.464 -26.5673C242.762 -29.7724 248.77 -27.8533 251.232 -29.2625C253.694 -30.6718 256.484 -21.7696 248.524 -18.734Z" fill="#B37BA4" fill-opacity="0.3"/>
<path d="M366.393 97.5991C360.025 100.028 359.032 93.3887 359.332 89.7657C360.63 86.5606 366.639 88.4797 369.101 87.0705C371.562 85.6612 374.352 94.5634 366.393 97.5991Z" fill="#B37BA4" fill-opacity="0.3"/>
<path d="M132.102 -135.619C125.734 -133.19 124.741 -139.829 125.041 -143.452C126.339 -146.657 132.347 -144.738 134.809 -146.148C137.271 -147.557 140.061 -138.655 132.102 -135.619Z" fill="#B37BA4" fill-opacity="0.3"/>
<path d="M277.235 10.5508C270.867 12.9793 269.874 6.34046 270.174 2.71746C271.472 -0.487601 277.481 1.43147 279.943 0.0222309C282.405 -1.38701 285.194 7.51522 277.235 10.5508Z" fill="#B37BA4" fill-opacity="0.3"/>
<path d="M395.103 126.884C388.736 129.312 387.743 122.673 388.043 119.05C389.341 115.845 395.349 117.764 397.811 116.355C400.273 114.946 403.063 123.848 395.103 126.884Z" fill="#B37BA4" fill-opacity="0.3"/>
<path d="M160.812 -106.334C154.444 -103.906 153.452 -110.545 153.751 -114.168C155.05 -117.373 161.058 -115.454 163.52 -116.863C165.982 -118.272 168.772 -109.37 160.812 -106.334Z" fill="#B37BA4" fill-opacity="0.3"/>
<path d="M306.147 39.5464C299.779 41.9749 298.786 35.336 299.086 31.713C300.384 28.5079 306.393 30.427 308.854 29.0178C311.316 27.6085 314.106 36.5107 306.147 39.5464Z" fill="#B37BA4" fill-opacity="0.3"/>
<path d="M424.015 155.879C417.647 158.308 416.655 151.669 416.954 148.046C418.253 144.841 424.261 146.76 426.723 145.351C429.185 143.942 431.975 152.844 424.015 155.879Z" fill="#B37BA4" fill-opacity="0.3"/>
<path d="M189.724 -77.3386C183.356 -74.9101 182.364 -81.549 182.663 -85.172C183.962 -88.3771 189.97 -86.458 192.432 -87.8672C194.894 -89.2765 197.684 -80.3742 189.724 -77.3386Z" fill="#B37BA4" fill-opacity="0.3"/>
<path d="M336.27 68.5727C329.902 71.0012 328.909 64.3623 329.209 60.7393C330.507 57.5343 336.516 59.4534 338.978 58.0441C341.439 56.6349 344.229 65.5371 336.27 68.5727Z" fill="#B37BA4" fill-opacity="0.3"/>
<path d="M454.138 184.906C447.77 187.334 446.778 180.695 447.077 177.072C448.376 173.867 454.384 175.786 456.846 174.377C459.308 172.968 462.098 181.87 454.138 184.906Z" fill="#B37BA4" fill-opacity="0.3"/>
<path d="M219.847 -48.3123C213.479 -45.8838 212.487 -52.5226 212.786 -56.1456C214.085 -59.3507 220.093 -57.4316 222.555 -58.8409C225.017 -60.2501 227.807 -51.3479 219.847 -48.3123Z" fill="#B37BA4" fill-opacity="0.3"/>
<path d="M239.328 65.7916C245.621 62.7132 241.284 57.4836 238.33 55.2537C234.993 54.0472 232.246 59.8016 229.457 60.6735C226.668 61.5454 231.462 69.6397 239.328 65.7916Z" fill="#B37BA4" fill-opacity="0.3"/>
<path d="M357.197 182.125C363.489 179.046 359.153 173.817 356.198 171.587C352.862 170.38 350.115 176.135 347.326 177.007C344.536 177.878 349.331 185.973 357.197 182.125Z" fill="#B37BA4" fill-opacity="0.3"/>
<path d="M122.905 -51.0933C129.198 -54.1718 124.862 -59.4013 121.907 -61.6313C118.571 -62.8378 115.824 -57.0834 113.034 -56.2114C110.245 -55.3395 115.04 -47.2453 122.905 -51.0933Z" fill="#B37BA4" fill-opacity="0.3"/>
<path d="M268.039 95.0764C274.331 91.9979 269.995 86.7684 267.04 84.5385C263.704 83.332 260.957 89.0864 258.168 89.9583C255.378 90.8302 260.173 98.9245 268.039 95.0764Z" fill="#B37BA4" fill-opacity="0.3"/>
<path d="M385.907 211.409C392.2 208.331 387.863 203.101 384.909 200.871C381.572 199.665 378.825 205.419 376.036 206.291C373.247 207.163 378.041 215.258 385.907 211.409Z" fill="#B37BA4" fill-opacity="0.3"/>
<path d="M151.616 -21.8086C157.908 -24.887 153.572 -30.1166 150.617 -32.3465C147.281 -33.553 144.534 -27.7986 141.745 -26.9267C138.956 -26.0547 143.75 -17.9605 151.616 -21.8086Z" fill="#B37BA4" fill-opacity="0.3"/>
<path d="M296.951 124.072C303.243 120.993 298.907 115.764 295.952 113.534C292.616 112.328 289.869 118.082 287.079 118.954C284.29 119.826 289.085 127.92 296.951 124.072Z" fill="#B37BA4" fill-opacity="0.3"/>
<path d="M414.819 240.405C421.112 237.326 416.775 232.097 413.82 229.867C410.484 228.661 407.737 234.415 404.948 235.287C402.159 236.159 406.953 244.253 414.819 240.405Z" fill="#B37BA4" fill-opacity="0.3"/>
<path d="M180.528 7.18696C186.82 4.1085 182.484 -1.12103 179.529 -3.35098C176.193 -4.55747 173.446 1.19695 170.657 2.06886C167.867 2.94078 172.662 11.035 180.528 7.18696Z" fill="#B37BA4" fill-opacity="0.3"/>
<path d="M327.074 153.098C333.366 150.02 329.03 144.79 326.075 142.56C322.739 141.354 319.992 147.108 317.202 147.98C314.413 148.852 319.208 156.946 327.074 153.098Z" fill="#B37BA4" fill-opacity="0.3"/>
<path d="M444.942 269.431C451.235 266.353 446.898 261.123 443.943 258.893C440.607 257.687 437.86 263.441 435.071 264.313C432.282 265.185 437.076 273.279 444.942 269.431Z" fill="#B37BA4" fill-opacity="0.3"/>
<path d="M210.651 36.2133C216.943 33.1348 212.607 27.9053 209.652 25.6754C206.316 24.4689 203.569 30.2233 200.78 31.0952C197.99 31.9671 202.785 40.0614 210.651 36.2133Z" fill="#B37BA4" fill-opacity="0.3"/>
<path d="M232.958 -49.0259C224.965 -49.2292 230.024 -26.3355 233.552 -14.8633C234.937 -10.0255 238.72 18.2382 240.06 24.7485C241.399 31.2588 246.088 59.6381 244.48 74.3159C242.873 88.9938 247.901 93.5373 252.578 88.6519C257.254 83.7665 252.553 78.3482 251.603 68.6096C250.654 58.8711 243.244 7.75579 240.007 -7.0453C236.77 -21.8464 242.95 -48.7717 232.958 -49.0259Z" fill="#B37BA4" fill-opacity="0.3"/>
<path d="M350.827 67.3072C342.833 67.1038 347.892 89.9975 351.421 101.47C352.805 106.307 356.588 134.571 357.928 141.082C359.267 147.592 363.956 175.971 362.349 190.649C360.741 205.327 365.77 209.87 370.446 204.985C375.123 200.1 370.421 194.681 369.472 184.943C368.522 175.204 361.113 124.089 357.876 109.288C354.639 94.4866 360.819 67.5614 350.827 67.3072Z" fill="#B37BA4" fill-opacity="0.3"/>
<path d="M116.535 -165.911C108.542 -166.114 113.601 -143.221 117.13 -131.748C118.514 -126.911 122.297 -98.6468 123.637 -92.1365C124.976 -85.6262 129.665 -57.2469 128.058 -42.5691C126.45 -27.8912 131.479 -23.3477 136.155 -28.2331C140.832 -33.1184 136.13 -38.5368 135.18 -48.2753C134.231 -58.0139 126.822 -109.129 123.585 -123.93C120.348 -138.731 126.527 -165.657 116.535 -165.911Z" fill="#B37BA4" fill-opacity="0.3"/>
<path d="M261.669 -19.7411C253.675 -19.9444 258.734 2.94925 262.263 14.4215C263.647 19.2592 267.431 47.523 268.77 54.0333C270.11 60.5436 274.799 88.9229 273.191 103.601C271.583 118.279 276.612 122.822 281.288 117.937C285.965 113.051 281.263 107.633 280.314 97.8944C279.364 88.1559 271.955 37.0406 268.718 22.2395C265.481 7.43839 271.661 -19.4869 261.669 -19.7411Z" fill="#B37BA4" fill-opacity="0.3"/>
<path d="M379.537 96.5919C371.544 96.3886 376.603 119.282 380.131 130.755C381.516 135.592 385.299 163.856 386.638 170.366C387.978 176.877 392.667 205.256 391.059 219.934C389.452 234.612 394.48 239.155 399.157 234.27C403.833 229.384 399.131 223.966 398.182 214.227C397.233 204.489 389.823 153.374 386.586 138.573C383.349 123.771 389.529 96.8461 379.537 96.5919Z" fill="#B37BA4" fill-opacity="0.3"/>
<path d="M145.246 -136.626C137.252 -136.829 142.311 -113.936 145.84 -102.463C147.225 -97.6257 151.008 -69.362 152.347 -62.8517C153.687 -56.3414 158.376 -27.9621 156.768 -13.2843C155.161 1.39357 160.189 5.93712 164.866 1.05173C169.542 -3.83366 164.84 -9.25203 163.891 -18.9906C162.941 -28.7291 155.532 -79.8444 152.295 -94.6455C149.058 -109.447 155.238 -136.372 145.246 -136.626Z" fill="#B37BA4" fill-opacity="0.3"/>
<path d="M290.581 9.25446C282.587 9.05109 287.646 31.9448 291.175 43.417C292.559 48.2548 296.342 76.5185 297.682 83.0288C299.021 89.5391 303.71 117.918 302.103 132.596C300.495 147.274 305.524 151.818 310.2 146.932C314.877 142.047 310.175 136.628 309.225 126.89C308.276 117.151 300.867 66.0361 297.63 51.235C294.393 36.4339 300.572 9.50867 290.581 9.25446Z" fill="#B37BA4" fill-opacity="0.3"/>
<path d="M408.449 125.587C400.455 125.384 405.514 148.278 409.043 159.75C410.428 164.588 414.211 192.852 415.55 199.362C416.89 205.872 421.579 234.251 419.971 248.929C418.364 263.607 423.392 268.151 428.069 263.265C432.745 258.38 428.043 252.961 427.094 243.223C426.144 233.484 418.735 182.369 415.498 167.568C412.261 152.767 418.441 125.842 408.449 125.587Z" fill="#B37BA4" fill-opacity="0.3"/>
<path d="M174.158 -107.631C166.164 -107.834 171.223 -84.9402 174.752 -73.4679C176.137 -68.6302 179.92 -40.3665 181.259 -33.8562C182.599 -27.3458 187.288 1.03343 185.68 15.7113C184.072 30.3891 189.101 34.9327 193.777 30.0473C198.454 25.1619 193.752 19.7435 192.803 10.005C191.853 0.266458 184.444 -50.8489 181.207 -65.65C177.97 -80.4511 184.15 -107.376 174.158 -107.631Z" fill="#B37BA4" fill-opacity="0.3"/>
<path d="M320.704 38.2808C312.71 38.0774 317.769 60.9711 321.298 72.4434C322.682 77.2811 326.465 105.545 327.805 112.055C329.144 118.565 333.833 146.945 332.226 161.623C330.618 176.3 335.647 180.844 340.323 175.959C345 171.073 340.298 165.655 339.349 155.916C338.399 146.178 330.99 95.0624 327.753 80.2614C324.516 65.4603 330.696 38.535 320.704 38.2808Z" fill="#B37BA4" fill-opacity="0.3"/>
<path d="M438.572 154.614C430.578 154.41 435.637 177.304 439.166 188.776C440.551 193.614 444.334 221.878 445.673 228.388C447.013 234.898 451.702 263.278 450.094 277.956C448.487 292.633 453.515 297.177 458.192 292.292C462.868 287.406 458.166 281.988 457.217 272.249C456.267 262.511 448.858 211.395 445.621 196.594C442.384 181.793 448.564 154.868 438.572 154.614Z" fill="#B37BA4" fill-opacity="0.3"/>
<path d="M204.281 -78.6042C196.287 -78.8075 201.346 -55.9139 204.875 -44.4416C206.26 -39.6039 210.043 -11.3401 211.382 -4.82982C212.722 1.68051 217.411 30.0598 215.803 44.7376C214.195 59.4154 219.224 63.959 223.9 59.0736C228.577 54.1882 223.875 48.7699 222.926 39.0313C221.976 29.2928 214.567 -21.8225 211.33 -36.6236C208.093 -51.4247 214.273 -78.35 204.281 -78.6042Z" fill="#B37BA4" fill-opacity="0.3"/>
<path d="M215.502 -35.0152C217.079 -47.2899 227.816 -53.7645 225.874 -46.9472C223.932 -40.1299 241.927 32.981 238.405 43.1238C234.884 53.2666 228.255 58.0068 228.98 53.6097C229.704 49.2125 213.925 -22.7405 215.502 -35.0152Z" stroke="#442B48" stroke-width="17.9182" mask="url(#path-3-outside-1)"/>
<path d="M244.277 -5.06471C245.854 -17.3394 256.592 -23.814 254.649 -16.9967C252.707 -10.1794 270.702 62.9315 267.181 73.0743C263.66 83.2171 257.031 87.9574 257.755 83.5602C258.48 79.163 242.701 7.20997 244.277 -5.06471Z" stroke="#442B48" stroke-width="17.9182" mask="url(#path-3-outside-1)"/>
<path d="M362.146 111.268C363.723 98.9936 374.46 92.519 372.518 99.3363C370.575 106.154 388.571 179.265 385.049 189.407C381.528 199.55 374.899 204.29 375.624 199.893C376.348 195.496 360.569 123.543 362.146 111.268Z" stroke="#442B48" stroke-width="17.9182" mask="url(#path-3-outside-1)"/>
<path d="M127.855 -121.95C129.431 -134.224 140.169 -140.699 138.227 -133.882C136.284 -127.064 154.279 -53.9535 150.758 -43.8107C147.237 -33.6679 140.608 -28.9276 141.332 -33.3248C142.057 -37.722 126.278 -109.675 127.855 -121.95Z" stroke="#442B48" stroke-width="17.9182" mask="url(#path-3-outside-1)"/>
<path d="M272.988 24.2201C274.565 11.9454 285.302 5.47075 283.36 12.2881C281.417 19.1054 299.413 92.2163 295.891 102.359C292.37 112.502 285.741 117.242 286.466 112.845C287.19 108.448 271.411 36.4947 272.988 24.2201Z" stroke="#442B48" stroke-width="17.9182" mask="url(#path-3-outside-1)"/>
<path d="M390.856 140.553C392.433 128.278 403.171 121.804 401.228 128.621C399.286 135.438 417.281 208.549 413.76 218.692C410.238 228.835 403.61 233.575 404.334 229.178C405.059 224.781 389.28 152.828 390.856 140.553Z" stroke="#442B48" stroke-width="17.9182" mask="url(#path-3-outside-1)"/>
<path d="M156.565 -92.6649C158.142 -104.94 168.879 -111.414 166.937 -104.597C164.995 -97.7796 182.99 -24.6687 179.469 -14.5259C175.947 -4.38311 169.318 0.357155 170.043 -4.04004C170.767 -8.43724 154.989 -80.3902 156.565 -92.6649Z" stroke="#442B48" stroke-width="17.9182" mask="url(#path-3-outside-1)"/>
<path d="M301.9 53.2156C303.476 40.9409 314.214 34.4663 312.272 41.2836C310.329 48.1009 328.324 121.212 324.803 131.355C321.282 141.497 314.653 146.238 315.378 141.84C316.102 137.443 300.323 65.4903 301.9 53.2156Z" stroke="#442B48" stroke-width="17.9182" mask="url(#path-3-outside-1)"/>
<path d="M419.768 169.549C421.345 157.274 432.082 150.799 430.14 157.617C428.198 164.434 446.193 237.545 442.672 247.688C439.15 257.83 432.521 262.571 433.246 258.173C433.971 253.776 418.192 181.823 419.768 169.549Z" stroke="#442B48" stroke-width="17.9182" mask="url(#path-3-outside-1)"/>
<path d="M185.477 -63.6694C187.054 -75.944 197.791 -82.4187 195.849 -75.6014C193.907 -68.7841 211.902 4.32685 208.38 14.4696C204.859 24.6124 198.23 29.3527 198.955 24.9555C199.679 20.5583 183.9 -51.3947 185.477 -63.6694Z" stroke="#442B48" stroke-width="17.9182" mask="url(#path-3-outside-1)"/>
<path d="M332.023 82.242C333.6 69.9673 344.337 63.4926 342.395 70.31C340.452 77.1273 358.447 150.238 354.926 160.381C351.405 170.524 344.776 175.264 345.501 170.867C346.225 166.47 330.446 94.5166 332.023 82.242Z" stroke="#442B48" stroke-width="17.9182" mask="url(#path-3-outside-1)"/>
<path d="M449.891 198.575C451.468 186.3 462.205 179.826 460.263 186.643C458.321 193.46 476.316 266.571 472.795 276.714C469.273 286.857 462.645 291.597 463.369 287.2C464.094 282.803 448.315 210.85 449.891 198.575Z" stroke="#442B48" stroke-width="17.9182" mask="url(#path-3-outside-1)"/>
<path d="M248.524 -18.734C242.157 -16.3055 241.164 -22.9443 241.464 -26.5673C242.762 -29.7724 248.77 -27.8533 251.232 -29.2625C253.694 -30.6718 256.484 -21.7696 248.524 -18.734Z" stroke="#442B48" stroke-width="17.9182" mask="url(#path-3-outside-1)"/>
<path d="M366.393 97.5991C360.025 100.028 359.032 93.3887 359.332 89.7657C360.63 86.5606 366.639 88.4797 369.101 87.0705C371.562 85.6612 374.352 94.5634 366.393 97.5991Z" stroke="#442B48" stroke-width="17.9182" mask="url(#path-3-outside-1)"/>
<path d="M132.102 -135.619C125.734 -133.19 124.741 -139.829 125.041 -143.452C126.339 -146.657 132.347 -144.738 134.809 -146.148C137.271 -147.557 140.061 -138.655 132.102 -135.619Z" stroke="#442B48" stroke-width="17.9182" mask="url(#path-3-outside-1)"/>
<path d="M277.235 10.5508C270.867 12.9793 269.874 6.34046 270.174 2.71746C271.472 -0.487601 277.481 1.43147 279.943 0.0222309C282.405 -1.38701 285.194 7.51522 277.235 10.5508Z" stroke="#442B48" stroke-width="17.9182" mask="url(#path-3-outside-1)"/>
<path d="M395.103 126.884C388.736 129.312 387.743 122.673 388.043 119.05C389.341 115.845 395.349 117.764 397.811 116.355C400.273 114.946 403.063 123.848 395.103 126.884Z" stroke="#442B48" stroke-width="17.9182" mask="url(#path-3-outside-1)"/>
<path d="M160.812 -106.334C154.444 -103.906 153.452 -110.545 153.751 -114.168C155.05 -117.373 161.058 -115.454 163.52 -116.863C165.982 -118.272 168.772 -109.37 160.812 -106.334Z" stroke="#442B48" stroke-width="17.9182" mask="url(#path-3-outside-1)"/>
<path d="M306.147 39.5464C299.779 41.9749 298.786 35.336 299.086 31.713C300.384 28.5079 306.393 30.427 308.854 29.0178C311.316 27.6085 314.106 36.5107 306.147 39.5464Z" stroke="#442B48" stroke-width="17.9182" mask="url(#path-3-outside-1)"/>
<path d="M424.015 155.879C417.647 158.308 416.655 151.669 416.954 148.046C418.253 144.841 424.261 146.76 426.723 145.351C429.185 143.942 431.975 152.844 424.015 155.879Z" stroke="#442B48" stroke-width="17.9182" mask="url(#path-3-outside-1)"/>
<path d="M189.724 -77.3386C183.356 -74.9101 182.364 -81.549 182.663 -85.172C183.962 -88.3771 189.97 -86.458 192.432 -87.8672C194.894 -89.2765 197.684 -80.3742 189.724 -77.3386Z" stroke="#442B48" stroke-width="17.9182" mask="url(#path-3-outside-1)"/>
<path d="M336.27 68.5727C329.902 71.0012 328.909 64.3623 329.209 60.7393C330.507 57.5343 336.516 59.4534 338.978 58.0441C341.439 56.6349 344.229 65.5371 336.27 68.5727Z" stroke="#442B48" stroke-width="17.9182" mask="url(#path-3-outside-1)"/>
<path d="M454.138 184.906C447.77 187.334 446.778 180.695 447.077 177.072C448.376 173.867 454.384 175.786 456.846 174.377C459.308 172.968 462.098 181.87 454.138 184.906Z" stroke="#442B48" stroke-width="17.9182" mask="url(#path-3-outside-1)"/>
<path d="M219.847 -48.3123C213.479 -45.8838 212.487 -52.5226 212.786 -56.1456C214.085 -59.3507 220.093 -57.4316 222.555 -58.8409C225.017 -60.2501 227.807 -51.3479 219.847 -48.3123Z" stroke="#442B48" stroke-width="17.9182" mask="url(#path-3-outside-1)"/>
<path d="M239.328 65.7916C245.621 62.7132 241.284 57.4836 238.33 55.2537C234.993 54.0472 232.246 59.8016 229.457 60.6735C226.668 61.5454 231.462 69.6397 239.328 65.7916Z" stroke="#442B48" stroke-width="17.9182" mask="url(#path-3-outside-1)"/>
<path d="M357.197 182.125C363.489 179.046 359.153 173.817 356.198 171.587C352.862 170.38 350.115 176.135 347.326 177.007C344.536 177.878 349.331 185.973 357.197 182.125Z" stroke="#442B48" stroke-width="17.9182" mask="url(#path-3-outside-1)"/>
<path d="M122.905 -51.0933C129.198 -54.1718 124.862 -59.4013 121.907 -61.6313C118.571 -62.8378 115.824 -57.0834 113.034 -56.2114C110.245 -55.3395 115.04 -47.2453 122.905 -51.0933Z" stroke="#442B48" stroke-width="17.9182" mask="url(#path-3-outside-1)"/>
<path d="M268.039 95.0764C274.331 91.9979 269.995 86.7684 267.04 84.5385C263.704 83.332 260.957 89.0864 258.168 89.9583C255.378 90.8302 260.173 98.9245 268.039 95.0764Z" stroke="#442B48" stroke-width="17.9182" mask="url(#path-3-outside-1)"/>
<path d="M385.907 211.409C392.2 208.331 387.863 203.101 384.909 200.871C381.572 199.665 378.825 205.419 376.036 206.291C373.247 207.163 378.041 215.258 385.907 211.409Z" stroke="#442B48" stroke-width="17.9182" mask="url(#path-3-outside-1)"/>
<path d="M151.616 -21.8086C157.908 -24.887 153.572 -30.1166 150.617 -32.3465C147.281 -33.553 144.534 -27.7986 141.745 -26.9267C138.956 -26.0547 143.75 -17.9605 151.616 -21.8086Z" stroke="#442B48" stroke-width="17.9182" mask="url(#path-3-outside-1)"/>
<path d="M296.951 124.072C303.243 120.993 298.907 115.764 295.952 113.534C292.616 112.328 289.869 118.082 287.079 118.954C284.29 119.826 289.085 127.92 296.951 124.072Z" stroke="#442B48" stroke-width="17.9182" mask="url(#path-3-outside-1)"/>
<path d="M414.819 240.405C421.112 237.326 416.775 232.097 413.82 229.867C410.484 228.661 407.737 234.415 404.948 235.287C402.159 236.159 406.953 244.253 414.819 240.405Z" stroke="#442B48" stroke-width="17.9182" mask="url(#path-3-outside-1)"/>
<path d="M180.528 7.18696C186.82 4.1085 182.484 -1.12103 179.529 -3.35098C176.193 -4.55747 173.446 1.19695 170.657 2.06886C167.867 2.94078 172.662 11.035 180.528 7.18696Z" stroke="#442B48" stroke-width="17.9182" mask="url(#path-3-outside-1)"/>
<path d="M327.074 153.098C333.366 150.02 329.03 144.79 326.075 142.56C322.739 141.354 319.992 147.108 317.202 147.98C314.413 148.852 319.208 156.946 327.074 153.098Z" stroke="#442B48" stroke-width="17.9182" mask="url(#path-3-outside-1)"/>
<path d="M444.942 269.431C451.235 266.353 446.898 261.123 443.943 258.893C440.607 257.687 437.86 263.441 435.071 264.313C432.282 265.185 437.076 273.279 444.942 269.431Z" stroke="#442B48" stroke-width="17.9182" mask="url(#path-3-outside-1)"/>
<path d="M210.651 36.2133C216.943 33.1348 212.607 27.9053 209.652 25.6754C206.316 24.4689 203.569 30.2233 200.78 31.0952C197.99 31.9671 202.785 40.0614 210.651 36.2133Z" stroke="#442B48" stroke-width="17.9182" mask="url(#path-3-outside-1)"/>
<path d="M232.958 -49.0259C224.965 -49.2292 230.024 -26.3355 233.552 -14.8633C234.937 -10.0255 238.72 18.2382 240.06 24.7485C241.399 31.2588 246.088 59.6381 244.48 74.3159C242.873 88.9938 247.901 93.5373 252.578 88.6519C257.254 83.7665 252.553 78.3482 251.603 68.6096C250.654 58.8711 243.244 7.75579 240.007 -7.0453C236.77 -21.8464 242.95 -48.7717 232.958 -49.0259Z" stroke="#442B48" stroke-width="17.9182" mask="url(#path-3-outside-1)"/>
<path d="M350.827 67.3072C342.833 67.1038 347.892 89.9975 351.421 101.47C352.805 106.307 356.588 134.571 357.928 141.082C359.267 147.592 363.956 175.971 362.349 190.649C360.741 205.327 365.77 209.87 370.446 204.985C375.123 200.1 370.421 194.681 369.472 184.943C368.522 175.204 361.113 124.089 357.876 109.288C354.639 94.4866 360.819 67.5614 350.827 67.3072Z" stroke="#442B48" stroke-width="17.9182" mask="url(#path-3-outside-1)"/>
<path d="M116.535 -165.911C108.542 -166.114 113.601 -143.221 117.13 -131.748C118.514 -126.911 122.297 -98.6468 123.637 -92.1365C124.976 -85.6262 129.665 -57.2469 128.058 -42.5691C126.45 -27.8912 131.479 -23.3477 136.155 -28.2331C140.832 -33.1184 136.13 -38.5368 135.18 -48.2753C134.231 -58.0139 126.822 -109.129 123.585 -123.93C120.348 -138.731 126.527 -165.657 116.535 -165.911Z" stroke="#442B48" stroke-width="17.9182" mask="url(#path-3-outside-1)"/>
<path d="M261.669 -19.7411C253.675 -19.9444 258.734 2.94925 262.263 14.4215C263.647 19.2592 267.431 47.523 268.77 54.0333C270.11 60.5436 274.799 88.9229 273.191 103.601C271.583 118.279 276.612 122.822 281.288 117.937C285.965 113.051 281.263 107.633 280.314 97.8944C279.364 88.1559 271.955 37.0406 268.718 22.2395C265.481 7.43839 271.661 -19.4869 261.669 -19.7411Z" stroke="#442B48" stroke-width="17.9182" mask="url(#path-3-outside-1)"/>
<path d="M379.537 96.5919C371.544 96.3886 376.603 119.282 380.131 130.755C381.516 135.592 385.299 163.856 386.638 170.366C387.978 176.877 392.667 205.256 391.059 219.934C389.452 234.612 394.48 239.155 399.157 234.27C403.833 229.384 399.131 223.966 398.182 214.227C397.233 204.489 389.823 153.374 386.586 138.573C383.349 123.771 389.529 96.8461 379.537 96.5919Z" stroke="#442B48" stroke-width="17.9182" mask="url(#path-3-outside-1)"/>
<path d="M145.246 -136.626C137.252 -136.829 142.311 -113.936 145.84 -102.463C147.225 -97.6257 151.008 -69.362 152.347 -62.8517C153.687 -56.3414 158.376 -27.9621 156.768 -13.2843C155.161 1.39357 160.189 5.93712 164.866 1.05173C169.542 -3.83366 164.84 -9.25203 163.891 -18.9906C162.941 -28.7291 155.532 -79.8444 152.295 -94.6455C149.058 -109.447 155.238 -136.372 145.246 -136.626Z" stroke="#442B48" stroke-width="17.9182" mask="url(#path-3-outside-1)"/>
<path d="M290.581 9.25446C282.587 9.05109 287.646 31.9448 291.175 43.417C292.559 48.2548 296.342 76.5185 297.682 83.0288C299.021 89.5391 303.71 117.918 302.103 132.596C300.495 147.274 305.524 151.818 310.2 146.932C314.877 142.047 310.175 136.628 309.225 126.89C308.276 117.151 300.867 66.0361 297.63 51.235C294.393 36.4339 300.572 9.50867 290.581 9.25446Z" stroke="#442B48" stroke-width="17.9182" mask="url(#path-3-outside-1)"/>
<path d="M408.449 125.587C400.455 125.384 405.514 148.278 409.043 159.75C410.428 164.588 414.211 192.852 415.55 199.362C416.89 205.872 421.579 234.251 419.971 248.929C418.364 263.607 423.392 268.151 428.069 263.265C432.745 258.38 428.043 252.961 427.094 243.223C426.144 233.484 418.735 182.369 415.498 167.568C412.261 152.767 418.441 125.842 408.449 125.587Z" stroke="#442B48" stroke-width="17.9182" mask="url(#path-3-outside-1)"/>
<path d="M174.158 -107.631C166.164 -107.834 171.223 -84.9402 174.752 -73.4679C176.137 -68.6302 179.92 -40.3665 181.259 -33.8562C182.599 -27.3458 187.288 1.03343 185.68 15.7113C184.072 30.3891 189.101 34.9327 193.777 30.0473C198.454 25.1619 193.752 19.7435 192.803 10.005C191.853 0.266458 184.444 -50.8489 181.207 -65.65C177.97 -80.4511 184.15 -107.376 174.158 -107.631Z" stroke="#442B48" stroke-width="17.9182" mask="url(#path-3-outside-1)"/>
<path d="M320.704 38.2808C312.71 38.0774 317.769 60.9711 321.298 72.4434C322.682 77.2811 326.465 105.545 327.805 112.055C329.144 118.565 333.833 146.945 332.226 161.623C330.618 176.3 335.647 180.844 340.323 175.959C345 171.073 340.298 165.655 339.349 155.916C338.399 146.178 330.99 95.0624 327.753 80.2614C324.516 65.4603 330.696 38.535 320.704 38.2808Z" stroke="#442B48" stroke-width="17.9182" mask="url(#path-3-outside-1)"/>
<path d="M438.572 154.614C430.578 154.41 435.637 177.304 439.166 188.776C440.551 193.614 444.334 221.878 445.673 228.388C447.013 234.898 451.702 263.278 450.094 277.956C448.487 292.633 453.515 297.177 458.192 292.292C462.868 287.406 458.166 281.988 457.217 272.249C456.267 262.511 448.858 211.395 445.621 196.594C442.384 181.793 448.564 154.868 438.572 154.614Z" stroke="#442B48" stroke-width="17.9182" mask="url(#path-3-outside-1)"/>
<path d="M204.281 -78.6042C196.287 -78.8075 201.346 -55.9139 204.875 -44.4416C206.26 -39.6039 210.043 -11.3401 211.382 -4.82982C212.722 1.68051 217.411 30.0598 215.803 44.7376C214.195 59.4154 219.224 63.959 223.9 59.0736C228.577 54.1882 223.875 48.7699 222.926 39.0313C221.976 29.2928 214.567 -21.8225 211.33 -36.6236C208.093 -51.4247 214.273 -78.35 204.281 -78.6042Z" stroke="#442B48" stroke-width="17.9182" mask="url(#path-3-outside-1)"/>
<mask id="path-4-outside-2" maskUnits="userSpaceOnUse" x="437.695" y="-184.5" width="503.241" height="490.872" fill="black">
<rect fill="white" x="437.695" y="-184.5" width="503.241" height="490.872"/>
<path d="M618.465 -39.5151C620.042 -51.7898 630.779 -58.2644 628.837 -51.4471C626.894 -44.6298 644.889 28.4811 641.368 38.6239C637.847 48.7667 631.218 53.507 631.943 49.1098C632.667 44.7126 616.888 -27.2404 618.465 -39.5151Z"/>
<path d="M647.24 -9.56459C648.817 -21.8393 659.554 -28.3139 657.612 -21.4966C655.67 -14.6793 673.665 58.4316 670.144 68.5744C666.622 78.7172 659.993 83.4575 660.718 79.0603C661.443 74.6631 645.664 2.71009 647.24 -9.56459Z"/>
<path d="M765.109 106.768C766.685 94.4937 777.423 88.0191 775.481 94.8364C773.538 101.654 791.533 174.765 788.012 184.907C784.491 195.05 777.862 199.79 778.586 195.393C779.311 190.996 763.532 119.043 765.109 106.768Z"/>
<path d="M530.818 -126.45C532.394 -138.724 543.132 -145.199 541.189 -138.382C539.247 -131.564 557.242 -58.4533 553.721 -48.3106C550.2 -38.1678 543.571 -33.4275 544.295 -37.8247C545.02 -42.2219 529.241 -114.175 530.818 -126.45Z"/>
<path d="M675.951 19.7202C677.527 7.44552 688.265 0.970868 686.323 7.78819C684.38 14.6055 702.375 87.7164 698.854 97.8592C695.333 108.002 688.704 112.742 689.429 108.345C690.153 103.948 674.374 31.9949 675.951 19.7202Z"/>
<path d="M793.819 136.053C795.396 123.779 806.133 117.304 804.191 124.121C802.249 130.939 820.244 204.049 816.723 214.192C813.201 224.335 806.572 229.075 807.297 224.678C808.021 220.281 792.243 148.328 793.819 136.053Z"/>
<path d="M559.528 -97.1648C561.105 -109.439 571.842 -115.914 569.9 -109.097C567.957 -102.279 585.953 -29.1686 582.431 -19.0258C578.91 -8.88298 572.281 -4.14272 573.006 -8.53992C573.73 -12.9371 557.951 -84.8901 559.528 -97.1648Z"/>
<path d="M704.863 48.7157C706.439 36.4411 717.177 29.9664 715.234 36.7837C713.292 43.601 731.287 116.712 727.766 126.855C724.245 136.998 717.616 141.738 718.34 137.341C719.065 132.943 703.286 60.9904 704.863 48.7157Z"/>
<path d="M822.731 165.049C824.308 152.774 835.045 146.299 833.103 153.117C831.161 159.934 849.156 233.045 845.634 243.188C842.113 253.331 835.484 258.071 836.209 253.674C836.933 249.276 821.154 177.323 822.731 165.049Z"/>
<path d="M588.44 -68.1693C590.017 -80.4439 600.754 -86.9186 598.812 -80.1013C596.869 -73.2839 614.864 -0.173031 611.343 9.96976C607.822 20.1125 601.193 24.8528 601.918 20.4556C602.642 16.0584 586.863 -55.8946 588.44 -68.1693Z"/>
<path d="M734.986 77.7421C736.562 65.4674 747.3 58.9928 745.358 65.8101C743.415 72.6274 761.41 145.738 757.889 155.881C754.368 166.024 747.739 170.764 748.463 166.367C749.188 161.97 733.409 90.0168 734.986 77.7421Z"/>
<path d="M852.854 194.075C854.431 181.8 865.168 175.326 863.226 182.143C861.284 188.96 879.279 262.071 875.757 272.214C872.236 282.357 865.607 287.097 866.332 282.7C867.056 278.303 851.278 206.35 852.854 194.075Z"/>
<path d="M651.487 -23.2338C645.119 -20.8053 644.127 -27.4442 644.426 -31.0672C645.725 -34.2723 651.733 -32.3532 654.195 -33.7624C656.657 -35.1717 659.447 -26.2694 651.487 -23.2338Z"/>
<path d="M769.356 93.0992C762.988 95.5277 761.995 88.8888 762.295 85.2658C763.593 82.0607 769.601 83.9798 772.063 82.5706C774.525 81.1613 777.315 90.0636 769.356 93.0992Z"/>
<path d="M535.064 -140.119C528.697 -137.69 527.704 -144.329 528.004 -147.952C529.302 -151.157 535.31 -149.238 537.772 -150.647C540.234 -152.057 543.024 -143.154 535.064 -140.119Z"/>
<path d="M680.198 6.05096C673.83 8.47946 672.837 1.84058 673.137 -1.78242C674.435 -4.98748 680.443 -3.06841 682.905 -4.47765C685.367 -5.88688 688.157 3.01534 680.198 6.05096Z"/>
<path d="M798.066 122.384C791.698 124.812 790.706 118.174 791.005 114.551C792.304 111.346 798.312 113.265 800.774 111.855C803.236 110.446 806.026 119.348 798.066 122.384Z"/>
<path d="M563.775 -110.834C557.407 -108.406 556.414 -115.044 556.714 -118.667C558.012 -121.872 564.021 -119.953 566.483 -121.363C568.945 -122.772 571.735 -113.87 563.775 -110.834Z"/>
<path d="M709.11 35.0465C702.742 37.475 701.749 30.8361 702.049 27.2131C703.347 24.008 709.355 25.9271 711.817 24.5179C714.279 23.1087 717.069 32.0109 709.11 35.0465Z"/>
<path d="M826.978 151.38C820.61 153.808 819.618 147.169 819.917 143.546C821.216 140.341 827.224 142.26 829.686 140.851C832.148 139.442 834.938 148.344 826.978 151.38Z"/>
<path d="M592.687 -81.8385C586.319 -79.41 585.326 -86.0489 585.626 -89.6719C586.924 -92.8769 592.933 -90.9579 595.395 -92.3671C597.856 -93.7763 600.646 -84.8741 592.687 -81.8385Z"/>
<path d="M739.233 64.0728C732.865 66.5013 731.872 59.8625 732.172 56.2395C733.47 53.0344 739.478 54.9535 741.94 53.5442C744.402 52.135 747.192 61.0372 739.233 64.0728Z"/>
<path d="M857.101 180.406C850.733 182.834 849.741 176.195 850.04 172.572C851.339 169.367 857.347 171.286 859.809 169.877C862.271 168.468 865.061 177.37 857.101 180.406Z"/>
<path d="M622.81 -52.8121C616.442 -50.3836 615.449 -57.0225 615.749 -60.6455C617.047 -63.8506 623.056 -61.9315 625.518 -63.3407C627.979 -64.75 630.769 -55.8478 622.81 -52.8121Z"/>
<path d="M642.291 61.2918C648.584 58.2133 644.247 52.9837 641.292 50.7538C637.956 49.5473 635.209 55.3017 632.42 56.1737C629.631 57.0456 634.425 65.1398 642.291 61.2918Z"/>
<path d="M760.159 177.625C766.452 174.546 762.116 169.317 759.161 167.087C755.825 165.88 753.078 171.635 750.288 172.507C747.499 173.379 752.294 181.473 760.159 177.625Z"/>
<path d="M525.868 -55.5932C532.161 -58.6717 527.824 -63.9012 524.87 -66.1312C521.533 -67.3377 518.786 -61.5832 515.997 -60.7113C513.208 -59.8394 518.002 -51.7451 525.868 -55.5932Z"/>
<path d="M671.001 90.5765C677.294 87.4981 672.958 82.2685 670.003 80.0386C666.667 78.8321 663.92 84.5865 661.13 85.4584C658.341 86.3304 663.136 94.4246 671.001 90.5765Z"/>
<path d="M788.87 206.91C795.162 203.831 790.826 198.602 787.871 196.372C784.535 195.165 781.788 200.92 778.999 201.791C776.21 202.663 781.004 210.758 788.87 206.91Z"/>
<path d="M554.579 -26.3084C560.871 -29.3869 556.535 -34.6164 553.58 -36.8464C550.244 -38.0529 547.497 -32.2985 544.708 -31.4265C541.918 -30.5546 546.713 -22.4604 554.579 -26.3084Z"/>
<path d="M699.913 119.572C706.206 116.494 701.87 111.264 698.915 109.034C695.578 107.828 692.832 113.582 690.042 114.454C687.253 115.326 692.048 123.42 699.913 119.572Z"/>
<path d="M817.782 235.905C824.074 232.827 819.738 227.597 816.783 225.367C813.447 224.161 810.7 229.915 807.911 230.787C805.121 231.659 809.916 239.753 817.782 235.905Z"/>
<path d="M583.491 2.68709C589.783 -0.391382 585.447 -5.62091 582.492 -7.85086C579.156 -9.05735 576.409 -3.30293 573.619 -2.43101C570.83 -1.5591 575.625 6.53517 583.491 2.68709Z"/>
<path d="M730.036 148.598C736.329 145.52 731.993 140.29 729.038 138.06C725.701 136.854 722.955 142.608 720.165 143.48C717.376 144.352 722.171 152.446 730.036 148.598Z"/>
<path d="M847.905 264.931C854.197 261.853 849.861 256.623 846.906 254.393C843.57 253.187 840.823 258.941 838.034 259.813C835.244 260.685 840.039 268.78 847.905 264.931Z"/>
<path d="M613.614 31.7134C619.906 28.635 615.57 23.4054 612.615 21.1755C609.279 19.969 606.532 25.7234 603.743 26.5953C600.953 27.4673 605.748 35.5615 613.614 31.7134Z"/>
<path d="M635.921 -53.5257C627.927 -53.7291 632.986 -30.8354 636.515 -19.3631C637.9 -14.5254 641.683 13.7383 643.022 20.2486C644.362 26.7589 649.051 55.1382 647.443 69.816C645.836 84.4939 650.864 89.0374 655.541 84.152C660.217 79.2667 655.515 73.8483 654.566 64.1098C653.616 54.3712 646.207 3.25592 642.97 -11.5452C639.733 -26.3463 645.913 -53.2715 635.921 -53.5257Z"/>
<path d="M753.789 62.8073C745.796 62.6039 750.855 85.4976 754.384 96.9699C755.768 101.808 759.551 130.071 760.891 136.582C762.23 143.092 766.919 171.471 765.312 186.149C763.704 200.827 768.732 205.37 773.409 200.485C778.086 195.6 773.384 190.181 772.434 180.443C771.485 170.704 764.076 119.589 760.839 104.788C757.602 89.9868 763.781 63.0615 753.789 62.8073Z"/>
<path d="M519.498 -170.411C511.505 -170.614 516.564 -147.72 520.092 -136.248C521.477 -131.41 525.26 -103.147 526.6 -96.6364C527.939 -90.126 532.628 -61.7468 531.02 -47.0689C529.413 -32.3911 534.441 -27.8475 539.118 -32.7329C543.794 -37.6183 539.093 -43.0367 538.143 -52.7752C537.194 -62.5137 529.785 -113.629 526.548 -128.43C523.311 -143.231 529.49 -170.157 519.498 -170.411Z"/>
<path d="M664.631 -24.2409C656.638 -24.4443 661.697 -1.55063 665.226 9.92164C666.61 14.7594 670.393 43.0231 671.733 49.5334C673.072 56.0437 677.761 84.423 676.154 99.1008C674.546 113.779 679.575 118.322 684.251 113.437C688.928 108.551 684.226 103.133 683.276 93.3946C682.327 83.656 674.918 32.5407 671.681 17.7396C668.444 2.93851 674.623 -23.9867 664.631 -24.2409Z"/>
<path d="M782.5 92.0921C774.506 91.8887 779.565 114.782 783.094 126.255C784.479 131.092 788.262 159.356 789.601 165.866C790.941 172.377 795.63 200.756 794.022 215.434C792.415 230.112 797.443 234.655 802.12 229.77C806.796 224.884 802.094 219.466 801.145 209.728C800.195 199.989 792.786 148.874 789.549 134.073C786.312 119.272 792.492 92.3463 782.5 92.0921Z"/>
<path d="M548.209 -141.126C540.215 -141.329 545.274 -118.436 548.803 -106.963C550.187 -102.126 553.971 -73.8619 555.31 -67.3516C556.65 -60.8413 561.339 -32.462 559.731 -17.7841C558.123 -3.10631 563.152 1.43724 567.828 -3.44815C572.505 -8.33354 567.803 -13.7519 566.854 -23.4904C565.904 -33.229 558.495 -84.3443 555.258 -99.1454C552.021 -113.946 558.201 -140.872 548.209 -141.126Z"/>
<path d="M693.543 4.75458C685.55 4.55121 690.609 27.4449 694.138 38.9172C695.522 43.7549 699.305 72.0186 700.645 78.5289C701.984 85.0393 706.673 113.419 705.066 128.096C703.458 142.774 708.486 147.318 713.163 142.432C717.84 137.547 713.138 132.129 712.188 122.39C711.239 112.652 703.83 61.5362 700.593 46.7351C697.356 31.9341 703.535 5.00879 693.543 4.75458Z"/>
<path d="M811.412 121.088C803.418 120.884 808.477 143.778 812.006 155.25C813.391 160.088 817.174 188.352 818.513 194.862C819.853 201.372 824.542 229.752 822.934 244.429C821.326 259.107 826.355 263.651 831.031 258.765C835.708 253.88 831.006 248.462 830.057 238.723C829.107 228.985 821.698 177.869 818.461 163.068C815.224 148.267 821.404 121.342 811.412 121.088Z"/>
<path d="M577.121 -112.13C569.127 -112.334 574.186 -89.4401 577.715 -77.9678C579.099 -73.1301 582.882 -44.8664 584.222 -38.356C585.561 -31.8457 590.25 -3.46645 588.643 11.2114C587.035 25.8892 592.064 30.4328 596.74 25.5474C601.417 20.662 596.715 15.2436 595.765 5.5051C594.816 -4.23342 587.407 -55.3487 584.17 -70.1498C580.933 -84.9509 587.113 -111.876 577.121 -112.13Z"/>
<path d="M723.666 33.7809C715.673 33.5776 720.732 56.4713 724.261 67.9435C725.645 72.7813 729.428 101.045 730.768 107.555C732.107 114.066 736.796 142.445 735.189 157.123C733.581 171.801 738.609 176.344 743.286 171.459C747.963 166.573 743.261 161.155 742.311 151.416C741.362 141.678 733.953 90.5626 730.716 75.7615C727.479 60.9604 733.658 34.0351 723.666 33.7809Z"/>
<path d="M841.535 150.114C833.541 149.911 838.6 172.804 842.129 184.277C843.514 189.114 847.297 217.378 848.636 223.888C849.976 230.399 854.665 258.778 853.057 273.456C851.449 288.134 856.478 292.677 861.154 287.792C865.831 282.906 861.129 277.488 860.18 267.749C859.23 258.011 851.821 206.896 848.584 192.094C845.347 177.293 851.527 150.368 841.535 150.114Z"/>
<path d="M607.244 -83.1041C599.25 -83.3074 604.309 -60.4137 607.838 -48.9415C609.222 -44.1037 613.005 -15.84 614.345 -9.32969C615.684 -2.81937 620.373 25.5599 618.766 40.2377C617.158 54.9156 622.187 59.4591 626.863 54.5737C631.54 49.6883 626.838 44.27 625.889 34.5314C624.939 24.7929 617.53 -26.3224 614.293 -41.1235C611.056 -55.9246 617.236 -82.8498 607.244 -83.1041Z"/>
</mask>
<path d="M618.465 -39.5151C620.042 -51.7898 630.779 -58.2644 628.837 -51.4471C626.894 -44.6298 644.889 28.4811 641.368 38.6239C637.847 48.7667 631.218 53.507 631.943 49.1098C632.667 44.7126 616.888 -27.2404 618.465 -39.5151Z" fill="#B37BA4" fill-opacity="0.3"/>
<path d="M647.24 -9.56459C648.817 -21.8393 659.554 -28.3139 657.612 -21.4966C655.67 -14.6793 673.665 58.4316 670.144 68.5744C666.622 78.7172 659.993 83.4575 660.718 79.0603C661.443 74.6631 645.664 2.71009 647.24 -9.56459Z" fill="#B37BA4" fill-opacity="0.3"/>
<path d="M765.109 106.768C766.685 94.4937 777.423 88.0191 775.481 94.8364C773.538 101.654 791.533 174.765 788.012 184.907C784.491 195.05 777.862 199.79 778.586 195.393C779.311 190.996 763.532 119.043 765.109 106.768Z" fill="#B37BA4" fill-opacity="0.3"/>
<path d="M530.818 -126.45C532.394 -138.724 543.132 -145.199 541.189 -138.382C539.247 -131.564 557.242 -58.4533 553.721 -48.3106C550.2 -38.1678 543.571 -33.4275 544.295 -37.8247C545.02 -42.2219 529.241 -114.175 530.818 -126.45Z" fill="#B37BA4" fill-opacity="0.3"/>
<path d="M675.951 19.7202C677.527 7.44552 688.265 0.970868 686.323 7.78819C684.38 14.6055 702.375 87.7164 698.854 97.8592C695.333 108.002 688.704 112.742 689.429 108.345C690.153 103.948 674.374 31.9949 675.951 19.7202Z" fill="#B37BA4" fill-opacity="0.3"/>
<path d="M793.819 136.053C795.396 123.779 806.133 117.304 804.191 124.121C802.249 130.939 820.244 204.049 816.723 214.192C813.201 224.335 806.572 229.075 807.297 224.678C808.021 220.281 792.243 148.328 793.819 136.053Z" fill="#B37BA4" fill-opacity="0.3"/>
<path d="M559.528 -97.1648C561.105 -109.439 571.842 -115.914 569.9 -109.097C567.957 -102.279 585.953 -29.1686 582.431 -19.0258C578.91 -8.88298 572.281 -4.14272 573.006 -8.53992C573.73 -12.9371 557.951 -84.8901 559.528 -97.1648Z" fill="#B37BA4" fill-opacity="0.3"/>
<path d="M704.863 48.7157C706.439 36.4411 717.177 29.9664 715.234 36.7837C713.292 43.601 731.287 116.712 727.766 126.855C724.245 136.998 717.616 141.738 718.34 137.341C719.065 132.943 703.286 60.9904 704.863 48.7157Z" fill="#B37BA4" fill-opacity="0.3"/>
<path d="M822.731 165.049C824.308 152.774 835.045 146.299 833.103 153.117C831.161 159.934 849.156 233.045 845.634 243.188C842.113 253.331 835.484 258.071 836.209 253.674C836.933 249.276 821.154 177.323 822.731 165.049Z" fill="#B37BA4" fill-opacity="0.3"/>
<path d="M588.44 -68.1693C590.017 -80.4439 600.754 -86.9186 598.812 -80.1013C596.869 -73.2839 614.864 -0.173031 611.343 9.96976C607.822 20.1125 601.193 24.8528 601.918 20.4556C602.642 16.0584 586.863 -55.8946 588.44 -68.1693Z" fill="#B37BA4" fill-opacity="0.3"/>
<path d="M734.986 77.7421C736.562 65.4674 747.3 58.9928 745.358 65.8101C743.415 72.6274 761.41 145.738 757.889 155.881C754.368 166.024 747.739 170.764 748.463 166.367C749.188 161.97 733.409 90.0168 734.986 77.7421Z" fill="#B37BA4" fill-opacity="0.3"/>
<path d="M852.854 194.075C854.431 181.8 865.168 175.326 863.226 182.143C861.284 188.96 879.279 262.071 875.757 272.214C872.236 282.357 865.607 287.097 866.332 282.7C867.056 278.303 851.278 206.35 852.854 194.075Z" fill="#B37BA4" fill-opacity="0.3"/>
<path d="M651.487 -23.2338C645.119 -20.8053 644.127 -27.4442 644.426 -31.0672C645.725 -34.2723 651.733 -32.3532 654.195 -33.7624C656.657 -35.1717 659.447 -26.2694 651.487 -23.2338Z" fill="#B37BA4" fill-opacity="0.3"/>
<path d="M769.356 93.0992C762.988 95.5277 761.995 88.8888 762.295 85.2658C763.593 82.0607 769.601 83.9798 772.063 82.5706C774.525 81.1613 777.315 90.0636 769.356 93.0992Z" fill="#B37BA4" fill-opacity="0.3"/>
<path d="M535.064 -140.119C528.697 -137.69 527.704 -144.329 528.004 -147.952C529.302 -151.157 535.31 -149.238 537.772 -150.647C540.234 -152.057 543.024 -143.154 535.064 -140.119Z" fill="#B37BA4" fill-opacity="0.3"/>
<path d="M680.198 6.05096C673.83 8.47946 672.837 1.84058 673.137 -1.78242C674.435 -4.98748 680.443 -3.06841 682.905 -4.47765C685.367 -5.88688 688.157 3.01534 680.198 6.05096Z" fill="#B37BA4" fill-opacity="0.3"/>
<path d="M798.066 122.384C791.698 124.812 790.706 118.174 791.005 114.551C792.304 111.346 798.312 113.265 800.774 111.855C803.236 110.446 806.026 119.348 798.066 122.384Z" fill="#B37BA4" fill-opacity="0.3"/>
<path d="M563.775 -110.834C557.407 -108.406 556.414 -115.044 556.714 -118.667C558.012 -121.872 564.021 -119.953 566.483 -121.363C568.945 -122.772 571.735 -113.87 563.775 -110.834Z" fill="#B37BA4" fill-opacity="0.3"/>
<path d="M709.11 35.0465C702.742 37.475 701.749 30.8361 702.049 27.2131C703.347 24.008 709.355 25.9271 711.817 24.5179C714.279 23.1087 717.069 32.0109 709.11 35.0465Z" fill="#B37BA4" fill-opacity="0.3"/>
<path d="M826.978 151.38C820.61 153.808 819.618 147.169 819.917 143.546C821.216 140.341 827.224 142.26 829.686 140.851C832.148 139.442 834.938 148.344 826.978 151.38Z" fill="#B37BA4" fill-opacity="0.3"/>
<path d="M592.687 -81.8385C586.319 -79.41 585.326 -86.0489 585.626 -89.6719C586.924 -92.8769 592.933 -90.9579 595.395 -92.3671C597.856 -93.7763 600.646 -84.8741 592.687 -81.8385Z" fill="#B37BA4" fill-opacity="0.3"/>
<path d="M739.233 64.0728C732.865 66.5013 731.872 59.8625 732.172 56.2395C733.47 53.0344 739.478 54.9535 741.94 53.5442C744.402 52.135 747.192 61.0372 739.233 64.0728Z" fill="#B37BA4" fill-opacity="0.3"/>
<path d="M857.101 180.406C850.733 182.834 849.741 176.195 850.04 172.572C851.339 169.367 857.347 171.286 859.809 169.877C862.271 168.468 865.061 177.37 857.101 180.406Z" fill="#B37BA4" fill-opacity="0.3"/>
<path d="M622.81 -52.8121C616.442 -50.3836 615.449 -57.0225 615.749 -60.6455C617.047 -63.8506 623.056 -61.9315 625.518 -63.3407C627.979 -64.75 630.769 -55.8478 622.81 -52.8121Z" fill="#B37BA4" fill-opacity="0.3"/>
<path d="M642.291 61.2918C648.584 58.2133 644.247 52.9837 641.292 50.7538C637.956 49.5473 635.209 55.3017 632.42 56.1737C629.631 57.0456 634.425 65.1398 642.291 61.2918Z" fill="#B37BA4" fill-opacity="0.3"/>
<path d="M760.159 177.625C766.452 174.546 762.116 169.317 759.161 167.087C755.825 165.88 753.078 171.635 750.288 172.507C747.499 173.379 752.294 181.473 760.159 177.625Z" fill="#B37BA4" fill-opacity="0.3"/>
<path d="M525.868 -55.5932C532.161 -58.6717 527.824 -63.9012 524.87 -66.1312C521.533 -67.3377 518.786 -61.5832 515.997 -60.7113C513.208 -59.8394 518.002 -51.7451 525.868 -55.5932Z" fill="#B37BA4" fill-opacity="0.3"/>
<path d="M671.001 90.5765C677.294 87.4981 672.958 82.2685 670.003 80.0386C666.667 78.8321 663.92 84.5865 661.13 85.4584C658.341 86.3304 663.136 94.4246 671.001 90.5765Z" fill="#B37BA4" fill-opacity="0.3"/>
<path d="M788.87 206.91C795.162 203.831 790.826 198.602 787.871 196.372C784.535 195.165 781.788 200.92 778.999 201.791C776.21 202.663 781.004 210.758 788.87 206.91Z" fill="#B37BA4" fill-opacity="0.3"/>
<path d="M554.579 -26.3084C560.871 -29.3869 556.535 -34.6164 553.58 -36.8464C550.244 -38.0529 547.497 -32.2985 544.708 -31.4265C541.918 -30.5546 546.713 -22.4604 554.579 -26.3084Z" fill="#B37BA4" fill-opacity="0.3"/>
<path d="M699.913 119.572C706.206 116.494 701.87 111.264 698.915 109.034C695.578 107.828 692.832 113.582 690.042 114.454C687.253 115.326 692.048 123.42 699.913 119.572Z" fill="#B37BA4" fill-opacity="0.3"/>
<path d="M817.782 235.905C824.074 232.827 819.738 227.597 816.783 225.367C813.447 224.161 810.7 229.915 807.911 230.787C805.121 231.659 809.916 239.753 817.782 235.905Z" fill="#B37BA4" fill-opacity="0.3"/>
<path d="M583.491 2.68709C589.783 -0.391382 585.447 -5.62091 582.492 -7.85086C579.156 -9.05735 576.409 -3.30293 573.619 -2.43101C570.83 -1.5591 575.625 6.53517 583.491 2.68709Z" fill="#B37BA4" fill-opacity="0.3"/>
<path d="M730.036 148.598C736.329 145.52 731.993 140.29 729.038 138.06C725.701 136.854 722.955 142.608 720.165 143.48C717.376 144.352 722.171 152.446 730.036 148.598Z" fill="#B37BA4" fill-opacity="0.3"/>
<path d="M847.905 264.931C854.197 261.853 849.861 256.623 846.906 254.393C843.57 253.187 840.823 258.941 838.034 259.813C835.244 260.685 840.039 268.78 847.905 264.931Z" fill="#B37BA4" fill-opacity="0.3"/>
<path d="M613.614 31.7134C619.906 28.635 615.57 23.4054 612.615 21.1755C609.279 19.969 606.532 25.7234 603.743 26.5953C600.953 27.4673 605.748 35.5615 613.614 31.7134Z" fill="#B37BA4" fill-opacity="0.3"/>
<path d="M635.921 -53.5257C627.927 -53.7291 632.986 -30.8354 636.515 -19.3631C637.9 -14.5254 641.683 13.7383 643.022 20.2486C644.362 26.7589 649.051 55.1382 647.443 69.816C645.836 84.4939 650.864 89.0374 655.541 84.152C660.217 79.2667 655.515 73.8483 654.566 64.1098C653.616 54.3712 646.207 3.25592 642.97 -11.5452C639.733 -26.3463 645.913 -53.2715 635.921 -53.5257Z" fill="#B37BA4" fill-opacity="0.3"/>
<path d="M753.789 62.8073C745.796 62.6039 750.855 85.4976 754.384 96.9699C755.768 101.808 759.551 130.071 760.891 136.582C762.23 143.092 766.919 171.471 765.312 186.149C763.704 200.827 768.732 205.37 773.409 200.485C778.086 195.6 773.384 190.181 772.434 180.443C771.485 170.704 764.076 119.589 760.839 104.788C757.602 89.9868 763.781 63.0615 753.789 62.8073Z" fill="#B37BA4" fill-opacity="0.3"/>
<path d="M519.498 -170.411C511.505 -170.614 516.564 -147.72 520.092 -136.248C521.477 -131.41 525.26 -103.147 526.6 -96.6364C527.939 -90.126 532.628 -61.7468 531.02 -47.0689C529.413 -32.3911 534.441 -27.8475 539.118 -32.7329C543.794 -37.6183 539.093 -43.0367 538.143 -52.7752C537.194 -62.5137 529.785 -113.629 526.548 -128.43C523.311 -143.231 529.49 -170.157 519.498 -170.411Z" fill="#B37BA4" fill-opacity="0.3"/>
<path d="M664.631 -24.2409C656.638 -24.4443 661.697 -1.55063 665.226 9.92164C666.61 14.7594 670.393 43.0231 671.733 49.5334C673.072 56.0437 677.761 84.423 676.154 99.1008C674.546 113.779 679.575 118.322 684.251 113.437C688.928 108.551 684.226 103.133 683.276 93.3946C682.327 83.656 674.918 32.5407 671.681 17.7396C668.444 2.93851 674.623 -23.9867 664.631 -24.2409Z" fill="#B37BA4" fill-opacity="0.3"/>
<path d="M782.5 92.0921C774.506 91.8887 779.565 114.782 783.094 126.255C784.479 131.092 788.262 159.356 789.601 165.866C790.941 172.377 795.63 200.756 794.022 215.434C792.415 230.112 797.443 234.655 802.12 229.77C806.796 224.884 802.094 219.466 801.145 209.728C800.195 199.989 792.786 148.874 789.549 134.073C786.312 119.272 792.492 92.3463 782.5 92.0921Z" fill="#B37BA4" fill-opacity="0.3"/>
<path d="M548.209 -141.126C540.215 -141.329 545.274 -118.436 548.803 -106.963C550.187 -102.126 553.971 -73.8619 555.31 -67.3516C556.65 -60.8413 561.339 -32.462 559.731 -17.7841C558.123 -3.10631 563.152 1.43724 567.828 -3.44815C572.505 -8.33354 567.803 -13.7519 566.854 -23.4904C565.904 -33.229 558.495 -84.3443 555.258 -99.1454C552.021 -113.946 558.201 -140.872 548.209 -141.126Z" fill="#B37BA4" fill-opacity="0.3"/>
<path d="M693.543 4.75458C685.55 4.55121 690.609 27.4449 694.138 38.9172C695.522 43.7549 699.305 72.0186 700.645 78.5289C701.984 85.0393 706.673 113.419 705.066 128.096C703.458 142.774 708.486 147.318 713.163 142.432C717.84 137.547 713.138 132.129 712.188 122.39C711.239 112.652 703.83 61.5362 700.593 46.7351C697.356 31.9341 703.535 5.00879 693.543 4.75458Z" fill="#B37BA4" fill-opacity="0.3"/>
<path d="M811.412 121.088C803.418 120.884 808.477 143.778 812.006 155.25C813.391 160.088 817.174 188.352 818.513 194.862C819.853 201.372 824.542 229.752 822.934 244.429C821.326 259.107 826.355 263.651 831.031 258.765C835.708 253.88 831.006 248.462 830.057 238.723C829.107 228.985 821.698 177.869 818.461 163.068C815.224 148.267 821.404 121.342 811.412 121.088Z" fill="#B37BA4" fill-opacity="0.3"/>
<path d="M577.121 -112.13C569.127 -112.334 574.186 -89.4401 577.715 -77.9678C579.099 -73.1301 582.882 -44.8664 584.222 -38.356C585.561 -31.8457 590.25 -3.46645 588.643 11.2114C587.035 25.8892 592.064 30.4328 596.74 25.5474C601.417 20.662 596.715 15.2436 595.765 5.5051C594.816 -4.23342 587.407 -55.3487 584.17 -70.1498C580.933 -84.9509 587.113 -111.876 577.121 -112.13Z" fill="#B37BA4" fill-opacity="0.3"/>
<path d="M723.666 33.7809C715.673 33.5776 720.732 56.4713 724.261 67.9435C725.645 72.7813 729.428 101.045 730.768 107.555C732.107 114.066 736.796 142.445 735.189 157.123C733.581 171.801 738.609 176.344 743.286 171.459C747.963 166.573 743.261 161.155 742.311 151.416C741.362 141.678 733.953 90.5626 730.716 75.7615C727.479 60.9604 733.658 34.0351 723.666 33.7809Z" fill="#B37BA4" fill-opacity="0.3"/>
<path d="M841.535 150.114C833.541 149.911 838.6 172.804 842.129 184.277C843.514 189.114 847.297 217.378 848.636 223.888C849.976 230.399 854.665 258.778 853.057 273.456C851.449 288.134 856.478 292.677 861.154 287.792C865.831 282.906 861.129 277.488 860.18 267.749C859.23 258.011 851.821 206.896 848.584 192.094C845.347 177.293 851.527 150.368 841.535 150.114Z" fill="#B37BA4" fill-opacity="0.3"/>
<path d="M607.244 -83.1041C599.25 -83.3074 604.309 -60.4137 607.838 -48.9415C609.222 -44.1037 613.005 -15.84 614.345 -9.32969C615.684 -2.81937 620.373 25.5599 618.766 40.2377C617.158 54.9156 622.187 59.4591 626.863 54.5737C631.54 49.6883 626.838 44.27 625.889 34.5314C624.939 24.7929 617.53 -26.3224 614.293 -41.1235C611.056 -55.9246 617.236 -82.8498 607.244 -83.1041Z" fill="#B37BA4" fill-opacity="0.3"/>
<path d="M618.465 -39.5151C620.042 -51.7898 630.779 -58.2644 628.837 -51.4471C626.894 -44.6298 644.889 28.4811 641.368 38.6239C637.847 48.7667 631.218 53.507 631.943 49.1098C632.667 44.7126 616.888 -27.2404 618.465 -39.5151Z" stroke="#442B48" stroke-width="17.9182" mask="url(#path-4-outside-2)"/>
<path d="M647.24 -9.56459C648.817 -21.8393 659.554 -28.3139 657.612 -21.4966C655.67 -14.6793 673.665 58.4316 670.144 68.5744C666.622 78.7172 659.993 83.4575 660.718 79.0603C661.443 74.6631 645.664 2.71009 647.24 -9.56459Z" stroke="#442B48" stroke-width="17.9182" mask="url(#path-4-outside-2)"/>
<path d="M765.109 106.768C766.685 94.4937 777.423 88.0191 775.481 94.8364C773.538 101.654 791.533 174.765 788.012 184.907C784.491 195.05 777.862 199.79 778.586 195.393C779.311 190.996 763.532 119.043 765.109 106.768Z" stroke="#442B48" stroke-width="17.9182" mask="url(#path-4-outside-2)"/>
<path d="M530.818 -126.45C532.394 -138.724 543.132 -145.199 541.189 -138.382C539.247 -131.564 557.242 -58.4533 553.721 -48.3106C550.2 -38.1678 543.571 -33.4275 544.295 -37.8247C545.02 -42.2219 529.241 -114.175 530.818 -126.45Z" stroke="#442B48" stroke-width="17.9182" mask="url(#path-4-outside-2)"/>
<path d="M675.951 19.7202C677.527 7.44552 688.265 0.970868 686.323 7.78819C684.38 14.6055 702.375 87.7164 698.854 97.8592C695.333 108.002 688.704 112.742 689.429 108.345C690.153 103.948 674.374 31.9949 675.951 19.7202Z" stroke="#442B48" stroke-width="17.9182" mask="url(#path-4-outside-2)"/>
<path d="M793.819 136.053C795.396 123.779 806.133 117.304 804.191 124.121C802.249 130.939 820.244 204.049 816.723 214.192C813.201 224.335 806.572 229.075 807.297 224.678C808.021 220.281 792.243 148.328 793.819 136.053Z" stroke="#442B48" stroke-width="17.9182" mask="url(#path-4-outside-2)"/>
<path d="M559.528 -97.1648C561.105 -109.439 571.842 -115.914 569.9 -109.097C567.957 -102.279 585.953 -29.1686 582.431 -19.0258C578.91 -8.88298 572.281 -4.14272 573.006 -8.53992C573.73 -12.9371 557.951 -84.8901 559.528 -97.1648Z" stroke="#442B48" stroke-width="17.9182" mask="url(#path-4-outside-2)"/>
<path d="M704.863 48.7157C706.439 36.4411 717.177 29.9664 715.234 36.7837C713.292 43.601 731.287 116.712 727.766 126.855C724.245 136.998 717.616 141.738 718.34 137.341C719.065 132.943 703.286 60.9904 704.863 48.7157Z" stroke="#442B48" stroke-width="17.9182" mask="url(#path-4-outside-2)"/>
<path d="M822.731 165.049C824.308 152.774 835.045 146.299 833.103 153.117C831.161 159.934 849.156 233.045 845.634 243.188C842.113 253.331 835.484 258.071 836.209 253.674C836.933 249.276 821.154 177.323 822.731 165.049Z" stroke="#442B48" stroke-width="17.9182" mask="url(#path-4-outside-2)"/>
<path d="M588.44 -68.1693C590.017 -80.4439 600.754 -86.9186 598.812 -80.1013C596.869 -73.2839 614.864 -0.173031 611.343 9.96976C607.822 20.1125 601.193 24.8528 601.918 20.4556C602.642 16.0584 586.863 -55.8946 588.44 -68.1693Z" stroke="#442B48" stroke-width="17.9182" mask="url(#path-4-outside-2)"/>
<path d="M734.986 77.7421C736.562 65.4674 747.3 58.9928 745.358 65.8101C743.415 72.6274 761.41 145.738 757.889 155.881C754.368 166.024 747.739 170.764 748.463 166.367C749.188 161.97 733.409 90.0168 734.986 77.7421Z" stroke="#442B48" stroke-width="17.9182" mask="url(#path-4-outside-2)"/>
<path d="M852.854 194.075C854.431 181.8 865.168 175.326 863.226 182.143C861.284 188.96 879.279 262.071 875.757 272.214C872.236 282.357 865.607 287.097 866.332 282.7C867.056 278.303 851.278 206.35 852.854 194.075Z" stroke="#442B48" stroke-width="17.9182" mask="url(#path-4-outside-2)"/>
<path d="M651.487 -23.2338C645.119 -20.8053 644.127 -27.4442 644.426 -31.0672C645.725 -34.2723 651.733 -32.3532 654.195 -33.7624C656.657 -35.1717 659.447 -26.2694 651.487 -23.2338Z" stroke="#442B48" stroke-width="17.9182" mask="url(#path-4-outside-2)"/>
<path d="M769.356 93.0992C762.988 95.5277 761.995 88.8888 762.295 85.2658C763.593 82.0607 769.601 83.9798 772.063 82.5706C774.525 81.1613 777.315 90.0636 769.356 93.0992Z" stroke="#442B48" stroke-width="17.9182" mask="url(#path-4-outside-2)"/>
<path d="M535.064 -140.119C528.697 -137.69 527.704 -144.329 528.004 -147.952C529.302 -151.157 535.31 -149.238 537.772 -150.647C540.234 -152.057 543.024 -143.154 535.064 -140.119Z" stroke="#442B48" stroke-width="17.9182" mask="url(#path-4-outside-2)"/>
<path d="M680.198 6.05096C673.83 8.47946 672.837 1.84058 673.137 -1.78242C674.435 -4.98748 680.443 -3.06841 682.905 -4.47765C685.367 -5.88688 688.157 3.01534 680.198 6.05096Z" stroke="#442B48" stroke-width="17.9182" mask="url(#path-4-outside-2)"/>
<path d="M798.066 122.384C791.698 124.812 790.706 118.174 791.005 114.551C792.304 111.346 798.312 113.265 800.774 111.855C803.236 110.446 806.026 119.348 798.066 122.384Z" stroke="#442B48" stroke-width="17.9182" mask="url(#path-4-outside-2)"/>
<path d="M563.775 -110.834C557.407 -108.406 556.414 -115.044 556.714 -118.667C558.012 -121.872 564.021 -119.953 566.483 -121.363C568.945 -122.772 571.735 -113.87 563.775 -110.834Z" stroke="#442B48" stroke-width="17.9182" mask="url(#path-4-outside-2)"/>
<path d="M709.11 35.0465C702.742 37.475 701.749 30.8361 702.049 27.2131C703.347 24.008 709.355 25.9271 711.817 24.5179C714.279 23.1087 717.069 32.0109 709.11 35.0465Z" stroke="#442B48" stroke-width="17.9182" mask="url(#path-4-outside-2)"/>
<path d="M826.978 151.38C820.61 153.808 819.618 147.169 819.917 143.546C821.216 140.341 827.224 142.26 829.686 140.851C832.148 139.442 834.938 148.344 826.978 151.38Z" stroke="#442B48" stroke-width="17.9182" mask="url(#path-4-outside-2)"/>
<path d="M592.687 -81.8385C586.319 -79.41 585.326 -86.0489 585.626 -89.6719C586.924 -92.8769 592.933 -90.9579 595.395 -92.3671C597.856 -93.7763 600.646 -84.8741 592.687 -81.8385Z" stroke="#442B48" stroke-width="17.9182" mask="url(#path-4-outside-2)"/>
<path d="M739.233 64.0728C732.865 66.5013 731.872 59.8625 732.172 56.2395C733.47 53.0344 739.478 54.9535 741.94 53.5442C744.402 52.135 747.192 61.0372 739.233 64.0728Z" stroke="#442B48" stroke-width="17.9182" mask="url(#path-4-outside-2)"/>
<path d="M857.101 180.406C850.733 182.834 849.741 176.195 850.04 172.572C851.339 169.367 857.347 171.286 859.809 169.877C862.271 168.468 865.061 177.37 857.101 180.406Z" stroke="#442B48" stroke-width="17.9182" mask="url(#path-4-outside-2)"/>
<path d="M622.81 -52.8121C616.442 -50.3836 615.449 -57.0225 615.749 -60.6455C617.047 -63.8506 623.056 -61.9315 625.518 -63.3407C627.979 -64.75 630.769 -55.8478 622.81 -52.8121Z" stroke="#442B48" stroke-width="17.9182" mask="url(#path-4-outside-2)"/>
<path d="M642.291 61.2918C648.584 58.2133 644.247 52.9837 641.292 50.7538C637.956 49.5473 635.209 55.3017 632.42 56.1737C629.631 57.0456 634.425 65.1398 642.291 61.2918Z" stroke="#442B48" stroke-width="17.9182" mask="url(#path-4-outside-2)"/>
<path d="M760.159 177.625C766.452 174.546 762.116 169.317 759.161 167.087C755.825 165.88 753.078 171.635 750.288 172.507C747.499 173.379 752.294 181.473 760.159 177.625Z" stroke="#442B48" stroke-width="17.9182" mask="url(#path-4-outside-2)"/>
<path d="M525.868 -55.5932C532.161 -58.6717 527.824 -63.9012 524.87 -66.1312C521.533 -67.3377 518.786 -61.5832 515.997 -60.7113C513.208 -59.8394 518.002 -51.7451 525.868 -55.5932Z" stroke="#442B48" stroke-width="17.9182" mask="url(#path-4-outside-2)"/>
<path d="M671.001 90.5765C677.294 87.4981 672.958 82.2685 670.003 80.0386C666.667 78.8321 663.92 84.5865 661.13 85.4584C658.341 86.3304 663.136 94.4246 671.001 90.5765Z" stroke="#442B48" stroke-width="17.9182" mask="url(#path-4-outside-2)"/>
<path d="M788.87 206.91C795.162 203.831 790.826 198.602 787.871 196.372C784.535 195.165 781.788 200.92 778.999 201.791C776.21 202.663 781.004 210.758 788.87 206.91Z" stroke="#442B48" stroke-width="17.9182" mask="url(#path-4-outside-2)"/>
<path d="M554.579 -26.3084C560.871 -29.3869 556.535 -34.6164 553.58 -36.8464C550.244 -38.0529 547.497 -32.2985 544.708 -31.4265C541.918 -30.5546 546.713 -22.4604 554.579 -26.3084Z" stroke="#442B48" stroke-width="17.9182" mask="url(#path-4-outside-2)"/>
<path d="M699.913 119.572C706.206 116.494 701.87 111.264 698.915 109.034C695.578 107.828 692.832 113.582 690.042 114.454C687.253 115.326 692.048 123.42 699.913 119.572Z" stroke="#442B48" stroke-width="17.9182" mask="url(#path-4-outside-2)"/>
<path d="M817.782 235.905C824.074 232.827 819.738 227.597 816.783 225.367C813.447 224.161 810.7 229.915 807.911 230.787C805.121 231.659 809.916 239.753 817.782 235.905Z" stroke="#442B48" stroke-width="17.9182" mask="url(#path-4-outside-2)"/>
<path d="M583.491 2.68709C589.783 -0.391382 585.447 -5.62091 582.492 -7.85086C579.156 -9.05735 576.409 -3.30293 573.619 -2.43101C570.83 -1.5591 575.625 6.53517 583.491 2.68709Z" stroke="#442B48" stroke-width="17.9182" mask="url(#path-4-outside-2)"/>
<path d="M730.036 148.598C736.329 145.52 731.993 140.29 729.038 138.06C725.701 136.854 722.955 142.608 720.165 143.48C717.376 144.352 722.171 152.446 730.036 148.598Z" stroke="#442B48" stroke-width="17.9182" mask="url(#path-4-outside-2)"/>
<path d="M847.905 264.931C854.197 261.853 849.861 256.623 846.906 254.393C843.57 253.187 840.823 258.941 838.034 259.813C835.244 260.685 840.039 268.78 847.905 264.931Z" stroke="#442B48" stroke-width="17.9182" mask="url(#path-4-outside-2)"/>
<path d="M613.614 31.7134C619.906 28.635 615.57 23.4054 612.615 21.1755C609.279 19.969 606.532 25.7234 603.743 26.5953C600.953 27.4673 605.748 35.5615 613.614 31.7134Z" stroke="#442B48" stroke-width="17.9182" mask="url(#path-4-outside-2)"/>
<path d="M635.921 -53.5257C627.927 -53.7291 632.986 -30.8354 636.515 -19.3631C637.9 -14.5254 641.683 13.7383 643.022 20.2486C644.362 26.7589 649.051 55.1382 647.443 69.816C645.836 84.4939 650.864 89.0374 655.541 84.152C660.217 79.2667 655.515 73.8483 654.566 64.1098C653.616 54.3712 646.207 3.25592 642.97 -11.5452C639.733 -26.3463 645.913 -53.2715 635.921 -53.5257Z" stroke="#442B48" stroke-width="17.9182" mask="url(#path-4-outside-2)"/>
<path d="M753.789 62.8073C745.796 62.6039 750.855 85.4976 754.384 96.9699C755.768 101.808 759.551 130.071 760.891 136.582C762.23 143.092 766.919 171.471 765.312 186.149C763.704 200.827 768.732 205.37 773.409 200.485C778.086 195.6 773.384 190.181 772.434 180.443C771.485 170.704 764.076 119.589 760.839 104.788C757.602 89.9868 763.781 63.0615 753.789 62.8073Z" stroke="#442B48" stroke-width="17.9182" mask="url(#path-4-outside-2)"/>
<path d="M519.498 -170.411C511.505 -170.614 516.564 -147.72 520.092 -136.248C521.477 -131.41 525.26 -103.147 526.6 -96.6364C527.939 -90.126 532.628 -61.7468 531.02 -47.0689C529.413 -32.3911 534.441 -27.8475 539.118 -32.7329C543.794 -37.6183 539.093 -43.0367 538.143 -52.7752C537.194 -62.5137 529.785 -113.629 526.548 -128.43C523.311 -143.231 529.49 -170.157 519.498 -170.411Z" stroke="#442B48" stroke-width="17.9182" mask="url(#path-4-outside-2)"/>
<path d="M664.631 -24.2409C656.638 -24.4443 661.697 -1.55063 665.226 9.92164C666.61 14.7594 670.393 43.0231 671.733 49.5334C673.072 56.0437 677.761 84.423 676.154 99.1008C674.546 113.779 679.575 118.322 684.251 113.437C688.928 108.551 684.226 103.133 683.276 93.3946C682.327 83.656 674.918 32.5407 671.681 17.7396C668.444 2.93851 674.623 -23.9867 664.631 -24.2409Z" stroke="#442B48" stroke-width="17.9182" mask="url(#path-4-outside-2)"/>
<path d="M782.5 92.0921C774.506 91.8887 779.565 114.782 783.094 126.255C784.479 131.092 788.262 159.356 789.601 165.866C790.941 172.377 795.63 200.756 794.022 215.434C792.415 230.112 797.443 234.655 802.12 229.77C806.796 224.884 802.094 219.466 801.145 209.728C800.195 199.989 792.786 148.874 789.549 134.073C786.312 119.272 792.492 92.3463 782.5 92.0921Z" stroke="#442B48" stroke-width="17.9182" mask="url(#path-4-outside-2)"/>
<path d="M548.209 -141.126C540.215 -141.329 545.274 -118.436 548.803 -106.963C550.187 -102.126 553.971 -73.8619 555.31 -67.3516C556.65 -60.8413 561.339 -32.462 559.731 -17.7841C558.123 -3.10631 563.152 1.43724 567.828 -3.44815C572.505 -8.33354 567.803 -13.7519 566.854 -23.4904C565.904 -33.229 558.495 -84.3443 555.258 -99.1454C552.021 -113.946 558.201 -140.872 548.209 -141.126Z" stroke="#442B48" stroke-width="17.9182" mask="url(#path-4-outside-2)"/>
<path d="M693.543 4.75458C685.55 4.55121 690.609 27.4449 694.138 38.9172C695.522 43.7549 699.305 72.0186 700.645 78.5289C701.984 85.0393 706.673 113.419 705.066 128.096C703.458 142.774 708.486 147.318 713.163 142.432C717.84 137.547 713.138 132.129 712.188 122.39C711.239 112.652 703.83 61.5362 700.593 46.7351C697.356 31.9341 703.535 5.00879 693.543 4.75458Z" stroke="#442B48" stroke-width="17.9182" mask="url(#path-4-outside-2)"/>
<path d="M811.412 121.088C803.418 120.884 808.477 143.778 812.006 155.25C813.391 160.088 817.174 188.352 818.513 194.862C819.853 201.372 824.542 229.752 822.934 244.429C821.326 259.107 826.355 263.651 831.031 258.765C835.708 253.88 831.006 248.462 830.057 238.723C829.107 228.985 821.698 177.869 818.461 163.068C815.224 148.267 821.404 121.342 811.412 121.088Z" stroke="#442B48" stroke-width="17.9182" mask="url(#path-4-outside-2)"/>
<path d="M577.121 -112.13C569.127 -112.334 574.186 -89.4401 577.715 -77.9678C579.099 -73.1301 582.882 -44.8664 584.222 -38.356C585.561 -31.8457 590.25 -3.46645 588.643 11.2114C587.035 25.8892 592.064 30.4328 596.74 25.5474C601.417 20.662 596.715 15.2436 595.765 5.5051C594.816 -4.23342 587.407 -55.3487 584.17 -70.1498C580.933 -84.9509 587.113 -111.876 577.121 -112.13Z" stroke="#442B48" stroke-width="17.9182" mask="url(#path-4-outside-2)"/>
<path d="M723.666 33.7809C715.673 33.5776 720.732 56.4713 724.261 67.9435C725.645 72.7813 729.428 101.045 730.768 107.555C732.107 114.066 736.796 142.445 735.189 157.123C733.581 171.801 738.609 176.344 743.286 171.459C747.963 166.573 743.261 161.155 742.311 151.416C741.362 141.678 733.953 90.5626 730.716 75.7615C727.479 60.9604 733.658 34.0351 723.666 33.7809Z" stroke="#442B48" stroke-width="17.9182" mask="url(#path-4-outside-2)"/>
<path d="M841.535 150.114C833.541 149.911 838.6 172.804 842.129 184.277C843.514 189.114 847.297 217.378 848.636 223.888C849.976 230.399 854.665 258.778 853.057 273.456C851.449 288.134 856.478 292.677 861.154 287.792C865.831 282.906 861.129 277.488 860.18 267.749C859.23 258.011 851.821 206.896 848.584 192.094C845.347 177.293 851.527 150.368 841.535 150.114Z" stroke="#442B48" stroke-width="17.9182" mask="url(#path-4-outside-2)"/>
<path d="M607.244 -83.1041C599.25 -83.3074 604.309 -60.4137 607.838 -48.9415C609.222 -44.1037 613.005 -15.84 614.345 -9.32969C615.684 -2.81937 620.373 25.5599 618.766 40.2377C617.158 54.9156 622.187 59.4591 626.863 54.5737C631.54 49.6883 626.838 44.27 625.889 34.5314C624.939 24.7929 617.53 -26.3224 614.293 -41.1235C611.056 -55.9246 617.236 -82.8498 607.244 -83.1041Z" stroke="#442B48" stroke-width="17.9182" mask="url(#path-4-outside-2)"/>
</g>
<path d="M292.863 57.24C297.663 57.24 299.423 59.08 299.423 62.28C299.423 65.16 297.423 67.32 293.023 67.32H281.983V57.24H292.863ZM291.263 38.68C295.903 38.68 297.743 40.36 297.743 43.56C297.743 47.32 295.503 48.68 291.103 48.68H281.983V38.68H291.263ZM270.463 77H293.663C306.143 77 311.103 71.64 311.103 63.88C311.103 57.48 308.623 54.04 301.903 52.68V52.44C306.623 50.52 309.182 46.92 309.182 41.24C309.182 33.08 303.663 29 291.503 29H270.463V77ZM329.093 69C324.933 69 323.493 67.16 323.493 64.84C323.493 62.76 325.413 61.32 328.613 61.32H336.773V62.44C336.773 66.28 333.733 69 329.093 69ZM336.773 77H347.653V53.48C347.653 43.8 342.853 38.2 331.333 38.2C319.573 38.2 314.933 43.88 313.973 51.8L324.213 53.24C324.933 48.84 327.253 47.24 330.853 47.24C335.013 47.24 336.773 49.48 336.773 53.56V55.16H326.933C316.933 55.16 312.853 59.88 312.853 66.76C312.853 74.2 317.813 77.8 324.373 77.8C330.773 77.8 334.933 74.2 336.613 67.72H336.773V77ZM362.823 54.76C362.823 50.44 365.383 47.88 369.783 47.88C374.343 47.88 376.103 50.84 376.103 54.76V77H386.983V51.64C386.983 43.48 383.543 38.04 375.303 38.04C369.223 38.04 364.663 41 362.903 49.72H362.823V27.96H351.863V77H362.823V54.76ZM393.406 65.08C393.406 72.28 397.086 78.12 405.886 78.12C410.046 78.12 411.966 77.56 414.846 76.68L413.646 66.6C412.286 66.92 410.366 67.48 408.686 67.48C405.406 67.48 404.286 66.04 404.286 63V48.2H414.286V39.08H404.286V29.56H393.406V39.08H389.006V48.2H393.406V65.08ZM434.703 47.08C439.583 47.08 442.063 49.64 442.383 54.68H426.383C427.103 49.32 429.903 47.08 434.703 47.08ZM434.863 78.04C445.263 78.04 450.223 72.76 452.063 65.88L442.623 63.24C441.743 66.2 440.063 68.68 435.023 68.68C429.903 68.68 427.023 66.28 426.303 60.84H452.223C452.383 58.76 452.383 57.48 452.383 55.8C452.383 45.48 446.703 38.04 435.023 38.04C422.703 38.04 415.423 45.72 415.423 58.84C415.423 71.48 423.423 78.04 434.863 78.04ZM466.261 77V58.92C466.261 53.24 468.181 51.56 474.341 51.56H478.501V39.08H476.661C471.381 39.08 468.261 41.08 466.421 52.6H466.261V39.08H455.301V77H466.261ZM495.499 69C491.339 69 489.899 67.16 489.899 64.84C489.899 62.76 491.819 61.32 495.019 61.32H503.179V62.44C503.179 66.28 500.139 69 495.499 69ZM503.179 77H514.059V53.48C514.059 43.8 509.259 38.2 497.739 38.2C485.979 38.2 481.339 43.88 480.379 51.8L490.619 53.24C491.339 48.84 493.659 47.24 497.259 47.24C501.419 47.24 503.179 49.48 503.179 53.56V55.16H493.339C483.339 55.16 479.259 59.88 479.259 66.76C479.259 74.2 484.219 77.8 490.779 77.8C497.179 77.8 501.339 74.2 503.019 67.72H503.179V77ZM559.661 77H573.341V76.84L551.421 53.56L572.781 29.16V29H559.581L542.701 49.72H542.061V29H530.541V77H542.061V59H542.701L559.661 77ZM586.593 69C582.433 69 580.993 67.16 580.993 64.84C580.993 62.76 582.913 61.32 586.113 61.32H594.273V62.44C594.273 66.28 591.233 69 586.593 69ZM594.273 77H605.153V53.48C605.153 43.8 600.353 38.2 588.833 38.2C577.073 38.2 572.433 43.88 571.473 51.8L581.713 53.24C582.433 48.84 584.753 47.24 588.353 47.24C592.513 47.24 594.273 49.48 594.273 53.56V55.16H584.433C574.433 55.16 570.353 59.88 570.353 66.76C570.353 74.2 575.313 77.8 581.873 77.8C588.273 77.8 592.433 74.2 594.113 67.72H594.273V77ZM625.363 78.12C636.723 78.12 641.683 73.48 641.683 66.04C641.683 60.36 638.563 56.28 627.683 54.12C620.243 52.76 619.283 51.32 619.283 49.24C619.283 47.16 621.043 45.88 624.243 45.88C628.003 45.88 629.843 47.8 630.723 51.88L641.123 49.56C639.683 42.52 635.203 38.04 624.323 38.04C613.683 38.04 608.483 42.52 608.483 49.72C608.483 55.96 612.083 59.56 622.723 61.8C629.523 63.16 630.963 64.36 630.963 66.44C630.883 68.76 629.123 70.04 625.603 70.04C620.963 70.04 618.723 67.56 617.683 63.32L607.523 65.32C608.643 72.28 612.563 78.12 625.363 78.12ZM655.959 35.08V27.96H644.599V35.08H655.959ZM655.799 77V39.08H644.839V77H655.799ZM671.339 54.76C671.339 50.44 673.899 47.88 678.299 47.88C682.859 47.88 684.619 50.84 684.619 54.76V77H695.499V51.64C695.499 43.48 692.059 38.04 683.819 38.04C677.739 38.04 673.179 41 671.419 49.72H671.339V27.96H660.379V77H671.339V54.76Z" fill="white"/>
<path d="M20.0356 53H26.1916V52.928L16.3276 42.452L25.9396 31.472V31.4H19.9996L12.4036 40.724H12.1156V31.4H6.93156V53H12.1156V44.9H12.4036L20.0356 53ZM31.6976 31.4H26.5136V53H40.9856V48.104H31.6976V31.4ZM47.5531 53V31.4H42.3691V53H47.5531ZM62.5319 53H69.5159V31.4H64.5839V39.716C64.5839 41.66 64.6199 44.108 64.6919 46.628H64.5479C63.6119 44.216 62.2439 41.084 61.0919 38.636L57.5639 31.4H49.7519V53H54.6839V44.72C54.6839 42.596 54.6119 39.248 54.5039 36.476H54.6479C55.7279 39.068 57.2759 42.524 58.2479 44.468L62.5319 53ZM76.9085 53V31.4H71.7245V53H76.9085ZM92.2113 53H98.3673V52.928L88.5033 42.452L98.1153 31.472V31.4H92.1753L84.5793 40.724H84.2913V31.4H79.1073V53H84.2913V44.9H84.5793L92.2113 53ZM112.275 36.008C114.651 36.008 115.731 36.944 115.731 38.924C115.731 40.94 114.579 41.876 112.347 41.876H109.287V36.008H112.275ZM112.923 46.484C118.179 46.484 121.131 43.136 121.131 38.924C121.131 33.956 118.359 31.4 112.743 31.4H104.103V53H109.287V46.484H112.923ZM131.958 36.008C134.118 36.008 135.054 36.8 135.054 38.312C135.054 39.932 134.01 40.76 131.886 40.76H127.674V36.008H131.958ZM135.486 53H141.606V52.928L135.774 44.504C138.546 43.568 140.166 41.48 140.166 38.168C140.166 33.74 137.43 31.4 132.138 31.4H122.49V53H127.674V45.044H130.59L135.486 53ZM158.322 53H163.902L155.55 31.4H149.502L141.15 53H146.514L148.098 48.572H156.774L158.322 53ZM150.546 41.768C151.158 40.04 151.806 38.24 152.346 36.512H152.598C153.138 38.24 153.75 40.04 154.362 41.768L155.298 44.396H149.61L150.546 41.768ZM159.699 36.296H165.927V53H171.111V36.296H177.303V31.4H159.699V36.296ZM190.279 53H195.859L187.507 31.4H181.459L173.107 53H178.471L180.055 48.572H188.731L190.279 53ZM182.503 41.768C183.115 40.04 183.763 38.24 184.303 36.512H184.555C185.095 38.24 185.707 40.04 186.319 41.768L187.255 44.396H181.567L182.503 41.768ZM201.11 43.964C201.11 41.3 201.11 38.24 201.074 35.612H201.11C201.902 38.456 202.802 41.696 203.954 45.368L206.474 53H211.154L213.746 45.548C214.898 42.092 215.87 38.528 216.662 35.612H216.698C216.626 38.204 216.518 41.336 216.518 43.964V53H221.702V31.4H214.178L211.334 39.788C210.794 41.408 210.002 44.288 209.318 47.024H209.246C208.598 44.288 207.806 41.408 207.302 39.968L204.422 31.4H196.178V53H201.11V43.964ZM239.182 53H244.762L236.41 31.4H230.362L222.01 53H227.374L228.958 48.572H237.634L239.182 53ZM231.406 41.768C232.018 40.04 232.666 38.24 233.206 36.512H233.458C233.998 38.24 234.61 40.04 235.222 41.768L236.158 44.396H230.47L231.406 41.768ZM51.6261 63.008C53.7861 63.008 54.7221 63.8 54.7221 65.312C54.7221 66.932 53.6781 67.76 51.5541 67.76H47.3421V63.008H51.6261ZM55.1541 80H61.2741V79.928L55.4421 71.504C58.2141 70.568 59.8341 68.48 59.8341 65.168C59.8341 60.74 57.0981 58.4 51.8061 58.4H42.1581V80H47.3421V72.044H50.2581L55.1541 80ZM77.9902 80H83.5702L75.2182 58.4H69.1702L60.8182 80H66.1822L67.7662 75.572H76.4422L77.9902 80ZM70.2142 68.768C70.8262 67.04 71.4742 65.24 72.0142 63.512H72.2662C72.8062 65.24 73.4182 67.04 74.0302 68.768L74.9662 71.396H69.2782L70.2142 68.768ZM96.1286 70.388C96.5606 67.976 97.0286 65.24 97.4246 62.72H97.6406C98.0006 65.24 98.4686 67.976 98.9006 70.388L100.737 80H107.865L113.157 58.4H107.865L106.065 67.652C105.597 70.352 105.093 72.8 104.697 75.392H104.409C104.013 72.728 103.581 70.208 103.113 67.652L101.169 58.4H94.6166L92.5646 67.652C92.0606 70.208 91.5926 72.728 91.1246 75.392H90.8726C90.5126 72.8 90.0806 70.352 89.5766 67.652L87.6326 58.4H82.0526L87.3446 80H94.3646L96.1286 70.388ZM128.826 80H134.406L126.054 58.4H120.006L111.654 80H117.018L118.602 75.572H127.278L128.826 80ZM121.05 68.768C121.662 67.04 122.31 65.24 122.85 63.512H123.102C123.642 65.24 124.254 67.04 124.866 68.768L125.802 71.396H120.114L121.05 68.768ZM130.203 63.296H136.431V80H141.615V63.296H147.807V58.4H130.203V63.296ZM157.435 73.268C157.435 74.672 156.823 75.608 155.419 75.608C154.915 75.608 154.555 75.572 153.979 75.428L153.475 80.072C154.303 80.216 155.167 80.288 156.319 80.288C160.747 80.288 162.619 77.444 162.619 73.448V58.4H157.435V73.268ZM179.521 80H185.101L176.749 58.4H170.701L162.349 80H167.713L169.297 75.572H177.973L179.521 80ZM171.745 68.768C172.357 67.04 173.005 65.24 173.545 63.512H173.797C174.337 65.24 174.949 67.04 175.561 68.768L176.497 71.396H170.809L171.745 68.768ZM190.604 58.4H185.42V80H199.892V75.104H190.604V58.4ZM217.209 80H222.789L214.437 58.4H208.389L200.037 80H205.401L206.985 75.572H215.661L217.209 80ZM209.433 68.768C210.045 67.04 210.693 65.24 211.233 63.512H211.485C212.025 65.24 212.637 67.04 213.249 68.768L214.185 71.396H208.497L209.433 68.768ZM235.887 80H242.871V58.4H237.939V66.716C237.939 68.66 237.975 71.108 238.047 73.628H237.903C236.967 71.216 235.599 68.084 234.447 65.636L230.919 58.4H223.107V80H228.039V71.72C228.039 69.596 227.967 66.248 227.859 63.476H228.003C229.083 66.068 230.631 69.524 231.603 71.468L235.887 80Z" fill="#442B48"/>
</svg>
