<svg width="205" height="35" viewBox="0 0 205 35" fill="none" xmlns="http://www.w3.org/2000/svg">
<rect x="56" y="3" width="144" height="28.3589" rx="6.30197" fill="#442B48"/>
<mask id="mask0" mask-type="alpha" maskUnits="userSpaceOnUse" x="56" y="3" width="144" height="29">
<rect x="56" y="3" width="144" height="28.3589" rx="6.30197" fill="#442B48"/>
</mask>
<g mask="url(#mask0)">
<mask id="path-3-outside-1" maskUnits="userSpaceOnUse" x="-13.4621" y="-56.7824" width="158.918" height="155.012" fill="black">
<rect fill="white" x="-13.4621" y="-56.7824" width="158.918" height="155.012"/>
<path d="M43.5543 -10.8691C44.0511 -14.7369 47.4345 -16.777 46.8224 -14.6289C46.2104 -12.4808 51.8806 10.5564 50.7711 13.7523C49.6616 16.9483 47.5728 18.442 47.8011 17.0564C48.0294 15.6709 43.0575 -7.00142 43.5543 -10.8691Z"/>
<path d="M52.6214 -1.43179C53.1182 -5.29952 56.5016 -7.33967 55.8895 -5.19155C55.2775 -3.04342 60.9477 19.9937 59.8382 23.1897C58.7286 26.3857 56.6399 27.8793 56.8682 26.4938C57.0965 25.1082 52.1246 2.43594 52.6214 -1.43179Z"/>
<path d="M89.7615 35.2246C90.2583 31.3568 93.6417 29.3167 93.0297 31.4648C92.4177 33.6129 98.0879 56.6501 96.9783 59.846C95.8688 63.042 93.7801 64.5357 94.0083 63.1501C94.2366 61.7646 89.2647 39.0923 89.7615 35.2246Z"/>
<path d="M15.9367 -38.2621C16.4335 -42.1298 19.8169 -44.17 19.2049 -42.0218C18.5929 -39.8737 24.2631 -16.8366 23.1535 -13.6406C22.044 -10.4446 19.9553 -8.95096 20.1836 -10.3365C20.4119 -11.7221 15.44 -34.3943 15.9367 -38.2621Z"/>
<path d="M61.668 7.7958C62.1648 3.92807 65.5482 1.88791 64.9362 4.03604C64.3241 6.18417 69.9944 29.2213 68.8848 32.4173C67.7753 35.6133 65.6865 37.1069 65.9148 35.7214C66.1431 34.3358 61.1712 11.6635 61.668 7.7958Z"/>
<path d="M98.8082 44.4521C99.305 40.5844 102.688 38.5443 102.076 40.6924C101.464 42.8405 107.135 65.8777 106.025 69.0736C104.915 72.2696 102.827 73.7633 103.055 72.3777C103.283 70.9922 98.3114 48.3199 98.8082 44.4521Z"/>
<path d="M24.9834 -29.0345C25.4802 -32.9022 28.8635 -34.9424 28.2515 -32.7942C27.6395 -30.6461 33.3097 -7.60897 32.2002 -4.413C31.0906 -1.21702 29.0019 0.276628 29.2302 -1.10892C29.4585 -2.49447 24.4866 -25.1667 24.9834 -29.0345Z"/>
<path d="M70.7781 16.9322C71.2749 13.0645 74.6583 11.0244 74.0462 13.1725C73.4342 15.3206 79.1044 38.3578 77.9949 41.5537C76.8854 44.7497 74.7966 46.2434 75.0249 44.8578C75.2532 43.4723 70.2813 20.8 70.7781 16.9322Z"/>
<path d="M107.918 53.5886C108.415 49.7209 111.798 47.6807 111.186 49.8288C110.574 51.977 116.245 75.0141 115.135 78.2101C114.026 81.4061 111.937 82.8997 112.165 81.5142C112.393 80.1286 107.421 57.4563 107.918 53.5886Z"/>
<path d="M34.0935 -19.898C34.5903 -23.7658 37.9736 -25.8059 37.3616 -23.6578C36.7496 -21.5097 42.4198 1.52747 41.3103 4.72345C40.2007 7.91943 38.112 9.41308 38.3403 8.02753C38.5686 6.64198 33.5967 -16.0303 34.0935 -19.898Z"/>
<path d="M80.2698 26.0784C80.7666 22.2107 84.15 20.1705 83.538 22.3187C82.9259 24.4668 88.5962 47.5039 87.4866 50.6999C86.3771 53.8959 84.2883 55.3895 84.5166 54.004C84.7449 52.6184 79.773 29.9461 80.2698 26.0784Z"/>
<path d="M117.41 62.7348C117.907 58.867 121.29 56.8269 120.678 58.975C120.066 61.1231 125.736 84.1603 124.627 87.3562C123.517 90.5522 121.429 92.0459 121.657 90.6603C121.885 89.2748 116.913 66.6025 117.41 62.7348Z"/>
<path d="M53.9595 -5.73895C51.9531 -4.97373 51.6403 -7.06563 51.7347 -8.20723C52.1438 -9.21714 54.037 -8.61244 54.8128 -9.05649C55.5885 -9.50054 56.4676 -6.69547 53.9595 -5.73895Z"/>
<path d="M91.0997 30.9174C89.0933 31.6826 88.7805 29.5907 88.8749 28.4491C89.284 27.4392 91.1772 28.0439 91.9529 27.5999C92.7287 27.1558 93.6078 29.9609 91.0997 30.9174Z"/>
<path d="M17.2749 -42.5692C15.2685 -41.804 14.9557 -43.8959 15.0501 -45.0375C15.4592 -46.0474 17.3524 -45.4427 18.1281 -45.8868C18.9039 -46.3308 19.783 -43.5257 17.2749 -42.5692Z"/>
<path d="M63.0062 3.48864C60.9997 4.25386 60.6869 2.16196 60.7814 1.02036C61.1905 0.0104486 63.0836 0.615145 63.8594 0.171096C64.6352 -0.272953 65.5143 2.53213 63.0062 3.48864Z"/>
<path d="M100.146 40.145C98.1399 40.9102 97.8271 38.8183 97.9215 37.6767C98.3306 36.6668 100.224 37.2715 101 36.8274C101.775 36.3834 102.654 39.1885 100.146 40.145Z"/>
<path d="M26.3215 -33.3416C24.3151 -32.5764 24.0023 -34.6683 24.0967 -35.8099C24.5058 -36.8198 26.399 -36.2151 27.1748 -36.6592C27.9505 -37.1032 28.8296 -34.2982 26.3215 -33.3416Z"/>
<path d="M72.1163 12.6251C70.1098 13.3903 69.797 11.2984 69.8915 10.1568C70.3006 9.14689 72.1937 9.75159 72.9695 9.30755C73.7452 8.8635 74.6243 11.6686 72.1163 12.6251Z"/>
<path d="M109.256 49.2814C107.25 50.0467 106.937 47.9548 107.032 46.8132C107.441 45.8032 109.334 46.4079 110.11 45.9639C110.885 45.5198 111.765 48.3249 109.256 49.2814Z"/>
<path d="M35.4316 -24.2052C33.4252 -23.44 33.1124 -25.5319 33.2068 -26.6735C33.6159 -27.6834 35.5091 -27.0787 36.2849 -27.5227C37.0606 -27.9668 37.9397 -25.1617 35.4316 -24.2052Z"/>
<path d="M81.608 21.7712C79.6015 22.5365 79.2888 20.4446 79.3832 19.303C79.7923 18.2931 81.6854 18.8978 82.4612 18.4537C83.237 18.0097 84.1161 20.8147 81.608 21.7712Z"/>
<path d="M118.748 58.4276C116.742 59.1928 116.429 57.1009 116.523 55.9593C116.932 54.9494 118.826 55.5541 119.601 55.1101C120.377 54.666 121.256 57.4711 118.748 58.4276Z"/>
<path d="M44.9234 -15.059C42.9169 -14.2938 42.6041 -16.3857 42.6985 -17.5273C43.1076 -18.5372 45.0008 -17.9325 45.7766 -18.3766C46.5523 -18.8206 47.4314 -16.0155 44.9234 -15.059Z"/>
<path d="M51.0619 20.8949C53.0446 19.9249 51.6783 18.2771 50.7472 17.5744C49.6959 17.1943 48.8304 19.0075 47.9515 19.2822C47.0726 19.557 48.5834 22.1075 51.0619 20.8949Z"/>
<path d="M88.202 57.5513C90.1848 56.5813 88.8184 54.9334 87.8874 54.2308C86.8361 53.8506 85.9705 55.6638 85.0917 55.9386C84.2128 56.2133 85.7235 58.7638 88.202 57.5513Z"/>
<path d="M14.3772 -15.9353C16.36 -16.9054 14.9936 -18.5532 14.0626 -19.2558C13.0113 -19.636 12.1457 -17.8228 11.2669 -17.5481C10.388 -17.2733 11.8987 -14.7228 14.3772 -15.9353Z"/>
<path d="M60.1085 30.1225C62.0913 29.1525 60.7249 27.5047 59.7939 26.802C58.7426 26.4219 57.877 28.2351 56.9981 28.5098C56.1192 28.7846 57.63 31.335 60.1085 30.1225Z"/>
<path d="M97.2487 66.7789C99.2314 65.8089 97.8651 64.161 96.934 63.4584C95.8827 63.0782 95.0172 64.8914 94.1383 65.1662C93.2594 65.4409 94.7702 67.9914 97.2487 66.7789Z"/>
<path d="M23.4239 -6.70776C25.4066 -7.67778 24.0403 -9.32559 23.1092 -10.0282C22.0579 -10.4084 21.1924 -8.5952 20.3135 -8.32046C19.4346 -8.04572 20.9454 -5.49523 23.4239 -6.70776Z"/>
<path d="M69.2186 39.259C71.2014 38.289 69.835 36.6411 68.9039 35.9385C67.8527 35.5583 66.9871 37.3715 66.1082 37.6463C65.2293 37.921 66.7401 40.4715 69.2186 39.259Z"/>
<path d="M106.359 75.9153C108.342 74.9453 106.975 73.2975 106.044 72.5948C104.993 72.2147 104.127 74.0279 103.248 74.3026C102.369 74.5774 103.88 77.1278 106.359 75.9153Z"/>
<path d="M32.5339 2.42869C34.5167 1.45867 33.1503 -0.189145 32.2193 -0.8918C31.168 -1.27196 30.3025 0.541245 29.4236 0.815985C28.5447 1.09073 30.0555 3.64122 32.5339 2.42869Z"/>
<path d="M78.7103 48.4051C80.6931 47.4351 79.3267 45.7873 78.3957 45.0846C77.3444 44.7045 76.4788 46.5177 75.5999 46.7924C74.721 47.0672 76.2318 49.6177 78.7103 48.4051Z"/>
<path d="M115.85 85.0615C117.833 84.0915 116.467 82.4436 115.536 81.741C114.485 81.3608 113.619 83.174 112.74 83.4488C111.861 83.7235 113.372 86.274 115.85 85.0615Z"/>
<path d="M42.0257 11.5748C44.0084 10.6048 42.6421 8.95701 41.711 8.25436C40.6597 7.8742 39.7942 9.6874 38.9153 9.96214C38.0364 10.2369 39.5472 12.7874 42.0257 11.5748Z"/>
<path d="M49.0547 -15.2839C46.5359 -15.348 48.13 -8.13419 49.2419 -4.5193C49.6782 -2.99494 50.8702 5.91091 51.2923 7.9623C51.7144 10.0137 53.1919 18.956 52.6853 23.5809C52.1788 28.2059 53.7632 29.6376 55.2368 28.0982C56.7104 26.5588 55.2288 24.8515 54.9297 21.7829C54.6305 18.7143 52.2959 2.60793 51.2759 -2.05587C50.2559 -6.71967 52.2031 -15.2038 49.0547 -15.2839Z"/>
<path d="M86.1948 21.3725C83.6761 21.3084 85.2702 28.5222 86.3821 32.1371C86.8183 33.6614 88.0104 42.5673 88.4325 44.6187C88.8545 46.6701 90.332 55.6123 89.8255 60.2373C89.3189 64.8622 90.9034 66.2939 92.377 64.7545C93.8506 63.2151 92.369 61.5078 92.0698 58.4392C91.7706 55.3706 89.436 39.2643 88.4161 34.6005C87.3961 29.9367 89.3433 21.4526 86.1948 21.3725Z"/>
<path d="M12.37 -52.1142C9.85129 -52.1782 11.4454 -44.9645 12.5573 -41.3496C12.9936 -39.8252 14.1856 -30.9194 14.6077 -28.868C15.0297 -26.8166 16.5072 -17.8743 16.0007 -13.2494C15.4941 -8.62439 17.0786 -7.19272 18.5522 -8.7321C20.0258 -10.2715 18.5442 -11.9788 18.245 -15.0474C17.9458 -18.116 15.6112 -34.2224 14.5913 -38.8862C13.5713 -43.55 15.5185 -52.0341 12.37 -52.1142Z"/>
<path d="M58.1013 -6.05629C55.5826 -6.12037 57.1766 1.09339 58.2885 4.70829C58.7248 6.23265 59.9169 15.1385 60.3389 17.1899C60.761 19.2413 62.2385 28.1835 61.732 32.8085C61.2254 37.4335 62.8099 38.8651 64.2834 37.3258C65.757 35.7864 64.2755 34.0791 63.9763 31.0105C63.6771 27.9419 61.3425 11.8355 60.3225 7.17172C59.3026 2.50792 61.2498 -5.97619 58.1013 -6.05629Z"/>
<path d="M95.2415 30.6001C92.7227 30.536 94.3168 37.7497 95.4287 41.3646C95.865 42.889 97.057 51.7949 97.4791 53.8462C97.9012 55.8976 99.3787 64.8399 98.8721 69.4649C98.3656 74.0898 99.95 75.5215 101.424 73.9821C102.897 72.4427 101.416 70.7354 101.116 67.6668C100.817 64.5982 98.4827 48.4919 97.4627 43.8281C96.4427 39.1643 98.3899 30.6802 95.2415 30.6001Z"/>
<path d="M21.4167 -42.8866C18.8979 -42.9507 20.492 -35.7369 21.6039 -32.122C22.0402 -30.5976 23.2322 -21.6918 23.6543 -19.6404C24.0764 -17.589 25.5539 -8.64673 25.0473 -4.02176C24.5408 0.603201 26.1252 2.03487 27.5988 0.495488C29.0724 -1.04389 27.5908 -2.75121 27.2917 -5.8198C26.9925 -8.8884 24.6579 -24.9948 23.6379 -29.6586C22.6179 -34.3224 24.5651 -42.8065 21.4167 -42.8866Z"/>
<path d="M67.2114 3.08016C64.6926 3.01608 66.2867 10.2298 67.3986 13.8447C67.8349 15.3691 69.027 24.2749 69.449 26.3263C69.8711 28.3777 71.3486 37.32 70.842 41.945C70.3355 46.5699 71.9199 48.0016 73.3935 46.4622C74.8671 44.9228 73.3856 43.2155 73.0864 40.1469C72.7872 37.0783 70.4526 20.972 69.4326 16.3082C68.4127 11.6444 70.3598 3.16026 67.2114 3.08016Z"/>
<path d="M104.352 39.7365C101.833 39.6724 103.427 46.8862 104.539 50.5011C104.975 52.0255 106.167 60.9313 106.589 62.9827C107.011 65.0341 108.489 73.9764 107.982 78.6013C107.476 83.2263 109.06 84.6579 110.534 83.1186C112.007 81.5792 110.526 79.8719 110.227 76.8033C109.927 73.7347 107.593 57.6283 106.573 52.9645C105.553 48.3007 107.5 39.8166 104.352 39.7365Z"/>
<path d="M30.5268 -33.7501C28.008 -33.8142 29.6021 -26.6004 30.714 -22.9855C31.1503 -21.4612 32.3423 -12.5553 32.7644 -10.5039C33.1865 -8.45254 34.664 0.489722 34.1574 5.11469C33.6509 9.73965 35.2353 11.1713 36.7089 9.63193C38.1825 8.09256 36.7009 6.38524 36.4018 3.31664C36.1026 0.24805 33.768 -15.8583 32.748 -20.5221C31.728 -25.1859 33.6752 -33.67 30.5268 -33.7501Z"/>
<path d="M76.7031 12.2263C74.1844 12.1622 75.7785 19.376 76.8904 22.9909C77.3266 24.5153 78.5187 33.4211 78.9408 35.4725C79.3628 37.5239 80.8403 46.4662 80.3338 51.0911C79.8272 55.7161 81.4117 57.1478 82.8853 55.6084C84.3588 54.069 82.8773 52.3617 82.5781 49.2931C82.2789 46.2245 79.9443 30.1181 78.9243 25.4543C77.9044 20.7905 79.8516 12.3064 76.7031 12.2263Z"/>
<path d="M113.843 48.8827C111.325 48.8186 112.919 56.0324 114.031 59.6472C114.467 61.1716 115.659 70.0775 116.081 72.1289C116.503 74.1802 117.98 83.1225 117.474 87.7475C116.967 92.3724 118.552 93.8041 120.025 92.2647C121.499 90.7253 120.017 89.018 119.718 85.9494C119.419 82.8808 117.084 66.7745 116.065 62.1107C115.045 57.4469 116.992 48.9628 113.843 48.8827Z"/>
<path d="M40.0185 -24.604C37.4997 -24.668 39.0938 -17.4543 40.2057 -13.8394C40.642 -12.315 41.834 -3.40917 42.2561 -1.35778C42.6782 0.693615 44.1557 9.63588 43.6491 14.2608C43.1426 18.8858 44.727 20.3175 46.2006 18.7781C47.6742 17.2387 46.1927 15.5314 45.8935 12.4628C45.5943 9.39421 43.2597 -6.71215 42.2397 -11.376C41.2197 -16.0398 43.1669 -24.5239 40.0185 -24.604Z"/>
</mask>
<path d="M43.5543 -10.8691C44.0511 -14.7369 47.4345 -16.777 46.8224 -14.6289C46.2104 -12.4808 51.8806 10.5564 50.7711 13.7523C49.6616 16.9483 47.5728 18.442 47.8011 17.0564C48.0294 15.6709 43.0575 -7.00142 43.5543 -10.8691Z" fill="#B37BA4" fill-opacity="0.3"/>
<path d="M52.6214 -1.43179C53.1182 -5.29952 56.5016 -7.33967 55.8895 -5.19155C55.2775 -3.04342 60.9477 19.9937 59.8382 23.1897C58.7286 26.3857 56.6399 27.8793 56.8682 26.4938C57.0965 25.1082 52.1246 2.43594 52.6214 -1.43179Z" fill="#B37BA4" fill-opacity="0.3"/>
<path d="M89.7615 35.2246C90.2583 31.3568 93.6417 29.3167 93.0297 31.4648C92.4177 33.6129 98.0879 56.6501 96.9783 59.846C95.8688 63.042 93.7801 64.5357 94.0083 63.1501C94.2366 61.7646 89.2647 39.0923 89.7615 35.2246Z" fill="#B37BA4" fill-opacity="0.3"/>
<path d="M15.9367 -38.2621C16.4335 -42.1298 19.8169 -44.17 19.2049 -42.0218C18.5929 -39.8737 24.2631 -16.8366 23.1535 -13.6406C22.044 -10.4446 19.9553 -8.95096 20.1836 -10.3365C20.4119 -11.7221 15.44 -34.3943 15.9367 -38.2621Z" fill="#B37BA4" fill-opacity="0.3"/>
<path d="M61.668 7.7958C62.1648 3.92807 65.5482 1.88791 64.9362 4.03604C64.3241 6.18417 69.9944 29.2213 68.8848 32.4173C67.7753 35.6133 65.6865 37.1069 65.9148 35.7214C66.1431 34.3358 61.1712 11.6635 61.668 7.7958Z" fill="#B37BA4" fill-opacity="0.3"/>
<path d="M98.8082 44.4521C99.305 40.5844 102.688 38.5443 102.076 40.6924C101.464 42.8405 107.135 65.8777 106.025 69.0736C104.915 72.2696 102.827 73.7633 103.055 72.3777C103.283 70.9922 98.3114 48.3199 98.8082 44.4521Z" fill="#B37BA4" fill-opacity="0.3"/>
<path d="M24.9834 -29.0345C25.4802 -32.9022 28.8635 -34.9424 28.2515 -32.7942C27.6395 -30.6461 33.3097 -7.60897 32.2002 -4.413C31.0906 -1.21702 29.0019 0.276628 29.2302 -1.10892C29.4585 -2.49447 24.4866 -25.1667 24.9834 -29.0345Z" fill="#B37BA4" fill-opacity="0.3"/>
<path d="M70.7781 16.9322C71.2749 13.0645 74.6583 11.0244 74.0462 13.1725C73.4342 15.3206 79.1044 38.3578 77.9949 41.5537C76.8854 44.7497 74.7966 46.2434 75.0249 44.8578C75.2532 43.4723 70.2813 20.8 70.7781 16.9322Z" fill="#B37BA4" fill-opacity="0.3"/>
<path d="M107.918 53.5886C108.415 49.7209 111.798 47.6807 111.186 49.8288C110.574 51.977 116.245 75.0141 115.135 78.2101C114.026 81.4061 111.937 82.8997 112.165 81.5142C112.393 80.1286 107.421 57.4563 107.918 53.5886Z" fill="#B37BA4" fill-opacity="0.3"/>
<path d="M34.0935 -19.898C34.5903 -23.7658 37.9736 -25.8059 37.3616 -23.6578C36.7496 -21.5097 42.4198 1.52747 41.3103 4.72345C40.2007 7.91943 38.112 9.41308 38.3403 8.02753C38.5686 6.64198 33.5967 -16.0303 34.0935 -19.898Z" fill="#B37BA4" fill-opacity="0.3"/>
<path d="M80.2698 26.0784C80.7666 22.2107 84.15 20.1705 83.538 22.3187C82.9259 24.4668 88.5962 47.5039 87.4866 50.6999C86.3771 53.8959 84.2883 55.3895 84.5166 54.004C84.7449 52.6184 79.773 29.9461 80.2698 26.0784Z" fill="#B37BA4" fill-opacity="0.3"/>
<path d="M117.41 62.7348C117.907 58.867 121.29 56.8269 120.678 58.975C120.066 61.1231 125.736 84.1603 124.627 87.3562C123.517 90.5522 121.429 92.0459 121.657 90.6603C121.885 89.2748 116.913 66.6025 117.41 62.7348Z" fill="#B37BA4" fill-opacity="0.3"/>
<path d="M53.9595 -5.73895C51.9531 -4.97373 51.6403 -7.06563 51.7347 -8.20723C52.1438 -9.21714 54.037 -8.61244 54.8128 -9.05649C55.5885 -9.50054 56.4676 -6.69547 53.9595 -5.73895Z" fill="#B37BA4" fill-opacity="0.3"/>
<path d="M91.0997 30.9174C89.0933 31.6826 88.7805 29.5907 88.8749 28.4491C89.284 27.4392 91.1772 28.0439 91.9529 27.5999C92.7287 27.1558 93.6078 29.9609 91.0997 30.9174Z" fill="#B37BA4" fill-opacity="0.3"/>
<path d="M17.2749 -42.5692C15.2685 -41.804 14.9557 -43.8959 15.0501 -45.0375C15.4592 -46.0474 17.3524 -45.4427 18.1281 -45.8868C18.9039 -46.3308 19.783 -43.5257 17.2749 -42.5692Z" fill="#B37BA4" fill-opacity="0.3"/>
<path d="M63.0062 3.48864C60.9997 4.25386 60.6869 2.16196 60.7814 1.02036C61.1905 0.0104486 63.0836 0.615145 63.8594 0.171096C64.6352 -0.272953 65.5143 2.53213 63.0062 3.48864Z" fill="#B37BA4" fill-opacity="0.3"/>
<path d="M100.146 40.145C98.1399 40.9102 97.8271 38.8183 97.9215 37.6767C98.3306 36.6668 100.224 37.2715 101 36.8274C101.775 36.3834 102.654 39.1885 100.146 40.145Z" fill="#B37BA4" fill-opacity="0.3"/>
<path d="M26.3215 -33.3416C24.3151 -32.5764 24.0023 -34.6683 24.0967 -35.8099C24.5058 -36.8198 26.399 -36.2151 27.1748 -36.6592C27.9505 -37.1032 28.8296 -34.2982 26.3215 -33.3416Z" fill="#B37BA4" fill-opacity="0.3"/>
<path d="M72.1163 12.6251C70.1098 13.3903 69.797 11.2984 69.8915 10.1568C70.3006 9.14689 72.1937 9.75159 72.9695 9.30755C73.7452 8.8635 74.6243 11.6686 72.1163 12.6251Z" fill="#B37BA4" fill-opacity="0.3"/>
<path d="M109.256 49.2814C107.25 50.0467 106.937 47.9548 107.032 46.8132C107.441 45.8032 109.334 46.4079 110.11 45.9639C110.885 45.5198 111.765 48.3249 109.256 49.2814Z" fill="#B37BA4" fill-opacity="0.3"/>
<path d="M35.4316 -24.2052C33.4252 -23.44 33.1124 -25.5319 33.2068 -26.6735C33.6159 -27.6834 35.5091 -27.0787 36.2849 -27.5227C37.0606 -27.9668 37.9397 -25.1617 35.4316 -24.2052Z" fill="#B37BA4" fill-opacity="0.3"/>
<path d="M81.608 21.7712C79.6015 22.5365 79.2888 20.4446 79.3832 19.303C79.7923 18.2931 81.6854 18.8978 82.4612 18.4537C83.237 18.0097 84.1161 20.8147 81.608 21.7712Z" fill="#B37BA4" fill-opacity="0.3"/>
<path d="M118.748 58.4276C116.742 59.1928 116.429 57.1009 116.523 55.9593C116.932 54.9494 118.826 55.5541 119.601 55.1101C120.377 54.666 121.256 57.4711 118.748 58.4276Z" fill="#B37BA4" fill-opacity="0.3"/>
<path d="M44.9234 -15.059C42.9169 -14.2938 42.6041 -16.3857 42.6985 -17.5273C43.1076 -18.5372 45.0008 -17.9325 45.7766 -18.3766C46.5523 -18.8206 47.4314 -16.0155 44.9234 -15.059Z" fill="#B37BA4" fill-opacity="0.3"/>
<path d="M51.0619 20.8949C53.0446 19.9249 51.6783 18.2771 50.7472 17.5744C49.6959 17.1943 48.8304 19.0075 47.9515 19.2822C47.0726 19.557 48.5834 22.1075 51.0619 20.8949Z" fill="#B37BA4" fill-opacity="0.3"/>
<path d="M88.202 57.5513C90.1848 56.5813 88.8184 54.9334 87.8874 54.2308C86.8361 53.8506 85.9705 55.6638 85.0917 55.9386C84.2128 56.2133 85.7235 58.7638 88.202 57.5513Z" fill="#B37BA4" fill-opacity="0.3"/>
<path d="M14.3772 -15.9353C16.36 -16.9054 14.9936 -18.5532 14.0626 -19.2558C13.0113 -19.636 12.1457 -17.8228 11.2669 -17.5481C10.388 -17.2733 11.8987 -14.7228 14.3772 -15.9353Z" fill="#B37BA4" fill-opacity="0.3"/>
<path d="M60.1085 30.1225C62.0913 29.1525 60.7249 27.5047 59.7939 26.802C58.7426 26.4219 57.877 28.2351 56.9981 28.5098C56.1192 28.7846 57.63 31.335 60.1085 30.1225Z" fill="#B37BA4" fill-opacity="0.3"/>
<path d="M97.2487 66.7789C99.2314 65.8089 97.8651 64.161 96.934 63.4584C95.8827 63.0782 95.0172 64.8914 94.1383 65.1662C93.2594 65.4409 94.7702 67.9914 97.2487 66.7789Z" fill="#B37BA4" fill-opacity="0.3"/>
<path d="M23.4239 -6.70776C25.4066 -7.67778 24.0403 -9.32559 23.1092 -10.0282C22.0579 -10.4084 21.1924 -8.5952 20.3135 -8.32046C19.4346 -8.04572 20.9454 -5.49523 23.4239 -6.70776Z" fill="#B37BA4" fill-opacity="0.3"/>
<path d="M69.2186 39.259C71.2014 38.289 69.835 36.6411 68.9039 35.9385C67.8527 35.5583 66.9871 37.3715 66.1082 37.6463C65.2293 37.921 66.7401 40.4715 69.2186 39.259Z" fill="#B37BA4" fill-opacity="0.3"/>
<path d="M106.359 75.9153C108.342 74.9453 106.975 73.2975 106.044 72.5948C104.993 72.2147 104.127 74.0279 103.248 74.3026C102.369 74.5774 103.88 77.1278 106.359 75.9153Z" fill="#B37BA4" fill-opacity="0.3"/>
<path d="M32.5339 2.42869C34.5167 1.45867 33.1503 -0.189145 32.2193 -0.8918C31.168 -1.27196 30.3025 0.541245 29.4236 0.815985C28.5447 1.09073 30.0555 3.64122 32.5339 2.42869Z" fill="#B37BA4" fill-opacity="0.3"/>
<path d="M78.7103 48.4051C80.6931 47.4351 79.3267 45.7873 78.3957 45.0846C77.3444 44.7045 76.4788 46.5177 75.5999 46.7924C74.721 47.0672 76.2318 49.6177 78.7103 48.4051Z" fill="#B37BA4" fill-opacity="0.3"/>
<path d="M115.85 85.0615C117.833 84.0915 116.467 82.4436 115.536 81.741C114.485 81.3608 113.619 83.174 112.74 83.4488C111.861 83.7235 113.372 86.274 115.85 85.0615Z" fill="#B37BA4" fill-opacity="0.3"/>
<path d="M42.0257 11.5748C44.0084 10.6048 42.6421 8.95701 41.711 8.25436C40.6597 7.8742 39.7942 9.6874 38.9153 9.96214C38.0364 10.2369 39.5472 12.7874 42.0257 11.5748Z" fill="#B37BA4" fill-opacity="0.3"/>
<path d="M49.0547 -15.2839C46.5359 -15.348 48.13 -8.13419 49.2419 -4.5193C49.6782 -2.99494 50.8702 5.91091 51.2923 7.9623C51.7144 10.0137 53.1919 18.956 52.6853 23.5809C52.1788 28.2059 53.7632 29.6376 55.2368 28.0982C56.7104 26.5588 55.2288 24.8515 54.9297 21.7829C54.6305 18.7143 52.2959 2.60793 51.2759 -2.05587C50.2559 -6.71967 52.2031 -15.2038 49.0547 -15.2839Z" fill="#B37BA4" fill-opacity="0.3"/>
<path d="M86.1948 21.3725C83.6761 21.3084 85.2702 28.5222 86.3821 32.1371C86.8183 33.6614 88.0104 42.5673 88.4325 44.6187C88.8545 46.6701 90.332 55.6123 89.8255 60.2373C89.3189 64.8622 90.9034 66.2939 92.377 64.7545C93.8506 63.2151 92.369 61.5078 92.0698 58.4392C91.7706 55.3706 89.436 39.2643 88.4161 34.6005C87.3961 29.9367 89.3433 21.4526 86.1948 21.3725Z" fill="#B37BA4" fill-opacity="0.3"/>
<path d="M12.37 -52.1142C9.85129 -52.1782 11.4454 -44.9645 12.5573 -41.3496C12.9936 -39.8252 14.1856 -30.9194 14.6077 -28.868C15.0297 -26.8166 16.5072 -17.8743 16.0007 -13.2494C15.4941 -8.62439 17.0786 -7.19272 18.5522 -8.7321C20.0258 -10.2715 18.5442 -11.9788 18.245 -15.0474C17.9458 -18.116 15.6112 -34.2224 14.5913 -38.8862C13.5713 -43.55 15.5185 -52.0341 12.37 -52.1142Z" fill="#B37BA4" fill-opacity="0.3"/>
<path d="M58.1013 -6.05629C55.5826 -6.12037 57.1766 1.09339 58.2885 4.70829C58.7248 6.23265 59.9169 15.1385 60.3389 17.1899C60.761 19.2413 62.2385 28.1835 61.732 32.8085C61.2254 37.4335 62.8099 38.8651 64.2834 37.3258C65.757 35.7864 64.2755 34.0791 63.9763 31.0105C63.6771 27.9419 61.3425 11.8355 60.3225 7.17172C59.3026 2.50792 61.2498 -5.97619 58.1013 -6.05629Z" fill="#B37BA4" fill-opacity="0.3"/>
<path d="M95.2415 30.6001C92.7227 30.536 94.3168 37.7497 95.4287 41.3646C95.865 42.889 97.057 51.7949 97.4791 53.8462C97.9012 55.8976 99.3787 64.8399 98.8721 69.4649C98.3656 74.0898 99.95 75.5215 101.424 73.9821C102.897 72.4427 101.416 70.7354 101.116 67.6668C100.817 64.5982 98.4827 48.4919 97.4627 43.8281C96.4427 39.1643 98.3899 30.6802 95.2415 30.6001Z" fill="#B37BA4" fill-opacity="0.3"/>
<path d="M21.4167 -42.8866C18.8979 -42.9507 20.492 -35.7369 21.6039 -32.122C22.0402 -30.5976 23.2322 -21.6918 23.6543 -19.6404C24.0764 -17.589 25.5539 -8.64673 25.0473 -4.02176C24.5408 0.603201 26.1252 2.03487 27.5988 0.495488C29.0724 -1.04389 27.5908 -2.75121 27.2917 -5.8198C26.9925 -8.8884 24.6579 -24.9948 23.6379 -29.6586C22.6179 -34.3224 24.5651 -42.8065 21.4167 -42.8866Z" fill="#B37BA4" fill-opacity="0.3"/>
<path d="M67.2114 3.08016C64.6926 3.01608 66.2867 10.2298 67.3986 13.8447C67.8349 15.3691 69.027 24.2749 69.449 26.3263C69.8711 28.3777 71.3486 37.32 70.842 41.945C70.3355 46.5699 71.9199 48.0016 73.3935 46.4622C74.8671 44.9228 73.3856 43.2155 73.0864 40.1469C72.7872 37.0783 70.4526 20.972 69.4326 16.3082C68.4127 11.6444 70.3598 3.16026 67.2114 3.08016Z" fill="#B37BA4" fill-opacity="0.3"/>
<path d="M104.352 39.7365C101.833 39.6724 103.427 46.8862 104.539 50.5011C104.975 52.0255 106.167 60.9313 106.589 62.9827C107.011 65.0341 108.489 73.9764 107.982 78.6013C107.476 83.2263 109.06 84.6579 110.534 83.1186C112.007 81.5792 110.526 79.8719 110.227 76.8033C109.927 73.7347 107.593 57.6283 106.573 52.9645C105.553 48.3007 107.5 39.8166 104.352 39.7365Z" fill="#B37BA4" fill-opacity="0.3"/>
<path d="M30.5268 -33.7501C28.008 -33.8142 29.6021 -26.6004 30.714 -22.9855C31.1503 -21.4612 32.3423 -12.5553 32.7644 -10.5039C33.1865 -8.45254 34.664 0.489722 34.1574 5.11469C33.6509 9.73965 35.2353 11.1713 36.7089 9.63193C38.1825 8.09256 36.7009 6.38524 36.4018 3.31664C36.1026 0.24805 33.768 -15.8583 32.748 -20.5221C31.728 -25.1859 33.6752 -33.67 30.5268 -33.7501Z" fill="#B37BA4" fill-opacity="0.3"/>
<path d="M76.7031 12.2263C74.1844 12.1622 75.7785 19.376 76.8904 22.9909C77.3266 24.5153 78.5187 33.4211 78.9408 35.4725C79.3628 37.5239 80.8403 46.4662 80.3338 51.0911C79.8272 55.7161 81.4117 57.1478 82.8853 55.6084C84.3588 54.069 82.8773 52.3617 82.5781 49.2931C82.2789 46.2245 79.9443 30.1181 78.9243 25.4543C77.9044 20.7905 79.8516 12.3064 76.7031 12.2263Z" fill="#B37BA4" fill-opacity="0.3"/>
<path d="M113.843 48.8827C111.325 48.8186 112.919 56.0324 114.031 59.6472C114.467 61.1716 115.659 70.0775 116.081 72.1289C116.503 74.1802 117.98 83.1225 117.474 87.7475C116.967 92.3724 118.552 93.8041 120.025 92.2647C121.499 90.7253 120.017 89.018 119.718 85.9494C119.419 82.8808 117.084 66.7745 116.065 62.1107C115.045 57.4469 116.992 48.9628 113.843 48.8827Z" fill="#B37BA4" fill-opacity="0.3"/>
<path d="M40.0185 -24.604C37.4997 -24.668 39.0938 -17.4543 40.2057 -13.8394C40.642 -12.315 41.834 -3.40917 42.2561 -1.35778C42.6782 0.693615 44.1557 9.63588 43.6491 14.2608C43.1426 18.8858 44.727 20.3175 46.2006 18.7781C47.6742 17.2387 46.1927 15.5314 45.8935 12.4628C45.5943 9.39421 43.2597 -6.71215 42.2397 -11.376C41.2197 -16.0398 43.1669 -24.5239 40.0185 -24.604Z" fill="#B37BA4" fill-opacity="0.3"/>
<path d="M43.5543 -10.8691C44.0511 -14.7369 47.4345 -16.777 46.8224 -14.6289C46.2104 -12.4808 51.8806 10.5564 50.7711 13.7523C49.6616 16.9483 47.5728 18.442 47.8011 17.0564C48.0294 15.6709 43.0575 -7.00142 43.5543 -10.8691Z" stroke="#442B48" stroke-width="5.64601" mask="url(#path-3-outside-1)"/>
<path d="M52.6214 -1.43179C53.1182 -5.29952 56.5016 -7.33967 55.8895 -5.19155C55.2775 -3.04342 60.9477 19.9937 59.8382 23.1897C58.7286 26.3857 56.6399 27.8793 56.8682 26.4938C57.0965 25.1082 52.1246 2.43594 52.6214 -1.43179Z" stroke="#442B48" stroke-width="5.64601" mask="url(#path-3-outside-1)"/>
<path d="M89.7615 35.2246C90.2583 31.3568 93.6417 29.3167 93.0297 31.4648C92.4177 33.6129 98.0879 56.6501 96.9783 59.846C95.8688 63.042 93.7801 64.5357 94.0083 63.1501C94.2366 61.7646 89.2647 39.0923 89.7615 35.2246Z" stroke="#442B48" stroke-width="5.64601" mask="url(#path-3-outside-1)"/>
<path d="M15.9367 -38.2621C16.4335 -42.1298 19.8169 -44.17 19.2049 -42.0218C18.5929 -39.8737 24.2631 -16.8366 23.1535 -13.6406C22.044 -10.4446 19.9553 -8.95096 20.1836 -10.3365C20.4119 -11.7221 15.44 -34.3943 15.9367 -38.2621Z" stroke="#442B48" stroke-width="5.64601" mask="url(#path-3-outside-1)"/>
<path d="M61.668 7.7958C62.1648 3.92807 65.5482 1.88791 64.9362 4.03604C64.3241 6.18417 69.9944 29.2213 68.8848 32.4173C67.7753 35.6133 65.6865 37.1069 65.9148 35.7214C66.1431 34.3358 61.1712 11.6635 61.668 7.7958Z" stroke="#442B48" stroke-width="5.64601" mask="url(#path-3-outside-1)"/>
<path d="M98.8082 44.4521C99.305 40.5844 102.688 38.5443 102.076 40.6924C101.464 42.8405 107.135 65.8777 106.025 69.0736C104.915 72.2696 102.827 73.7633 103.055 72.3777C103.283 70.9922 98.3114 48.3199 98.8082 44.4521Z" stroke="#442B48" stroke-width="5.64601" mask="url(#path-3-outside-1)"/>
<path d="M24.9834 -29.0345C25.4802 -32.9022 28.8635 -34.9424 28.2515 -32.7942C27.6395 -30.6461 33.3097 -7.60897 32.2002 -4.413C31.0906 -1.21702 29.0019 0.276628 29.2302 -1.10892C29.4585 -2.49447 24.4866 -25.1667 24.9834 -29.0345Z" stroke="#442B48" stroke-width="5.64601" mask="url(#path-3-outside-1)"/>
<path d="M70.7781 16.9322C71.2749 13.0645 74.6583 11.0244 74.0462 13.1725C73.4342 15.3206 79.1044 38.3578 77.9949 41.5537C76.8854 44.7497 74.7966 46.2434 75.0249 44.8578C75.2532 43.4723 70.2813 20.8 70.7781 16.9322Z" stroke="#442B48" stroke-width="5.64601" mask="url(#path-3-outside-1)"/>
<path d="M107.918 53.5886C108.415 49.7209 111.798 47.6807 111.186 49.8288C110.574 51.977 116.245 75.0141 115.135 78.2101C114.026 81.4061 111.937 82.8997 112.165 81.5142C112.393 80.1286 107.421 57.4563 107.918 53.5886Z" stroke="#442B48" stroke-width="5.64601" mask="url(#path-3-outside-1)"/>
<path d="M34.0935 -19.898C34.5903 -23.7658 37.9736 -25.8059 37.3616 -23.6578C36.7496 -21.5097 42.4198 1.52747 41.3103 4.72345C40.2007 7.91943 38.112 9.41308 38.3403 8.02753C38.5686 6.64198 33.5967 -16.0303 34.0935 -19.898Z" stroke="#442B48" stroke-width="5.64601" mask="url(#path-3-outside-1)"/>
<path d="M80.2698 26.0784C80.7666 22.2107 84.15 20.1705 83.538 22.3187C82.9259 24.4668 88.5962 47.5039 87.4866 50.6999C86.3771 53.8959 84.2883 55.3895 84.5166 54.004C84.7449 52.6184 79.773 29.9461 80.2698 26.0784Z" stroke="#442B48" stroke-width="5.64601" mask="url(#path-3-outside-1)"/>
<path d="M117.41 62.7348C117.907 58.867 121.29 56.8269 120.678 58.975C120.066 61.1231 125.736 84.1603 124.627 87.3562C123.517 90.5522 121.429 92.0459 121.657 90.6603C121.885 89.2748 116.913 66.6025 117.41 62.7348Z" stroke="#442B48" stroke-width="5.64601" mask="url(#path-3-outside-1)"/>
<path d="M53.9595 -5.73895C51.9531 -4.97373 51.6403 -7.06563 51.7347 -8.20723C52.1438 -9.21714 54.037 -8.61244 54.8128 -9.05649C55.5885 -9.50054 56.4676 -6.69547 53.9595 -5.73895Z" stroke="#442B48" stroke-width="5.64601" mask="url(#path-3-outside-1)"/>
<path d="M91.0997 30.9174C89.0933 31.6826 88.7805 29.5907 88.8749 28.4491C89.284 27.4392 91.1772 28.0439 91.9529 27.5999C92.7287 27.1558 93.6078 29.9609 91.0997 30.9174Z" stroke="#442B48" stroke-width="5.64601" mask="url(#path-3-outside-1)"/>
<path d="M17.2749 -42.5692C15.2685 -41.804 14.9557 -43.8959 15.0501 -45.0375C15.4592 -46.0474 17.3524 -45.4427 18.1281 -45.8868C18.9039 -46.3308 19.783 -43.5257 17.2749 -42.5692Z" stroke="#442B48" stroke-width="5.64601" mask="url(#path-3-outside-1)"/>
<path d="M63.0062 3.48864C60.9997 4.25386 60.6869 2.16196 60.7814 1.02036C61.1905 0.0104486 63.0836 0.615145 63.8594 0.171096C64.6352 -0.272953 65.5143 2.53213 63.0062 3.48864Z" stroke="#442B48" stroke-width="5.64601" mask="url(#path-3-outside-1)"/>
<path d="M100.146 40.145C98.1399 40.9102 97.8271 38.8183 97.9215 37.6767C98.3306 36.6668 100.224 37.2715 101 36.8274C101.775 36.3834 102.654 39.1885 100.146 40.145Z" stroke="#442B48" stroke-width="5.64601" mask="url(#path-3-outside-1)"/>
<path d="M26.3215 -33.3416C24.3151 -32.5764 24.0023 -34.6683 24.0967 -35.8099C24.5058 -36.8198 26.399 -36.2151 27.1748 -36.6592C27.9505 -37.1032 28.8296 -34.2982 26.3215 -33.3416Z" stroke="#442B48" stroke-width="5.64601" mask="url(#path-3-outside-1)"/>
<path d="M72.1163 12.6251C70.1098 13.3903 69.797 11.2984 69.8915 10.1568C70.3006 9.14689 72.1937 9.75159 72.9695 9.30755C73.7452 8.8635 74.6243 11.6686 72.1163 12.6251Z" stroke="#442B48" stroke-width="5.64601" mask="url(#path-3-outside-1)"/>
<path d="M109.256 49.2814C107.25 50.0467 106.937 47.9548 107.032 46.8132C107.441 45.8032 109.334 46.4079 110.11 45.9639C110.885 45.5198 111.765 48.3249 109.256 49.2814Z" stroke="#442B48" stroke-width="5.64601" mask="url(#path-3-outside-1)"/>
<path d="M35.4316 -24.2052C33.4252 -23.44 33.1124 -25.5319 33.2068 -26.6735C33.6159 -27.6834 35.5091 -27.0787 36.2849 -27.5227C37.0606 -27.9668 37.9397 -25.1617 35.4316 -24.2052Z" stroke="#442B48" stroke-width="5.64601" mask="url(#path-3-outside-1)"/>
<path d="M81.608 21.7712C79.6015 22.5365 79.2888 20.4446 79.3832 19.303C79.7923 18.2931 81.6854 18.8978 82.4612 18.4537C83.237 18.0097 84.1161 20.8147 81.608 21.7712Z" stroke="#442B48" stroke-width="5.64601" mask="url(#path-3-outside-1)"/>
<path d="M118.748 58.4276C116.742 59.1928 116.429 57.1009 116.523 55.9593C116.932 54.9494 118.826 55.5541 119.601 55.1101C120.377 54.666 121.256 57.4711 118.748 58.4276Z" stroke="#442B48" stroke-width="5.64601" mask="url(#path-3-outside-1)"/>
<path d="M44.9234 -15.059C42.9169 -14.2938 42.6041 -16.3857 42.6985 -17.5273C43.1076 -18.5372 45.0008 -17.9325 45.7766 -18.3766C46.5523 -18.8206 47.4314 -16.0155 44.9234 -15.059Z" stroke="#442B48" stroke-width="5.64601" mask="url(#path-3-outside-1)"/>
<path d="M51.0619 20.8949C53.0446 19.9249 51.6783 18.2771 50.7472 17.5744C49.6959 17.1943 48.8304 19.0075 47.9515 19.2822C47.0726 19.557 48.5834 22.1075 51.0619 20.8949Z" stroke="#442B48" stroke-width="5.64601" mask="url(#path-3-outside-1)"/>
<path d="M88.202 57.5513C90.1848 56.5813 88.8184 54.9334 87.8874 54.2308C86.8361 53.8506 85.9705 55.6638 85.0917 55.9386C84.2128 56.2133 85.7235 58.7638 88.202 57.5513Z" stroke="#442B48" stroke-width="5.64601" mask="url(#path-3-outside-1)"/>
<path d="M14.3772 -15.9353C16.36 -16.9054 14.9936 -18.5532 14.0626 -19.2558C13.0113 -19.636 12.1457 -17.8228 11.2669 -17.5481C10.388 -17.2733 11.8987 -14.7228 14.3772 -15.9353Z" stroke="#442B48" stroke-width="5.64601" mask="url(#path-3-outside-1)"/>
<path d="M60.1085 30.1225C62.0913 29.1525 60.7249 27.5047 59.7939 26.802C58.7426 26.4219 57.877 28.2351 56.9981 28.5098C56.1192 28.7846 57.63 31.335 60.1085 30.1225Z" stroke="#442B48" stroke-width="5.64601" mask="url(#path-3-outside-1)"/>
<path d="M97.2487 66.7789C99.2314 65.8089 97.8651 64.161 96.934 63.4584C95.8827 63.0782 95.0172 64.8914 94.1383 65.1662C93.2594 65.4409 94.7702 67.9914 97.2487 66.7789Z" stroke="#442B48" stroke-width="5.64601" mask="url(#path-3-outside-1)"/>
<path d="M23.4239 -6.70776C25.4066 -7.67778 24.0403 -9.32559 23.1092 -10.0282C22.0579 -10.4084 21.1924 -8.5952 20.3135 -8.32046C19.4346 -8.04572 20.9454 -5.49523 23.4239 -6.70776Z" stroke="#442B48" stroke-width="5.64601" mask="url(#path-3-outside-1)"/>
<path d="M69.2186 39.259C71.2014 38.289 69.835 36.6411 68.9039 35.9385C67.8527 35.5583 66.9871 37.3715 66.1082 37.6463C65.2293 37.921 66.7401 40.4715 69.2186 39.259Z" stroke="#442B48" stroke-width="5.64601" mask="url(#path-3-outside-1)"/>
<path d="M106.359 75.9153C108.342 74.9453 106.975 73.2975 106.044 72.5948C104.993 72.2147 104.127 74.0279 103.248 74.3026C102.369 74.5774 103.88 77.1278 106.359 75.9153Z" stroke="#442B48" stroke-width="5.64601" mask="url(#path-3-outside-1)"/>
<path d="M32.5339 2.42869C34.5167 1.45867 33.1503 -0.189145 32.2193 -0.8918C31.168 -1.27196 30.3025 0.541245 29.4236 0.815985C28.5447 1.09073 30.0555 3.64122 32.5339 2.42869Z" stroke="#442B48" stroke-width="5.64601" mask="url(#path-3-outside-1)"/>
<path d="M78.7103 48.4051C80.6931 47.4351 79.3267 45.7873 78.3957 45.0846C77.3444 44.7045 76.4788 46.5177 75.5999 46.7924C74.721 47.0672 76.2318 49.6177 78.7103 48.4051Z" stroke="#442B48" stroke-width="5.64601" mask="url(#path-3-outside-1)"/>
<path d="M115.85 85.0615C117.833 84.0915 116.467 82.4436 115.536 81.741C114.485 81.3608 113.619 83.174 112.74 83.4488C111.861 83.7235 113.372 86.274 115.85 85.0615Z" stroke="#442B48" stroke-width="5.64601" mask="url(#path-3-outside-1)"/>
<path d="M42.0257 11.5748C44.0084 10.6048 42.6421 8.95701 41.711 8.25436C40.6597 7.8742 39.7942 9.6874 38.9153 9.96214C38.0364 10.2369 39.5472 12.7874 42.0257 11.5748Z" stroke="#442B48" stroke-width="5.64601" mask="url(#path-3-outside-1)"/>
<path d="M49.0547 -15.2839C46.5359 -15.348 48.13 -8.13419 49.2419 -4.5193C49.6782 -2.99494 50.8702 5.91091 51.2923 7.9623C51.7144 10.0137 53.1919 18.956 52.6853 23.5809C52.1788 28.2059 53.7632 29.6376 55.2368 28.0982C56.7104 26.5588 55.2288 24.8515 54.9297 21.7829C54.6305 18.7143 52.2959 2.60793 51.2759 -2.05587C50.2559 -6.71967 52.2031 -15.2038 49.0547 -15.2839Z" stroke="#442B48" stroke-width="5.64601" mask="url(#path-3-outside-1)"/>
<path d="M86.1948 21.3725C83.6761 21.3084 85.2702 28.5222 86.3821 32.1371C86.8183 33.6614 88.0104 42.5673 88.4325 44.6187C88.8545 46.6701 90.332 55.6123 89.8255 60.2373C89.3189 64.8622 90.9034 66.2939 92.377 64.7545C93.8506 63.2151 92.369 61.5078 92.0698 58.4392C91.7706 55.3706 89.436 39.2643 88.4161 34.6005C87.3961 29.9367 89.3433 21.4526 86.1948 21.3725Z" stroke="#442B48" stroke-width="5.64601" mask="url(#path-3-outside-1)"/>
<path d="M12.37 -52.1142C9.85129 -52.1782 11.4454 -44.9645 12.5573 -41.3496C12.9936 -39.8252 14.1856 -30.9194 14.6077 -28.868C15.0297 -26.8166 16.5072 -17.8743 16.0007 -13.2494C15.4941 -8.62439 17.0786 -7.19272 18.5522 -8.7321C20.0258 -10.2715 18.5442 -11.9788 18.245 -15.0474C17.9458 -18.116 15.6112 -34.2224 14.5913 -38.8862C13.5713 -43.55 15.5185 -52.0341 12.37 -52.1142Z" stroke="#442B48" stroke-width="5.64601" mask="url(#path-3-outside-1)"/>
<path d="M58.1013 -6.05629C55.5826 -6.12037 57.1766 1.09339 58.2885 4.70829C58.7248 6.23265 59.9169 15.1385 60.3389 17.1899C60.761 19.2413 62.2385 28.1835 61.732 32.8085C61.2254 37.4335 62.8099 38.8651 64.2834 37.3258C65.757 35.7864 64.2755 34.0791 63.9763 31.0105C63.6771 27.9419 61.3425 11.8355 60.3225 7.17172C59.3026 2.50792 61.2498 -5.97619 58.1013 -6.05629Z" stroke="#442B48" stroke-width="5.64601" mask="url(#path-3-outside-1)"/>
<path d="M95.2415 30.6001C92.7227 30.536 94.3168 37.7497 95.4287 41.3646C95.865 42.889 97.057 51.7949 97.4791 53.8462C97.9012 55.8976 99.3787 64.8399 98.8721 69.4649C98.3656 74.0898 99.95 75.5215 101.424 73.9821C102.897 72.4427 101.416 70.7354 101.116 67.6668C100.817 64.5982 98.4827 48.4919 97.4627 43.8281C96.4427 39.1643 98.3899 30.6802 95.2415 30.6001Z" stroke="#442B48" stroke-width="5.64601" mask="url(#path-3-outside-1)"/>
<path d="M21.4167 -42.8866C18.8979 -42.9507 20.492 -35.7369 21.6039 -32.122C22.0402 -30.5976 23.2322 -21.6918 23.6543 -19.6404C24.0764 -17.589 25.5539 -8.64673 25.0473 -4.02176C24.5408 0.603201 26.1252 2.03487 27.5988 0.495488C29.0724 -1.04389 27.5908 -2.75121 27.2917 -5.8198C26.9925 -8.8884 24.6579 -24.9948 23.6379 -29.6586C22.6179 -34.3224 24.5651 -42.8065 21.4167 -42.8866Z" stroke="#442B48" stroke-width="5.64601" mask="url(#path-3-outside-1)"/>
<path d="M67.2114 3.08016C64.6926 3.01608 66.2867 10.2298 67.3986 13.8447C67.8349 15.3691 69.027 24.2749 69.449 26.3263C69.8711 28.3777 71.3486 37.32 70.842 41.945C70.3355 46.5699 71.9199 48.0016 73.3935 46.4622C74.8671 44.9228 73.3856 43.2155 73.0864 40.1469C72.7872 37.0783 70.4526 20.972 69.4326 16.3082C68.4127 11.6444 70.3598 3.16026 67.2114 3.08016Z" stroke="#442B48" stroke-width="5.64601" mask="url(#path-3-outside-1)"/>
<path d="M104.352 39.7365C101.833 39.6724 103.427 46.8862 104.539 50.5011C104.975 52.0255 106.167 60.9313 106.589 62.9827C107.011 65.0341 108.489 73.9764 107.982 78.6013C107.476 83.2263 109.06 84.6579 110.534 83.1186C112.007 81.5792 110.526 79.8719 110.227 76.8033C109.927 73.7347 107.593 57.6283 106.573 52.9645C105.553 48.3007 107.5 39.8166 104.352 39.7365Z" stroke="#442B48" stroke-width="5.64601" mask="url(#path-3-outside-1)"/>
<path d="M30.5268 -33.7501C28.008 -33.8142 29.6021 -26.6004 30.714 -22.9855C31.1503 -21.4612 32.3423 -12.5553 32.7644 -10.5039C33.1865 -8.45254 34.664 0.489722 34.1574 5.11469C33.6509 9.73965 35.2353 11.1713 36.7089 9.63193C38.1825 8.09256 36.7009 6.38524 36.4018 3.31664C36.1026 0.24805 33.768 -15.8583 32.748 -20.5221C31.728 -25.1859 33.6752 -33.67 30.5268 -33.7501Z" stroke="#442B48" stroke-width="5.64601" mask="url(#path-3-outside-1)"/>
<path d="M76.7031 12.2263C74.1844 12.1622 75.7785 19.376 76.8904 22.9909C77.3266 24.5153 78.5187 33.4211 78.9408 35.4725C79.3628 37.5239 80.8403 46.4662 80.3338 51.0911C79.8272 55.7161 81.4117 57.1478 82.8853 55.6084C84.3588 54.069 82.8773 52.3617 82.5781 49.2931C82.2789 46.2245 79.9443 30.1181 78.9243 25.4543C77.9044 20.7905 79.8516 12.3064 76.7031 12.2263Z" stroke="#442B48" stroke-width="5.64601" mask="url(#path-3-outside-1)"/>
<path d="M113.843 48.8827C111.325 48.8186 112.919 56.0324 114.031 59.6472C114.467 61.1716 115.659 70.0775 116.081 72.1289C116.503 74.1802 117.98 83.1225 117.474 87.7475C116.967 92.3724 118.552 93.8041 120.025 92.2647C121.499 90.7253 120.017 89.018 119.718 85.9494C119.419 82.8808 117.084 66.7745 116.065 62.1107C115.045 57.4469 116.992 48.9628 113.843 48.8827Z" stroke="#442B48" stroke-width="5.64601" mask="url(#path-3-outside-1)"/>
<path d="M40.0185 -24.604C37.4997 -24.668 39.0938 -17.4543 40.2057 -13.8394C40.642 -12.315 41.834 -3.40917 42.2561 -1.35778C42.6782 0.693615 44.1557 9.63588 43.6491 14.2608C43.1426 18.8858 44.727 20.3175 46.2006 18.7781C47.6742 17.2387 46.1927 15.5314 45.8935 12.4628C45.5943 9.39421 43.2597 -6.71215 42.2397 -11.376C41.2197 -16.0398 43.1669 -24.5239 40.0185 -24.604Z" stroke="#442B48" stroke-width="5.64601" mask="url(#path-3-outside-1)"/>
<mask id="path-4-outside-2" maskUnits="userSpaceOnUse" x="113.511" y="-58.2003" width="158.918" height="155.012" fill="black">
<rect fill="white" x="113.511" y="-58.2003" width="158.918" height="155.012"/>
<path d="M170.527 -12.287C171.024 -16.1547 174.407 -18.1949 173.795 -16.0468C173.183 -13.8986 178.854 9.13851 177.744 12.3345C176.635 15.5305 174.546 17.0241 174.774 15.6386C175.002 14.253 170.03 -8.41926 170.527 -12.287Z"/>
<path d="M179.594 -2.84964C180.091 -6.71737 183.475 -8.75752 182.862 -6.60939C182.25 -4.46126 187.921 18.5759 186.811 21.7718C185.702 24.9678 183.613 26.4615 183.841 25.0759C184.069 23.6904 179.098 1.01809 179.594 -2.84964Z"/>
<path d="M216.734 33.8067C217.231 29.939 220.615 27.8988 220.003 30.047C219.391 32.1951 225.061 55.2322 223.951 58.4282C222.842 61.6242 220.753 63.1178 220.981 61.7323C221.21 60.3467 216.238 37.6744 216.734 33.8067Z"/>
<path d="M142.91 -39.6799C143.406 -43.5476 146.79 -45.5878 146.178 -43.4397C145.566 -41.2915 151.236 -18.2544 150.127 -15.0584C149.017 -11.8625 146.928 -10.3688 147.157 -11.7544C147.385 -13.1399 142.413 -35.8122 142.91 -39.6799Z"/>
<path d="M188.641 6.37795C189.138 2.51022 192.521 0.470068 191.909 2.6182C191.297 4.76633 196.967 27.8035 195.858 30.9994C194.748 34.1954 192.659 35.6891 192.888 34.3035C193.116 32.918 188.144 10.2457 188.641 6.37795Z"/>
<path d="M225.781 43.0343C226.278 39.1666 229.661 37.1264 229.049 39.2745C228.437 41.4227 234.107 64.4598 232.998 67.6558C231.888 70.8518 229.8 72.3454 230.028 70.9599C230.256 69.5743 225.284 46.902 225.781 43.0343Z"/>
<path d="M151.956 -30.4523C152.453 -34.3201 155.837 -36.3602 155.224 -34.2121C154.612 -32.064 160.283 -9.02682 159.173 -5.83084C158.064 -2.63487 155.975 -1.14122 156.203 -2.52677C156.431 -3.91232 151.46 -26.5846 151.956 -30.4523Z"/>
<path d="M197.751 15.5144C198.248 11.6467 201.631 9.60651 201.019 11.7546C200.407 13.9028 206.077 36.9399 204.968 40.1359C203.858 43.3319 201.77 44.8255 201.998 43.44C202.226 42.0544 197.254 19.3821 197.751 15.5144Z"/>
<path d="M234.891 52.1708C235.388 48.303 238.771 46.2629 238.159 48.411C237.547 50.5591 243.218 73.5963 242.108 76.7922C240.998 79.9882 238.91 81.4819 239.138 80.0963C239.366 78.7108 234.394 56.0385 234.891 52.1708Z"/>
<path d="M161.066 -21.3159C161.563 -25.1836 164.947 -27.2238 164.335 -25.0756C163.723 -22.9275 169.393 0.109626 168.283 3.3056C167.174 6.50158 165.085 7.99523 165.313 6.60968C165.542 5.22413 160.57 -17.4481 161.066 -21.3159Z"/>
<path d="M207.243 24.6606C207.74 20.7928 211.123 18.7527 210.511 20.9008C209.899 23.0489 215.569 46.0861 214.46 49.282C213.35 52.478 211.261 53.9717 211.49 52.5861C211.718 51.2006 206.746 28.5283 207.243 24.6606Z"/>
<path d="M244.383 61.3169C244.88 57.4492 248.263 55.409 247.651 57.5572C247.039 59.7053 252.709 82.7424 251.6 85.9384C250.49 89.1344 248.401 90.628 248.63 89.2425C248.858 87.8569 243.886 65.1846 244.383 61.3169Z"/>
<path d="M180.933 -7.1568C178.926 -6.39158 178.613 -8.48348 178.708 -9.62508C179.117 -10.635 181.01 -10.0303 181.786 -10.4743C182.561 -10.9184 183.441 -8.11331 180.933 -7.1568Z"/>
<path d="M218.073 29.4996C216.066 30.2648 215.753 28.1729 215.848 27.0313C216.257 26.0214 218.15 26.6261 218.926 26.182C219.702 25.738 220.581 28.543 218.073 29.4996Z"/>
<path d="M144.248 -43.9871C142.241 -43.2219 141.929 -45.3138 142.023 -46.4554C142.432 -47.4653 144.325 -46.8606 145.101 -47.3046C145.877 -47.7487 146.756 -44.9436 144.248 -43.9871Z"/>
<path d="M189.979 2.0708C187.973 2.83601 187.66 0.744113 187.754 -0.397488C188.163 -1.4074 190.057 -0.802702 190.832 -1.24675C191.608 -1.6908 192.487 1.11428 189.979 2.0708Z"/>
<path d="M227.119 38.7271C225.113 39.4924 224.8 37.4005 224.894 36.2589C225.304 35.249 227.197 35.8536 227.973 35.4096C228.748 34.9656 229.627 37.7706 227.119 38.7271Z"/>
<path d="M153.295 -34.7595C151.288 -33.9943 150.975 -36.0862 151.07 -37.2278C151.479 -38.2377 153.372 -37.633 154.148 -38.077C154.923 -38.5211 155.803 -35.716 153.295 -34.7595Z"/>
<path d="M199.089 11.2072C197.083 11.9725 196.77 9.88056 196.864 8.73896C197.274 7.72905 199.167 8.33375 199.942 7.8897C200.718 7.44565 201.597 10.2507 199.089 11.2072Z"/>
<path d="M236.229 47.8636C234.223 48.6288 233.91 46.5369 234.005 45.3953C234.414 44.3854 236.307 44.9901 237.083 44.5461C237.858 44.102 238.737 46.9071 236.229 47.8636Z"/>
<path d="M162.405 -25.623C160.398 -24.8578 160.085 -26.9497 160.18 -28.0913C160.589 -29.1012 162.482 -28.4965 163.258 -28.9406C164.034 -29.3846 164.913 -26.5796 162.405 -25.623Z"/>
<path d="M208.581 20.3534C206.574 21.1186 206.262 19.0267 206.356 17.8851C206.765 16.8752 208.658 17.4799 209.434 17.0359C210.21 16.5918 211.089 19.3969 208.581 20.3534Z"/>
<path d="M245.721 57.0098C243.715 57.775 243.402 55.6831 243.496 54.5415C243.905 53.5316 245.799 54.1363 246.574 53.6922C247.35 53.2482 248.229 56.0532 245.721 57.0098Z"/>
<path d="M171.896 -16.4769C169.89 -15.7117 169.577 -17.8036 169.671 -18.9452C170.081 -19.9551 171.974 -19.3504 172.75 -19.7944C173.525 -20.2385 174.404 -17.4334 171.896 -16.4769Z"/>
<path d="M178.035 19.4771C180.018 18.5071 178.651 16.8592 177.72 16.1566C176.669 15.7764 175.803 17.5896 174.924 17.8644C174.046 18.1391 175.556 20.6896 178.035 19.4771Z"/>
<path d="M215.175 56.1334C217.158 55.1634 215.791 53.5156 214.86 52.8129C213.809 52.4328 212.944 54.246 212.065 54.5207C211.186 54.7955 212.697 57.346 215.175 56.1334Z"/>
<path d="M141.35 -17.3532C143.333 -18.3232 141.967 -19.971 141.036 -20.6737C139.984 -21.0538 139.119 -19.2406 138.24 -18.9659C137.361 -18.6912 138.872 -16.1407 141.35 -17.3532Z"/>
<path d="M187.081 28.7047C189.064 27.7347 187.698 26.0868 186.767 25.3842C185.716 25.004 184.85 26.8172 183.971 27.092C183.092 27.3667 184.603 29.9172 187.081 28.7047Z"/>
<path d="M224.222 65.361C226.204 64.391 224.838 62.7432 223.907 62.0405C222.856 61.6604 221.99 63.4736 221.111 63.7483C220.232 64.0231 221.743 66.5736 224.222 65.361Z"/>
<path d="M150.397 -8.1256C152.38 -9.09563 151.013 -10.7434 150.082 -11.4461C149.031 -11.8263 148.165 -10.013 147.286 -9.73831C146.408 -9.46357 147.918 -6.91308 150.397 -8.1256Z"/>
<path d="M196.192 37.8411C198.174 36.8711 196.808 35.2233 195.877 34.5206C194.826 34.1405 193.96 35.9537 193.081 36.2284C192.202 36.5032 193.713 39.0537 196.192 37.8411Z"/>
<path d="M233.332 74.4975C235.314 73.5275 233.948 71.8796 233.017 71.177C231.966 70.7968 231.1 72.61 230.221 72.8848C229.342 73.1595 230.853 75.71 233.332 74.4975Z"/>
<path d="M159.507 1.01084C161.49 0.0408237 160.123 -1.60699 159.192 -2.30965C158.141 -2.68981 157.275 -0.876602 156.397 -0.601862C155.518 -0.327122 157.028 2.22337 159.507 1.01084Z"/>
<path d="M205.683 46.9873C207.666 46.0173 206.3 44.3694 205.369 43.6668C204.317 43.2866 203.452 45.0998 202.573 45.3746C201.694 45.6493 203.205 48.1998 205.683 46.9873Z"/>
<path d="M242.823 83.6436C244.806 82.6736 243.44 81.0258 242.509 80.3231C241.457 79.943 240.592 81.7562 239.713 82.0309C238.834 82.3057 240.345 84.8562 242.823 83.6436Z"/>
<path d="M168.999 10.157C170.981 9.18698 169.615 7.53917 168.684 6.83651C167.633 6.45635 166.767 8.26956 165.888 8.5443C165.009 8.81904 166.52 11.3695 168.999 10.157Z"/>
<path d="M176.028 -16.7017C173.509 -16.7658 175.103 -9.55204 176.215 -5.93715C176.651 -4.41279 177.843 4.49306 178.265 6.54446C178.687 8.59585 180.165 17.5381 179.658 22.1631C179.152 26.788 180.736 28.2197 182.21 26.6803C183.683 25.1409 182.202 23.4336 181.903 20.365C181.603 17.2964 179.269 1.19008 178.249 -3.47372C177.229 -8.13752 179.176 -16.6216 176.028 -16.7017Z"/>
<path d="M213.168 19.9546C210.649 19.8905 212.243 27.1043 213.355 30.7192C213.791 32.2436 214.983 41.1494 215.405 43.2008C215.828 45.2522 217.305 54.1945 216.798 58.8194C216.292 63.4444 217.876 64.8761 219.35 63.3367C220.824 61.7973 219.342 60.09 219.043 57.0214C218.744 53.9528 216.409 37.8464 215.389 33.1826C214.369 28.5188 216.316 20.0347 213.168 19.9546Z"/>
<path d="M139.343 -53.532C136.824 -53.5961 138.418 -46.3823 139.53 -42.7674C139.967 -41.2431 141.159 -32.3372 141.581 -30.2858C142.003 -28.2344 143.48 -19.2922 142.974 -14.6672C142.467 -10.0422 144.052 -8.61057 145.525 -10.1499C146.999 -11.6893 145.517 -13.3966 145.218 -16.4652C144.919 -19.5338 142.584 -35.6402 141.564 -40.304C140.544 -44.9678 142.491 -53.4519 139.343 -53.532Z"/>
<path d="M185.074 -7.47414C182.556 -7.53822 184.15 -0.324452 185.262 3.29044C185.698 4.8148 186.89 13.7207 187.312 15.772C187.734 17.8234 189.211 26.7657 188.705 31.3907C188.198 36.0156 189.783 37.4473 191.256 35.9079C192.73 34.3685 191.248 32.6612 190.949 29.5926C190.65 26.524 188.315 10.4177 187.295 5.75387C186.276 1.09007 188.223 -7.39403 185.074 -7.47414Z"/>
<path d="M222.214 29.1822C219.696 29.1181 221.29 36.3319 222.402 39.9468C222.838 41.4712 224.03 50.377 224.452 52.4284C224.874 54.4798 226.352 63.4221 225.845 68.047C225.339 72.672 226.923 74.1036 228.397 72.5643C229.87 71.0249 228.389 69.3176 228.089 66.249C227.79 63.1804 225.456 47.074 224.436 42.4102C223.416 37.7464 225.363 29.2623 222.214 29.1822Z"/>
<path d="M148.39 -44.3044C145.871 -44.3685 147.465 -37.1547 148.577 -33.5398C149.013 -32.0155 150.205 -23.1096 150.627 -21.0582C151.049 -19.0068 152.527 -10.0646 152.02 -5.43961C151.514 -0.814646 153.098 0.617021 154.572 -0.922359C156.045 -2.46174 154.564 -4.16906 154.265 -7.23765C153.965 -10.3062 151.631 -26.4126 150.611 -31.0764C149.591 -35.7402 151.538 -44.2243 148.39 -44.3044Z"/>
<path d="M194.184 1.66231C191.666 1.59823 193.26 8.81199 194.372 12.4269C194.808 13.9512 196 22.8571 196.422 24.9085C196.844 26.9599 198.322 35.9021 197.815 40.5271C197.308 45.1521 198.893 46.5837 200.366 45.0444C201.84 43.505 200.359 41.7977 200.059 38.7291C199.76 35.6605 197.426 19.5541 196.406 14.8903C195.386 10.2265 197.333 1.74241 194.184 1.66231Z"/>
<path d="M231.325 38.3187C228.806 38.2546 230.4 45.4683 231.512 49.0832C231.948 50.6076 233.14 59.5135 233.562 61.5649C233.984 63.6162 235.462 72.5585 234.955 77.1835C234.449 81.8084 236.033 83.2401 237.507 81.7007C238.98 80.1613 237.499 78.454 237.2 75.3854C236.9 72.3168 234.566 56.2105 233.546 51.5467C232.526 46.8829 234.473 38.3988 231.325 38.3187Z"/>
<path d="M157.5 -35.168C154.981 -35.232 156.575 -28.0183 157.687 -24.4034C158.123 -22.879 159.315 -13.9732 159.737 -11.9218C160.159 -9.87039 161.637 -0.928125 161.13 3.69684C160.624 8.3218 162.208 9.75347 163.682 8.21409C165.155 6.67471 163.674 4.96739 163.375 1.8988C163.076 -1.1698 160.741 -17.2762 159.721 -21.94C158.701 -26.6038 160.648 -35.0879 157.5 -35.168Z"/>
<path d="M203.676 10.8085C201.157 10.7444 202.751 17.9582 203.863 21.573C204.3 23.0974 205.492 32.0033 205.914 34.0547C206.336 36.106 207.813 45.0483 207.307 49.6733C206.8 54.2982 208.385 55.7299 209.858 54.1905C211.332 52.6511 209.85 50.9438 209.551 47.8752C209.252 44.8066 206.917 28.7003 205.897 24.0365C204.877 19.3727 206.825 10.8886 203.676 10.8085Z"/>
<path d="M240.816 47.4648C238.297 47.4007 239.892 54.6145 241.003 58.2294C241.44 59.7538 242.632 68.6596 243.054 70.711C243.476 72.7624 244.953 81.7047 244.447 86.3296C243.94 90.9546 245.525 92.3863 246.998 90.8469C248.472 89.3075 246.99 87.6002 246.691 84.5316C246.392 81.463 244.057 65.3566 243.037 60.6928C242.017 56.029 243.965 47.5449 240.816 47.4648Z"/>
<path d="M166.991 -26.0218C164.473 -26.0859 166.067 -18.8721 167.179 -15.2572C167.615 -13.7329 168.807 -4.82702 169.229 -2.77562C169.651 -0.724232 171.129 8.21803 170.622 12.843C170.116 17.468 171.7 18.8996 173.174 17.3602C174.647 15.8209 173.166 14.1135 172.866 11.045C172.567 7.97636 170.233 -8.13 169.213 -12.7938C168.193 -17.4576 170.14 -25.9417 166.991 -26.0218Z"/>
</mask>
<path d="M170.527 -12.287C171.024 -16.1547 174.407 -18.1949 173.795 -16.0468C173.183 -13.8986 178.854 9.13851 177.744 12.3345C176.635 15.5305 174.546 17.0241 174.774 15.6386C175.002 14.253 170.03 -8.41926 170.527 -12.287Z" fill="#B37BA4" fill-opacity="0.3"/>
<path d="M179.594 -2.84964C180.091 -6.71737 183.475 -8.75752 182.862 -6.60939C182.25 -4.46126 187.921 18.5759 186.811 21.7718C185.702 24.9678 183.613 26.4615 183.841 25.0759C184.069 23.6904 179.098 1.01809 179.594 -2.84964Z" fill="#B37BA4" fill-opacity="0.3"/>
<path d="M216.734 33.8067C217.231 29.939 220.615 27.8988 220.003 30.047C219.391 32.1951 225.061 55.2322 223.951 58.4282C222.842 61.6242 220.753 63.1178 220.981 61.7323C221.21 60.3467 216.238 37.6744 216.734 33.8067Z" fill="#B37BA4" fill-opacity="0.3"/>
<path d="M142.91 -39.6799C143.406 -43.5476 146.79 -45.5878 146.178 -43.4397C145.566 -41.2915 151.236 -18.2544 150.127 -15.0584C149.017 -11.8625 146.928 -10.3688 147.157 -11.7544C147.385 -13.1399 142.413 -35.8122 142.91 -39.6799Z" fill="#B37BA4" fill-opacity="0.3"/>
<path d="M188.641 6.37795C189.138 2.51022 192.521 0.470068 191.909 2.6182C191.297 4.76633 196.967 27.8035 195.858 30.9994C194.748 34.1954 192.659 35.6891 192.888 34.3035C193.116 32.918 188.144 10.2457 188.641 6.37795Z" fill="#B37BA4" fill-opacity="0.3"/>
<path d="M225.781 43.0343C226.278 39.1666 229.661 37.1264 229.049 39.2745C228.437 41.4227 234.107 64.4598 232.998 67.6558C231.888 70.8518 229.8 72.3454 230.028 70.9599C230.256 69.5743 225.284 46.902 225.781 43.0343Z" fill="#B37BA4" fill-opacity="0.3"/>
<path d="M151.956 -30.4523C152.453 -34.3201 155.837 -36.3602 155.224 -34.2121C154.612 -32.064 160.283 -9.02682 159.173 -5.83084C158.064 -2.63487 155.975 -1.14122 156.203 -2.52677C156.431 -3.91232 151.46 -26.5846 151.956 -30.4523Z" fill="#B37BA4" fill-opacity="0.3"/>
<path d="M197.751 15.5144C198.248 11.6467 201.631 9.60651 201.019 11.7546C200.407 13.9028 206.077 36.9399 204.968 40.1359C203.858 43.3319 201.77 44.8255 201.998 43.44C202.226 42.0544 197.254 19.3821 197.751 15.5144Z" fill="#B37BA4" fill-opacity="0.3"/>
<path d="M234.891 52.1708C235.388 48.303 238.771 46.2629 238.159 48.411C237.547 50.5591 243.218 73.5963 242.108 76.7922C240.998 79.9882 238.91 81.4819 239.138 80.0963C239.366 78.7108 234.394 56.0385 234.891 52.1708Z" fill="#B37BA4" fill-opacity="0.3"/>
<path d="M161.066 -21.3159C161.563 -25.1836 164.947 -27.2238 164.335 -25.0756C163.723 -22.9275 169.393 0.109626 168.283 3.3056C167.174 6.50158 165.085 7.99523 165.313 6.60968C165.542 5.22413 160.57 -17.4481 161.066 -21.3159Z" fill="#B37BA4" fill-opacity="0.3"/>
<path d="M207.243 24.6606C207.74 20.7928 211.123 18.7527 210.511 20.9008C209.899 23.0489 215.569 46.0861 214.46 49.282C213.35 52.478 211.261 53.9717 211.49 52.5861C211.718 51.2006 206.746 28.5283 207.243 24.6606Z" fill="#B37BA4" fill-opacity="0.3"/>
<path d="M244.383 61.3169C244.88 57.4492 248.263 55.409 247.651 57.5572C247.039 59.7053 252.709 82.7424 251.6 85.9384C250.49 89.1344 248.401 90.628 248.63 89.2425C248.858 87.8569 243.886 65.1846 244.383 61.3169Z" fill="#B37BA4" fill-opacity="0.3"/>
<path d="M180.933 -7.1568C178.926 -6.39158 178.613 -8.48348 178.708 -9.62508C179.117 -10.635 181.01 -10.0303 181.786 -10.4743C182.561 -10.9184 183.441 -8.11331 180.933 -7.1568Z" fill="#B37BA4" fill-opacity="0.3"/>
<path d="M218.073 29.4996C216.066 30.2648 215.753 28.1729 215.848 27.0313C216.257 26.0214 218.15 26.6261 218.926 26.182C219.702 25.738 220.581 28.543 218.073 29.4996Z" fill="#B37BA4" fill-opacity="0.3"/>
<path d="M144.248 -43.9871C142.241 -43.2219 141.929 -45.3138 142.023 -46.4554C142.432 -47.4653 144.325 -46.8606 145.101 -47.3046C145.877 -47.7487 146.756 -44.9436 144.248 -43.9871Z" fill="#B37BA4" fill-opacity="0.3"/>
<path d="M189.979 2.0708C187.973 2.83601 187.66 0.744113 187.754 -0.397488C188.163 -1.4074 190.057 -0.802702 190.832 -1.24675C191.608 -1.6908 192.487 1.11428 189.979 2.0708Z" fill="#B37BA4" fill-opacity="0.3"/>
<path d="M227.119 38.7271C225.113 39.4924 224.8 37.4005 224.894 36.2589C225.304 35.249 227.197 35.8536 227.973 35.4096C228.748 34.9656 229.627 37.7706 227.119 38.7271Z" fill="#B37BA4" fill-opacity="0.3"/>
<path d="M153.295 -34.7595C151.288 -33.9943 150.975 -36.0862 151.07 -37.2278C151.479 -38.2377 153.372 -37.633 154.148 -38.077C154.923 -38.5211 155.803 -35.716 153.295 -34.7595Z" fill="#B37BA4" fill-opacity="0.3"/>
<path d="M199.089 11.2072C197.083 11.9725 196.77 9.88056 196.864 8.73896C197.274 7.72905 199.167 8.33375 199.942 7.8897C200.718 7.44565 201.597 10.2507 199.089 11.2072Z" fill="#B37BA4" fill-opacity="0.3"/>
<path d="M236.229 47.8636C234.223 48.6288 233.91 46.5369 234.005 45.3953C234.414 44.3854 236.307 44.9901 237.083 44.5461C237.858 44.102 238.737 46.9071 236.229 47.8636Z" fill="#B37BA4" fill-opacity="0.3"/>
<path d="M162.405 -25.623C160.398 -24.8578 160.085 -26.9497 160.18 -28.0913C160.589 -29.1012 162.482 -28.4965 163.258 -28.9406C164.034 -29.3846 164.913 -26.5796 162.405 -25.623Z" fill="#B37BA4" fill-opacity="0.3"/>
<path d="M208.581 20.3534C206.574 21.1186 206.262 19.0267 206.356 17.8851C206.765 16.8752 208.658 17.4799 209.434 17.0359C210.21 16.5918 211.089 19.3969 208.581 20.3534Z" fill="#B37BA4" fill-opacity="0.3"/>
<path d="M245.721 57.0098C243.715 57.775 243.402 55.6831 243.496 54.5415C243.905 53.5316 245.799 54.1363 246.574 53.6922C247.35 53.2482 248.229 56.0532 245.721 57.0098Z" fill="#B37BA4" fill-opacity="0.3"/>
<path d="M171.896 -16.4769C169.89 -15.7117 169.577 -17.8036 169.671 -18.9452C170.081 -19.9551 171.974 -19.3504 172.75 -19.7944C173.525 -20.2385 174.404 -17.4334 171.896 -16.4769Z" fill="#B37BA4" fill-opacity="0.3"/>
<path d="M178.035 19.4771C180.018 18.5071 178.651 16.8592 177.72 16.1566C176.669 15.7764 175.803 17.5896 174.924 17.8644C174.046 18.1391 175.556 20.6896 178.035 19.4771Z" fill="#B37BA4" fill-opacity="0.3"/>
<path d="M215.175 56.1334C217.158 55.1634 215.791 53.5156 214.86 52.8129C213.809 52.4328 212.944 54.246 212.065 54.5207C211.186 54.7955 212.697 57.346 215.175 56.1334Z" fill="#B37BA4" fill-opacity="0.3"/>
<path d="M141.35 -17.3532C143.333 -18.3232 141.967 -19.971 141.036 -20.6737C139.984 -21.0538 139.119 -19.2406 138.24 -18.9659C137.361 -18.6912 138.872 -16.1407 141.35 -17.3532Z" fill="#B37BA4" fill-opacity="0.3"/>
<path d="M187.081 28.7047C189.064 27.7347 187.698 26.0868 186.767 25.3842C185.716 25.004 184.85 26.8172 183.971 27.092C183.092 27.3667 184.603 29.9172 187.081 28.7047Z" fill="#B37BA4" fill-opacity="0.3"/>
<path d="M224.222 65.361C226.204 64.391 224.838 62.7432 223.907 62.0405C222.856 61.6604 221.99 63.4736 221.111 63.7483C220.232 64.0231 221.743 66.5736 224.222 65.361Z" fill="#B37BA4" fill-opacity="0.3"/>
<path d="M150.397 -8.1256C152.38 -9.09563 151.013 -10.7434 150.082 -11.4461C149.031 -11.8263 148.165 -10.013 147.286 -9.73831C146.408 -9.46357 147.918 -6.91308 150.397 -8.1256Z" fill="#B37BA4" fill-opacity="0.3"/>
<path d="M196.192 37.8411C198.174 36.8711 196.808 35.2233 195.877 34.5206C194.826 34.1405 193.96 35.9537 193.081 36.2284C192.202 36.5032 193.713 39.0537 196.192 37.8411Z" fill="#B37BA4" fill-opacity="0.3"/>
<path d="M233.332 74.4975C235.314 73.5275 233.948 71.8796 233.017 71.177C231.966 70.7968 231.1 72.61 230.221 72.8848C229.342 73.1595 230.853 75.71 233.332 74.4975Z" fill="#B37BA4" fill-opacity="0.3"/>
<path d="M159.507 1.01084C161.49 0.0408237 160.123 -1.60699 159.192 -2.30965C158.141 -2.68981 157.275 -0.876602 156.397 -0.601862C155.518 -0.327122 157.028 2.22337 159.507 1.01084Z" fill="#B37BA4" fill-opacity="0.3"/>
<path d="M205.683 46.9873C207.666 46.0173 206.3 44.3694 205.369 43.6668C204.317 43.2866 203.452 45.0998 202.573 45.3746C201.694 45.6493 203.205 48.1998 205.683 46.9873Z" fill="#B37BA4" fill-opacity="0.3"/>
<path d="M242.823 83.6436C244.806 82.6736 243.44 81.0258 242.509 80.3231C241.457 79.943 240.592 81.7562 239.713 82.0309C238.834 82.3057 240.345 84.8562 242.823 83.6436Z" fill="#B37BA4" fill-opacity="0.3"/>
<path d="M168.999 10.157C170.981 9.18698 169.615 7.53917 168.684 6.83651C167.633 6.45635 166.767 8.26956 165.888 8.5443C165.009 8.81904 166.52 11.3695 168.999 10.157Z" fill="#B37BA4" fill-opacity="0.3"/>
<path d="M176.028 -16.7017C173.509 -16.7658 175.103 -9.55204 176.215 -5.93715C176.651 -4.41279 177.843 4.49306 178.265 6.54446C178.687 8.59585 180.165 17.5381 179.658 22.1631C179.152 26.788 180.736 28.2197 182.21 26.6803C183.683 25.1409 182.202 23.4336 181.903 20.365C181.603 17.2964 179.269 1.19008 178.249 -3.47372C177.229 -8.13752 179.176 -16.6216 176.028 -16.7017Z" fill="#B37BA4" fill-opacity="0.3"/>
<path d="M213.168 19.9546C210.649 19.8905 212.243 27.1043 213.355 30.7192C213.791 32.2436 214.983 41.1494 215.405 43.2008C215.828 45.2522 217.305 54.1945 216.798 58.8194C216.292 63.4444 217.876 64.8761 219.35 63.3367C220.824 61.7973 219.342 60.09 219.043 57.0214C218.744 53.9528 216.409 37.8464 215.389 33.1826C214.369 28.5188 216.316 20.0347 213.168 19.9546Z" fill="#B37BA4" fill-opacity="0.3"/>
<path d="M139.343 -53.532C136.824 -53.5961 138.418 -46.3823 139.53 -42.7674C139.967 -41.2431 141.159 -32.3372 141.581 -30.2858C142.003 -28.2344 143.48 -19.2922 142.974 -14.6672C142.467 -10.0422 144.052 -8.61057 145.525 -10.1499C146.999 -11.6893 145.517 -13.3966 145.218 -16.4652C144.919 -19.5338 142.584 -35.6402 141.564 -40.304C140.544 -44.9678 142.491 -53.4519 139.343 -53.532Z" fill="#B37BA4" fill-opacity="0.3"/>
<path d="M185.074 -7.47414C182.556 -7.53822 184.15 -0.324452 185.262 3.29044C185.698 4.8148 186.89 13.7207 187.312 15.772C187.734 17.8234 189.211 26.7657 188.705 31.3907C188.198 36.0156 189.783 37.4473 191.256 35.9079C192.73 34.3685 191.248 32.6612 190.949 29.5926C190.65 26.524 188.315 10.4177 187.295 5.75387C186.276 1.09007 188.223 -7.39403 185.074 -7.47414Z" fill="#B37BA4" fill-opacity="0.3"/>
<path d="M222.214 29.1822C219.696 29.1181 221.29 36.3319 222.402 39.9468C222.838 41.4712 224.03 50.377 224.452 52.4284C224.874 54.4798 226.352 63.4221 225.845 68.047C225.339 72.672 226.923 74.1036 228.397 72.5643C229.87 71.0249 228.389 69.3176 228.089 66.249C227.79 63.1804 225.456 47.074 224.436 42.4102C223.416 37.7464 225.363 29.2623 222.214 29.1822Z" fill="#B37BA4" fill-opacity="0.3"/>
<path d="M148.39 -44.3044C145.871 -44.3685 147.465 -37.1547 148.577 -33.5398C149.013 -32.0155 150.205 -23.1096 150.627 -21.0582C151.049 -19.0068 152.527 -10.0646 152.02 -5.43961C151.514 -0.814646 153.098 0.617021 154.572 -0.922359C156.045 -2.46174 154.564 -4.16906 154.265 -7.23765C153.965 -10.3062 151.631 -26.4126 150.611 -31.0764C149.591 -35.7402 151.538 -44.2243 148.39 -44.3044Z" fill="#B37BA4" fill-opacity="0.3"/>
<path d="M194.184 1.66231C191.666 1.59823 193.26 8.81199 194.372 12.4269C194.808 13.9512 196 22.8571 196.422 24.9085C196.844 26.9599 198.322 35.9021 197.815 40.5271C197.308 45.1521 198.893 46.5837 200.366 45.0444C201.84 43.505 200.359 41.7977 200.059 38.7291C199.76 35.6605 197.426 19.5541 196.406 14.8903C195.386 10.2265 197.333 1.74241 194.184 1.66231Z" fill="#B37BA4" fill-opacity="0.3"/>
<path d="M231.325 38.3187C228.806 38.2546 230.4 45.4683 231.512 49.0832C231.948 50.6076 233.14 59.5135 233.562 61.5649C233.984 63.6162 235.462 72.5585 234.955 77.1835C234.449 81.8084 236.033 83.2401 237.507 81.7007C238.98 80.1613 237.499 78.454 237.2 75.3854C236.9 72.3168 234.566 56.2105 233.546 51.5467C232.526 46.8829 234.473 38.3988 231.325 38.3187Z" fill="#B37BA4" fill-opacity="0.3"/>
<path d="M157.5 -35.168C154.981 -35.232 156.575 -28.0183 157.687 -24.4034C158.123 -22.879 159.315 -13.9732 159.737 -11.9218C160.159 -9.87039 161.637 -0.928125 161.13 3.69684C160.624 8.3218 162.208 9.75347 163.682 8.21409C165.155 6.67471 163.674 4.96739 163.375 1.8988C163.076 -1.1698 160.741 -17.2762 159.721 -21.94C158.701 -26.6038 160.648 -35.0879 157.5 -35.168Z" fill="#B37BA4" fill-opacity="0.3"/>
<path d="M203.676 10.8085C201.157 10.7444 202.751 17.9582 203.863 21.573C204.3 23.0974 205.492 32.0033 205.914 34.0547C206.336 36.106 207.813 45.0483 207.307 49.6733C206.8 54.2982 208.385 55.7299 209.858 54.1905C211.332 52.6511 209.85 50.9438 209.551 47.8752C209.252 44.8066 206.917 28.7003 205.897 24.0365C204.877 19.3727 206.825 10.8886 203.676 10.8085Z" fill="#B37BA4" fill-opacity="0.3"/>
<path d="M240.816 47.4648C238.297 47.4007 239.892 54.6145 241.003 58.2294C241.44 59.7538 242.632 68.6596 243.054 70.711C243.476 72.7624 244.953 81.7047 244.447 86.3296C243.94 90.9546 245.525 92.3863 246.998 90.8469C248.472 89.3075 246.99 87.6002 246.691 84.5316C246.392 81.463 244.057 65.3566 243.037 60.6928C242.017 56.029 243.965 47.5449 240.816 47.4648Z" fill="#B37BA4" fill-opacity="0.3"/>
<path d="M166.991 -26.0218C164.473 -26.0859 166.067 -18.8721 167.179 -15.2572C167.615 -13.7329 168.807 -4.82702 169.229 -2.77562C169.651 -0.724232 171.129 8.21803 170.622 12.843C170.116 17.468 171.7 18.8996 173.174 17.3602C174.647 15.8209 173.166 14.1135 172.866 11.045C172.567 7.97636 170.233 -8.13 169.213 -12.7938C168.193 -17.4576 170.14 -25.9417 166.991 -26.0218Z" fill="#B37BA4" fill-opacity="0.3"/>
<path d="M170.527 -12.287C171.024 -16.1547 174.407 -18.1949 173.795 -16.0468C173.183 -13.8986 178.854 9.13851 177.744 12.3345C176.635 15.5305 174.546 17.0241 174.774 15.6386C175.002 14.253 170.03 -8.41926 170.527 -12.287Z" stroke="#442B48" stroke-width="5.64601" mask="url(#path-4-outside-2)"/>
<path d="M179.594 -2.84964C180.091 -6.71737 183.475 -8.75752 182.862 -6.60939C182.25 -4.46126 187.921 18.5759 186.811 21.7718C185.702 24.9678 183.613 26.4615 183.841 25.0759C184.069 23.6904 179.098 1.01809 179.594 -2.84964Z" stroke="#442B48" stroke-width="5.64601" mask="url(#path-4-outside-2)"/>
<path d="M216.734 33.8067C217.231 29.939 220.615 27.8988 220.003 30.047C219.391 32.1951 225.061 55.2322 223.951 58.4282C222.842 61.6242 220.753 63.1178 220.981 61.7323C221.21 60.3467 216.238 37.6744 216.734 33.8067Z" stroke="#442B48" stroke-width="5.64601" mask="url(#path-4-outside-2)"/>
<path d="M142.91 -39.6799C143.406 -43.5476 146.79 -45.5878 146.178 -43.4397C145.566 -41.2915 151.236 -18.2544 150.127 -15.0584C149.017 -11.8625 146.928 -10.3688 147.157 -11.7544C147.385 -13.1399 142.413 -35.8122 142.91 -39.6799Z" stroke="#442B48" stroke-width="5.64601" mask="url(#path-4-outside-2)"/>
<path d="M188.641 6.37795C189.138 2.51022 192.521 0.470068 191.909 2.6182C191.297 4.76633 196.967 27.8035 195.858 30.9994C194.748 34.1954 192.659 35.6891 192.888 34.3035C193.116 32.918 188.144 10.2457 188.641 6.37795Z" stroke="#442B48" stroke-width="5.64601" mask="url(#path-4-outside-2)"/>
<path d="M225.781 43.0343C226.278 39.1666 229.661 37.1264 229.049 39.2745C228.437 41.4227 234.107 64.4598 232.998 67.6558C231.888 70.8518 229.8 72.3454 230.028 70.9599C230.256 69.5743 225.284 46.902 225.781 43.0343Z" stroke="#442B48" stroke-width="5.64601" mask="url(#path-4-outside-2)"/>
<path d="M151.956 -30.4523C152.453 -34.3201 155.837 -36.3602 155.224 -34.2121C154.612 -32.064 160.283 -9.02682 159.173 -5.83084C158.064 -2.63487 155.975 -1.14122 156.203 -2.52677C156.431 -3.91232 151.46 -26.5846 151.956 -30.4523Z" stroke="#442B48" stroke-width="5.64601" mask="url(#path-4-outside-2)"/>
<path d="M197.751 15.5144C198.248 11.6467 201.631 9.60651 201.019 11.7546C200.407 13.9028 206.077 36.9399 204.968 40.1359C203.858 43.3319 201.77 44.8255 201.998 43.44C202.226 42.0544 197.254 19.3821 197.751 15.5144Z" stroke="#442B48" stroke-width="5.64601" mask="url(#path-4-outside-2)"/>
<path d="M234.891 52.1708C235.388 48.303 238.771 46.2629 238.159 48.411C237.547 50.5591 243.218 73.5963 242.108 76.7922C240.998 79.9882 238.91 81.4819 239.138 80.0963C239.366 78.7108 234.394 56.0385 234.891 52.1708Z" stroke="#442B48" stroke-width="5.64601" mask="url(#path-4-outside-2)"/>
<path d="M161.066 -21.3159C161.563 -25.1836 164.947 -27.2238 164.335 -25.0756C163.723 -22.9275 169.393 0.109626 168.283 3.3056C167.174 6.50158 165.085 7.99523 165.313 6.60968C165.542 5.22413 160.57 -17.4481 161.066 -21.3159Z" stroke="#442B48" stroke-width="5.64601" mask="url(#path-4-outside-2)"/>
<path d="M207.243 24.6606C207.74 20.7928 211.123 18.7527 210.511 20.9008C209.899 23.0489 215.569 46.0861 214.46 49.282C213.35 52.478 211.261 53.9717 211.49 52.5861C211.718 51.2006 206.746 28.5283 207.243 24.6606Z" stroke="#442B48" stroke-width="5.64601" mask="url(#path-4-outside-2)"/>
<path d="M244.383 61.3169C244.88 57.4492 248.263 55.409 247.651 57.5572C247.039 59.7053 252.709 82.7424 251.6 85.9384C250.49 89.1344 248.401 90.628 248.63 89.2425C248.858 87.8569 243.886 65.1846 244.383 61.3169Z" stroke="#442B48" stroke-width="5.64601" mask="url(#path-4-outside-2)"/>
<path d="M180.933 -7.1568C178.926 -6.39158 178.613 -8.48348 178.708 -9.62508C179.117 -10.635 181.01 -10.0303 181.786 -10.4743C182.561 -10.9184 183.441 -8.11331 180.933 -7.1568Z" stroke="#442B48" stroke-width="5.64601" mask="url(#path-4-outside-2)"/>
<path d="M218.073 29.4996C216.066 30.2648 215.753 28.1729 215.848 27.0313C216.257 26.0214 218.15 26.6261 218.926 26.182C219.702 25.738 220.581 28.543 218.073 29.4996Z" stroke="#442B48" stroke-width="5.64601" mask="url(#path-4-outside-2)"/>
<path d="M144.248 -43.9871C142.241 -43.2219 141.929 -45.3138 142.023 -46.4554C142.432 -47.4653 144.325 -46.8606 145.101 -47.3046C145.877 -47.7487 146.756 -44.9436 144.248 -43.9871Z" stroke="#442B48" stroke-width="5.64601" mask="url(#path-4-outside-2)"/>
<path d="M189.979 2.0708C187.973 2.83601 187.66 0.744113 187.754 -0.397488C188.163 -1.4074 190.057 -0.802702 190.832 -1.24675C191.608 -1.6908 192.487 1.11428 189.979 2.0708Z" stroke="#442B48" stroke-width="5.64601" mask="url(#path-4-outside-2)"/>
<path d="M227.119 38.7271C225.113 39.4924 224.8 37.4005 224.894 36.2589C225.304 35.249 227.197 35.8536 227.973 35.4096C228.748 34.9656 229.627 37.7706 227.119 38.7271Z" stroke="#442B48" stroke-width="5.64601" mask="url(#path-4-outside-2)"/>
<path d="M153.295 -34.7595C151.288 -33.9943 150.975 -36.0862 151.07 -37.2278C151.479 -38.2377 153.372 -37.633 154.148 -38.077C154.923 -38.5211 155.803 -35.716 153.295 -34.7595Z" stroke="#442B48" stroke-width="5.64601" mask="url(#path-4-outside-2)"/>
<path d="M199.089 11.2072C197.083 11.9725 196.77 9.88056 196.864 8.73896C197.274 7.72905 199.167 8.33375 199.942 7.8897C200.718 7.44565 201.597 10.2507 199.089 11.2072Z" stroke="#442B48" stroke-width="5.64601" mask="url(#path-4-outside-2)"/>
<path d="M236.229 47.8636C234.223 48.6288 233.91 46.5369 234.005 45.3953C234.414 44.3854 236.307 44.9901 237.083 44.5461C237.858 44.102 238.737 46.9071 236.229 47.8636Z" stroke="#442B48" stroke-width="5.64601" mask="url(#path-4-outside-2)"/>
<path d="M162.405 -25.623C160.398 -24.8578 160.085 -26.9497 160.18 -28.0913C160.589 -29.1012 162.482 -28.4965 163.258 -28.9406C164.034 -29.3846 164.913 -26.5796 162.405 -25.623Z" stroke="#442B48" stroke-width="5.64601" mask="url(#path-4-outside-2)"/>
<path d="M208.581 20.3534C206.574 21.1186 206.262 19.0267 206.356 17.8851C206.765 16.8752 208.658 17.4799 209.434 17.0359C210.21 16.5918 211.089 19.3969 208.581 20.3534Z" stroke="#442B48" stroke-width="5.64601" mask="url(#path-4-outside-2)"/>
<path d="M245.721 57.0098C243.715 57.775 243.402 55.6831 243.496 54.5415C243.905 53.5316 245.799 54.1363 246.574 53.6922C247.35 53.2482 248.229 56.0532 245.721 57.0098Z" stroke="#442B48" stroke-width="5.64601" mask="url(#path-4-outside-2)"/>
<path d="M171.896 -16.4769C169.89 -15.7117 169.577 -17.8036 169.671 -18.9452C170.081 -19.9551 171.974 -19.3504 172.75 -19.7944C173.525 -20.2385 174.404 -17.4334 171.896 -16.4769Z" stroke="#442B48" stroke-width="5.64601" mask="url(#path-4-outside-2)"/>
<path d="M178.035 19.4771C180.018 18.5071 178.651 16.8592 177.72 16.1566C176.669 15.7764 175.803 17.5896 174.924 17.8644C174.046 18.1391 175.556 20.6896 178.035 19.4771Z" stroke="#442B48" stroke-width="5.64601" mask="url(#path-4-outside-2)"/>
<path d="M215.175 56.1334C217.158 55.1634 215.791 53.5156 214.86 52.8129C213.809 52.4328 212.944 54.246 212.065 54.5207C211.186 54.7955 212.697 57.346 215.175 56.1334Z" stroke="#442B48" stroke-width="5.64601" mask="url(#path-4-outside-2)"/>
<path d="M141.35 -17.3532C143.333 -18.3232 141.967 -19.971 141.036 -20.6737C139.984 -21.0538 139.119 -19.2406 138.24 -18.9659C137.361 -18.6912 138.872 -16.1407 141.35 -17.3532Z" stroke="#442B48" stroke-width="5.64601" mask="url(#path-4-outside-2)"/>
<path d="M187.081 28.7047C189.064 27.7347 187.698 26.0868 186.767 25.3842C185.716 25.004 184.85 26.8172 183.971 27.092C183.092 27.3667 184.603 29.9172 187.081 28.7047Z" stroke="#442B48" stroke-width="5.64601" mask="url(#path-4-outside-2)"/>
<path d="M224.222 65.361C226.204 64.391 224.838 62.7432 223.907 62.0405C222.856 61.6604 221.99 63.4736 221.111 63.7483C220.232 64.0231 221.743 66.5736 224.222 65.361Z" stroke="#442B48" stroke-width="5.64601" mask="url(#path-4-outside-2)"/>
<path d="M150.397 -8.1256C152.38 -9.09563 151.013 -10.7434 150.082 -11.4461C149.031 -11.8263 148.165 -10.013 147.286 -9.73831C146.408 -9.46357 147.918 -6.91308 150.397 -8.1256Z" stroke="#442B48" stroke-width="5.64601" mask="url(#path-4-outside-2)"/>
<path d="M196.192 37.8411C198.174 36.8711 196.808 35.2233 195.877 34.5206C194.826 34.1405 193.96 35.9537 193.081 36.2284C192.202 36.5032 193.713 39.0537 196.192 37.8411Z" stroke="#442B48" stroke-width="5.64601" mask="url(#path-4-outside-2)"/>
<path d="M233.332 74.4975C235.314 73.5275 233.948 71.8796 233.017 71.177C231.966 70.7968 231.1 72.61 230.221 72.8848C229.342 73.1595 230.853 75.71 233.332 74.4975Z" stroke="#442B48" stroke-width="5.64601" mask="url(#path-4-outside-2)"/>
<path d="M159.507 1.01084C161.49 0.0408237 160.123 -1.60699 159.192 -2.30965C158.141 -2.68981 157.275 -0.876602 156.397 -0.601862C155.518 -0.327122 157.028 2.22337 159.507 1.01084Z" stroke="#442B48" stroke-width="5.64601" mask="url(#path-4-outside-2)"/>
<path d="M205.683 46.9873C207.666 46.0173 206.3 44.3694 205.369 43.6668C204.317 43.2866 203.452 45.0998 202.573 45.3746C201.694 45.6493 203.205 48.1998 205.683 46.9873Z" stroke="#442B48" stroke-width="5.64601" mask="url(#path-4-outside-2)"/>
<path d="M242.823 83.6436C244.806 82.6736 243.44 81.0258 242.509 80.3231C241.457 79.943 240.592 81.7562 239.713 82.0309C238.834 82.3057 240.345 84.8562 242.823 83.6436Z" stroke="#442B48" stroke-width="5.64601" mask="url(#path-4-outside-2)"/>
<path d="M168.999 10.157C170.981 9.18698 169.615 7.53917 168.684 6.83651C167.633 6.45635 166.767 8.26956 165.888 8.5443C165.009 8.81904 166.52 11.3695 168.999 10.157Z" stroke="#442B48" stroke-width="5.64601" mask="url(#path-4-outside-2)"/>
<path d="M176.028 -16.7017C173.509 -16.7658 175.103 -9.55204 176.215 -5.93715C176.651 -4.41279 177.843 4.49306 178.265 6.54446C178.687 8.59585 180.165 17.5381 179.658 22.1631C179.152 26.788 180.736 28.2197 182.21 26.6803C183.683 25.1409 182.202 23.4336 181.903 20.365C181.603 17.2964 179.269 1.19008 178.249 -3.47372C177.229 -8.13752 179.176 -16.6216 176.028 -16.7017Z" stroke="#442B48" stroke-width="5.64601" mask="url(#path-4-outside-2)"/>
<path d="M213.168 19.9546C210.649 19.8905 212.243 27.1043 213.355 30.7192C213.791 32.2436 214.983 41.1494 215.405 43.2008C215.828 45.2522 217.305 54.1945 216.798 58.8194C216.292 63.4444 217.876 64.8761 219.35 63.3367C220.824 61.7973 219.342 60.09 219.043 57.0214C218.744 53.9528 216.409 37.8464 215.389 33.1826C214.369 28.5188 216.316 20.0347 213.168 19.9546Z" stroke="#442B48" stroke-width="5.64601" mask="url(#path-4-outside-2)"/>
<path d="M139.343 -53.532C136.824 -53.5961 138.418 -46.3823 139.53 -42.7674C139.967 -41.2431 141.159 -32.3372 141.581 -30.2858C142.003 -28.2344 143.48 -19.2922 142.974 -14.6672C142.467 -10.0422 144.052 -8.61057 145.525 -10.1499C146.999 -11.6893 145.517 -13.3966 145.218 -16.4652C144.919 -19.5338 142.584 -35.6402 141.564 -40.304C140.544 -44.9678 142.491 -53.4519 139.343 -53.532Z" stroke="#442B48" stroke-width="5.64601" mask="url(#path-4-outside-2)"/>
<path d="M185.074 -7.47414C182.556 -7.53822 184.15 -0.324452 185.262 3.29044C185.698 4.8148 186.89 13.7207 187.312 15.772C187.734 17.8234 189.211 26.7657 188.705 31.3907C188.198 36.0156 189.783 37.4473 191.256 35.9079C192.73 34.3685 191.248 32.6612 190.949 29.5926C190.65 26.524 188.315 10.4177 187.295 5.75387C186.276 1.09007 188.223 -7.39403 185.074 -7.47414Z" stroke="#442B48" stroke-width="5.64601" mask="url(#path-4-outside-2)"/>
<path d="M222.214 29.1822C219.696 29.1181 221.29 36.3319 222.402 39.9468C222.838 41.4712 224.03 50.377 224.452 52.4284C224.874 54.4798 226.352 63.4221 225.845 68.047C225.339 72.672 226.923 74.1036 228.397 72.5643C229.87 71.0249 228.389 69.3176 228.089 66.249C227.79 63.1804 225.456 47.074 224.436 42.4102C223.416 37.7464 225.363 29.2623 222.214 29.1822Z" stroke="#442B48" stroke-width="5.64601" mask="url(#path-4-outside-2)"/>
<path d="M148.39 -44.3044C145.871 -44.3685 147.465 -37.1547 148.577 -33.5398C149.013 -32.0155 150.205 -23.1096 150.627 -21.0582C151.049 -19.0068 152.527 -10.0646 152.02 -5.43961C151.514 -0.814646 153.098 0.617021 154.572 -0.922359C156.045 -2.46174 154.564 -4.16906 154.265 -7.23765C153.965 -10.3062 151.631 -26.4126 150.611 -31.0764C149.591 -35.7402 151.538 -44.2243 148.39 -44.3044Z" stroke="#442B48" stroke-width="5.64601" mask="url(#path-4-outside-2)"/>
<path d="M194.184 1.66231C191.666 1.59823 193.26 8.81199 194.372 12.4269C194.808 13.9512 196 22.8571 196.422 24.9085C196.844 26.9599 198.322 35.9021 197.815 40.5271C197.308 45.1521 198.893 46.5837 200.366 45.0444C201.84 43.505 200.359 41.7977 200.059 38.7291C199.76 35.6605 197.426 19.5541 196.406 14.8903C195.386 10.2265 197.333 1.74241 194.184 1.66231Z" stroke="#442B48" stroke-width="5.64601" mask="url(#path-4-outside-2)"/>
<path d="M231.325 38.3187C228.806 38.2546 230.4 45.4683 231.512 49.0832C231.948 50.6076 233.14 59.5135 233.562 61.5649C233.984 63.6162 235.462 72.5585 234.955 77.1835C234.449 81.8084 236.033 83.2401 237.507 81.7007C238.98 80.1613 237.499 78.454 237.2 75.3854C236.9 72.3168 234.566 56.2105 233.546 51.5467C232.526 46.8829 234.473 38.3988 231.325 38.3187Z" stroke="#442B48" stroke-width="5.64601" mask="url(#path-4-outside-2)"/>
<path d="M157.5 -35.168C154.981 -35.232 156.575 -28.0183 157.687 -24.4034C158.123 -22.879 159.315 -13.9732 159.737 -11.9218C160.159 -9.87039 161.637 -0.928125 161.13 3.69684C160.624 8.3218 162.208 9.75347 163.682 8.21409C165.155 6.67471 163.674 4.96739 163.375 1.8988C163.076 -1.1698 160.741 -17.2762 159.721 -21.94C158.701 -26.6038 160.648 -35.0879 157.5 -35.168Z" stroke="#442B48" stroke-width="5.64601" mask="url(#path-4-outside-2)"/>
<path d="M203.676 10.8085C201.157 10.7444 202.751 17.9582 203.863 21.573C204.3 23.0974 205.492 32.0033 205.914 34.0547C206.336 36.106 207.813 45.0483 207.307 49.6733C206.8 54.2982 208.385 55.7299 209.858 54.1905C211.332 52.6511 209.85 50.9438 209.551 47.8752C209.252 44.8066 206.917 28.7003 205.897 24.0365C204.877 19.3727 206.825 10.8886 203.676 10.8085Z" stroke="#442B48" stroke-width="5.64601" mask="url(#path-4-outside-2)"/>
<path d="M240.816 47.4648C238.297 47.4007 239.892 54.6145 241.003 58.2294C241.44 59.7538 242.632 68.6596 243.054 70.711C243.476 72.7624 244.953 81.7047 244.447 86.3296C243.94 90.9546 245.525 92.3863 246.998 90.8469C248.472 89.3075 246.99 87.6002 246.691 84.5316C246.392 81.463 244.057 65.3566 243.037 60.6928C242.017 56.029 243.965 47.5449 240.816 47.4648Z" stroke="#442B48" stroke-width="5.64601" mask="url(#path-4-outside-2)"/>
<path d="M166.991 -26.0218C164.473 -26.0859 166.067 -18.8721 167.179 -15.2572C167.615 -13.7329 168.807 -4.82702 169.229 -2.77562C169.651 -0.724232 171.129 8.21803 170.622 12.843C170.116 17.468 171.7 18.8996 173.174 17.3602C174.647 15.8209 173.166 14.1135 172.866 11.045C172.567 7.97636 170.233 -8.13 169.213 -12.7938C168.193 -17.4576 170.14 -25.9417 166.991 -26.0218Z" stroke="#442B48" stroke-width="5.64601" mask="url(#path-4-outside-2)"/>
</g>
<path d="M68.2695 18.1839C69.7695 18.1839 70.3195 18.7589 70.3195 19.7589C70.3195 20.6589 69.6945 21.3339 68.3195 21.3339H64.8695V18.1839H68.2695ZM67.7695 12.3839C69.2195 12.3839 69.7945 12.9089 69.7945 13.9089C69.7945 15.0839 69.0945 15.5089 67.7195 15.5089H64.8695V12.3839H67.7695ZM61.2695 24.3589H68.5195C72.4195 24.3589 73.9695 22.6839 73.9695 20.2589C73.9695 18.2589 73.1945 17.1839 71.0945 16.7589V16.6839C72.5695 16.0839 73.3695 14.9589 73.3695 13.1839C73.3695 10.6339 71.6445 9.35889 67.8445 9.35889H61.2695V24.3589ZM79.5914 21.8589C78.2914 21.8589 77.8414 21.2839 77.8414 20.5589C77.8414 19.9089 78.4414 19.4589 79.4414 19.4589H81.9914V19.8089C81.9914 21.0089 81.0414 21.8589 79.5914 21.8589ZM81.9914 24.3589H85.3914V17.0089C85.3914 13.9839 83.8914 12.2339 80.2914 12.2339C76.6164 12.2339 75.1664 14.0089 74.8664 16.4839L78.0664 16.9339C78.2914 15.5589 79.0164 15.0589 80.1414 15.0589C81.4414 15.0589 81.9914 15.7589 81.9914 17.0339V17.5339H78.9164C75.7914 17.5339 74.5164 19.0089 74.5164 21.1589C74.5164 23.4839 76.0664 24.6089 78.1164 24.6089C80.1164 24.6089 81.4164 23.4839 81.9414 21.4589H81.9914V24.3589ZM90.1322 17.4089C90.1322 16.0589 90.9322 15.2589 92.3072 15.2589C93.7322 15.2589 94.2822 16.1839 94.2822 17.4089V24.3589H97.6822V16.4339C97.6822 13.8839 96.6072 12.1839 94.0322 12.1839C92.1322 12.1839 90.7072 13.1089 90.1572 15.8339H90.1322V9.03389H86.7072V24.3589H90.1322V17.4089ZM99.6893 20.6339C99.6893 22.8839 100.839 24.7089 103.589 24.7089C104.889 24.7089 105.489 24.5339 106.389 24.2589L106.014 21.1089C105.589 21.2089 104.989 21.3839 104.464 21.3839C103.439 21.3839 103.089 20.9339 103.089 19.9839V15.3589H106.214V12.5089H103.089V9.53389H99.6893V12.5089H98.3143V15.3589H99.6893V20.6339ZM112.595 15.0089C114.12 15.0089 114.895 15.8089 114.995 17.3839H109.995C110.22 15.7089 111.095 15.0089 112.595 15.0089ZM112.645 24.6839C115.895 24.6839 117.445 23.0339 118.02 20.8839L115.07 20.0589C114.795 20.9839 114.27 21.7589 112.695 21.7589C111.095 21.7589 110.195 21.0089 109.97 19.3089H118.07C118.12 18.6589 118.12 18.2589 118.12 17.7339C118.12 14.5089 116.345 12.1839 112.695 12.1839C108.845 12.1839 106.57 14.5839 106.57 18.6839C106.57 22.6339 109.07 24.6839 112.645 24.6839ZM122.456 24.3589V18.7089C122.456 16.9339 123.056 16.4089 124.981 16.4089H126.281V12.5089H125.706C124.056 12.5089 123.081 13.1339 122.506 16.7339H122.456V12.5089H119.031V24.3589H122.456ZM131.593 21.8589C130.293 21.8589 129.843 21.2839 129.843 20.5589C129.843 19.9089 130.443 19.4589 131.443 19.4589H133.993V19.8089C133.993 21.0089 133.043 21.8589 131.593 21.8589ZM133.993 24.3589H137.393V17.0089C137.393 13.9839 135.893 12.2339 132.293 12.2339C128.618 12.2339 127.168 14.0089 126.868 16.4839L130.068 16.9339C130.293 15.5589 131.018 15.0589 132.143 15.0589C133.443 15.0589 133.993 15.7589 133.993 17.0339V17.5339H130.918C127.793 17.5339 126.518 19.0089 126.518 21.1589C126.518 23.4839 128.068 24.6089 130.118 24.6089C132.118 24.6089 133.418 23.4839 133.943 21.4589H133.993V24.3589ZM151.644 24.3589H155.919V24.3089L149.069 17.0339L155.744 9.40889V9.35889H151.619L146.344 15.8339H146.144V9.35889H142.544V24.3589H146.144V18.7339H146.344L151.644 24.3589ZM160.06 21.8589C158.76 21.8589 158.31 21.2839 158.31 20.5589C158.31 19.9089 158.91 19.4589 159.91 19.4589H162.46V19.8089C162.46 21.0089 161.51 21.8589 160.06 21.8589ZM162.46 24.3589H165.86V17.0089C165.86 13.9839 164.36 12.2339 160.76 12.2339C157.085 12.2339 155.635 14.0089 155.335 16.4839L158.535 16.9339C158.76 15.5589 159.485 15.0589 160.61 15.0589C161.91 15.0589 162.46 15.7589 162.46 17.0339V17.5339H159.385C156.26 17.5339 154.985 19.0089 154.985 21.1589C154.985 23.4839 156.535 24.6089 158.585 24.6089C160.585 24.6089 161.885 23.4839 162.41 21.4589H162.46V24.3589ZM172.176 24.7089C175.726 24.7089 177.276 23.2589 177.276 20.9339C177.276 19.1589 176.301 17.8839 172.901 17.2089C170.576 16.7839 170.276 16.3339 170.276 15.6839C170.276 15.0339 170.826 14.6339 171.826 14.6339C173.001 14.6339 173.576 15.2339 173.851 16.5089L177.101 15.7839C176.651 13.5839 175.251 12.1839 171.851 12.1839C168.526 12.1839 166.901 13.5839 166.901 15.8339C166.901 17.7839 168.026 18.9089 171.351 19.6089C173.476 20.0339 173.926 20.4089 173.926 21.0589C173.901 21.7839 173.351 22.1839 172.251 22.1839C170.801 22.1839 170.101 21.4089 169.776 20.0839L166.601 20.7089C166.951 22.8839 168.176 24.7089 172.176 24.7089ZM181.737 11.2589V9.03389H178.187V11.2589H181.737ZM181.687 24.3589V12.5089H178.262V24.3589H181.687ZM186.543 17.4089C186.543 16.0589 187.343 15.2589 188.718 15.2589C190.143 15.2589 190.693 16.1839 190.693 17.4089V24.3589H194.093V16.4339C194.093 13.8839 193.018 12.1839 190.443 12.1839C188.543 12.1839 187.118 13.1089 186.568 15.8339H186.543V9.03389H183.118V24.3589H186.543V17.4089Z" fill="white"/>
<path d="M15.0717 24.3589H19.3467V24.3089L12.4967 17.0339L19.1717 9.40889V9.35889H15.0467L9.77168 15.8339H9.57168V9.35889H5.97168V24.3589H9.57168V18.7339H9.77168L15.0717 24.3589ZM25.2453 12.5589C26.8953 12.5589 27.6453 13.2089 27.6453 14.5839C27.6453 15.9839 26.8453 16.6339 25.2953 16.6339H23.1703V12.5589H25.2453ZM25.6953 19.8339C29.3453 19.8339 31.3953 17.5089 31.3953 14.5839C31.3953 11.1339 29.4703 9.35889 25.5703 9.35889H19.5703V24.3589H23.1703V19.8339H25.6953ZM38.9139 12.5589C40.4139 12.5589 41.0639 13.1089 41.0639 14.1589C41.0639 15.2839 40.3389 15.8589 38.8639 15.8589H35.9389V12.5589H38.9139ZM41.3639 24.3589H45.6139V24.3089L41.5639 18.4589C43.4889 17.8089 44.6139 16.3589 44.6139 14.0589C44.6139 10.9839 42.7139 9.35889 39.0389 9.35889H32.3389V24.3589H35.9389V18.8339H37.9639L41.3639 24.3589ZM48.6473 19.6839C48.6473 20.6589 48.2223 21.3089 47.2473 21.3089C46.8973 21.3089 46.6473 21.2839 46.2473 21.1839L45.8973 24.4089C46.4723 24.5089 47.0723 24.5589 47.8723 24.5589C50.9473 24.5589 52.2473 22.5839 52.2473 19.8089V9.35889H48.6473V19.6839Z" fill="#442B48"/>
</svg>
