<svg width="599" height="430" viewBox="0 0 599 430" fill="none" xmlns="http://www.w3.org/2000/svg">
<path d="M175.817 -118.948C177.873 -139.865 195.304 -151.327 192.402 -139.663C189.5 -128 222.447 -4.59765 217.088 12.7822C211.728 30.162 201 38.4999 202 30.9999C203 23.4999 173.761 -98.0315 175.817 -118.948Z" fill="#442B48"/>
<path d="M224.634 -69.3205C226.69 -90.2373 244.121 -101.699 241.219 -90.0353C238.317 -78.3721 271.265 45.0303 265.905 62.4102C260.545 79.79 249.817 88.1278 250.817 80.6278C251.817 73.1278 222.579 -48.4036 224.634 -69.3205Z" fill="#442B48"/>
<path d="M424.315 123.18C426.371 102.263 443.802 90.8014 440.9 102.465C437.998 114.128 470.945 237.53 465.585 254.91C460.226 272.29 449.498 280.628 450.498 273.128C451.498 265.628 422.259 144.096 424.315 123.18Z" fill="#442B48"/>
<path d="M27.315 -262.82C29.3708 -283.737 46.8019 -295.199 43.8998 -283.535C40.9978 -271.872 73.9451 -148.47 68.5855 -131.09C63.2258 -113.71 52.4977 -105.372 53.4977 -112.872C54.4978 -120.372 25.2592 -241.904 27.315 -262.82Z" fill="#442B48"/>
<path d="M273.315 -20.8205C275.371 -41.7373 292.802 -53.1986 289.9 -41.5353C286.998 -29.8721 319.945 93.5303 314.585 110.91C309.226 128.29 298.498 136.628 299.498 129.128C300.498 121.628 271.259 0.0963879 273.315 -20.8205Z" fill="#442B48"/>
<path d="M472.996 171.68C475.051 150.763 492.482 139.301 489.58 150.965C486.678 162.628 519.626 286.03 514.266 303.41C508.906 320.79 498.178 329.128 499.178 321.628C500.178 314.128 470.94 192.596 472.996 171.68Z" fill="#442B48"/>
<path d="M75.9955 -214.32C78.0513 -235.237 95.4824 -246.699 92.5804 -235.035C89.6783 -223.372 122.626 -99.9697 117.266 -82.5899C111.906 -65.21 101.178 -56.8722 102.178 -64.3722C103.178 -71.8722 73.9398 -193.404 75.9955 -214.32Z" fill="#442B48"/>
<path d="M322.315 27.1795C324.371 6.26268 341.802 -5.19861 338.9 6.46466C335.998 18.1279 368.945 141.53 363.585 158.91C358.226 176.29 347.498 184.628 348.498 177.128C349.498 169.628 320.259 48.0964 322.315 27.1795Z" fill="#442B48"/>
<path d="M521.996 219.68C524.051 198.763 541.482 187.301 538.58 198.965C535.678 210.628 568.626 334.03 563.266 351.41C557.906 368.79 547.178 377.128 548.178 369.628C549.178 362.128 519.94 240.596 521.996 219.68Z" fill="#442B48"/>
<path d="M124.996 -166.32C127.051 -187.237 144.482 -198.699 141.58 -187.035C138.678 -175.372 171.626 -51.9697 166.266 -34.5899C160.906 -17.21 150.178 -8.87215 151.178 -16.3722C152.178 -23.8722 122.94 -145.404 124.996 -166.32Z" fill="#442B48"/>
<path d="M373.315 75.1796C375.371 54.2627 392.802 42.8014 389.9 54.4647C386.998 66.1279 419.945 189.53 414.585 206.91C409.226 224.29 398.498 232.628 399.498 225.128C400.498 217.628 371.259 96.0964 373.315 75.1796Z" fill="#442B48"/>
<path d="M572.996 267.68C575.051 246.763 592.482 235.301 589.58 246.965C586.678 258.628 619.626 382.03 614.266 399.41C608.906 416.79 598.178 425.128 599.178 417.628C600.178 410.128 570.94 288.596 572.996 267.68Z" fill="#442B48"/>
<path d="M231.035 -92.7214C220.635 -88.3214 218.701 -99.5547 219.035 -105.721C221.035 -111.221 231.035 -108.221 235.035 -110.721C239.035 -113.221 244.035 -98.2214 231.035 -92.7214Z" fill="#442B48"/>
<path d="M430.715 99.7786C420.315 104.179 418.382 92.9453 418.715 86.7786C420.715 81.2787 430.715 84.2786 434.715 81.7786C438.715 79.2786 443.715 94.2786 430.715 99.7786Z" fill="#442B48"/>
<path d="M33.7152 -286.221C23.3152 -281.821 21.3818 -293.055 21.7152 -299.221C23.7151 -304.721 33.7152 -301.721 37.7152 -304.221C41.7153 -306.721 46.7152 -291.721 33.7152 -286.221Z" fill="#442B48"/>
<path d="M279.715 -44.2214C269.315 -39.8214 267.382 -51.0547 267.715 -57.2214C269.715 -62.7213 279.715 -59.7214 283.715 -62.2214C287.715 -64.7214 292.715 -49.7214 279.715 -44.2214Z" fill="#442B48"/>
<path d="M479.396 148.279C468.996 152.679 467.062 141.445 467.396 135.279C469.396 129.779 479.396 132.779 483.396 130.279C487.396 127.779 492.396 142.779 479.396 148.279Z" fill="#442B48"/>
<path d="M82.3957 -237.721C71.9957 -233.321 70.0624 -244.555 70.3957 -250.721C72.3956 -256.221 82.3957 -253.221 86.3958 -255.721C90.3958 -258.221 95.3957 -243.221 82.3957 -237.721Z" fill="#442B48"/>
<path d="M328.715 3.77863C318.315 8.17863 316.382 -3.05471 316.715 -9.22137C318.715 -14.7213 328.715 -11.7214 332.715 -14.2214C336.715 -16.7214 341.715 -1.72137 328.715 3.77863Z" fill="#442B48"/>
<path d="M528.396 196.279C517.996 200.679 516.062 189.445 516.396 183.279C518.396 177.779 528.396 180.779 532.396 178.279C536.396 175.779 541.396 190.779 528.396 196.279Z" fill="#442B48"/>
<path d="M131.396 -189.721C120.996 -185.321 119.062 -196.555 119.396 -202.721C121.396 -208.221 131.396 -205.221 135.396 -207.721C139.396 -210.221 144.396 -195.221 131.396 -189.721Z" fill="#442B48"/>
<path d="M379.715 51.7786C369.315 56.1786 367.382 44.9453 367.715 38.7786C369.715 33.2787 379.715 36.2786 383.715 33.7786C387.715 31.2786 392.715 46.2786 379.715 51.7786Z" fill="#442B48"/>
<path d="M579.396 244.279C568.996 248.679 567.062 237.445 567.396 231.279C569.396 225.779 579.396 228.779 583.396 226.279C587.396 223.779 592.396 238.779 579.396 244.279Z" fill="#442B48"/>
<path d="M182.396 -141.721C171.996 -137.321 170.062 -148.555 170.396 -154.721C172.396 -160.221 182.396 -157.221 186.396 -159.721C190.396 -162.221 195.396 -147.221 182.396 -141.721Z" fill="#442B48"/>
<path d="M219.619 51.244C229.866 45.7432 222.477 37.0482 217.502 33.3883C211.943 31.4832 207.666 41.3759 203.102 42.9774C198.538 44.5789 206.81 58.1199 219.619 51.244Z" fill="#442B48"/>
<path d="M419.299 243.744C429.546 238.243 422.158 229.548 417.183 225.888C411.623 223.983 407.346 233.876 402.782 235.477C398.218 237.079 406.49 250.62 419.299 243.744Z" fill="#442B48"/>
<path d="M22.2992 -142.256C32.5463 -147.757 25.1578 -156.452 20.1827 -160.112C14.6233 -162.017 10.3463 -152.124 5.78224 -150.523C1.21816 -148.921 9.4903 -135.38 22.2992 -142.256Z" fill="#442B48"/>
<path d="M268.299 99.744C278.546 94.2433 271.158 85.5482 266.183 81.8882C260.623 79.9832 256.346 89.8759 251.782 91.4774C247.218 93.0789 255.49 106.62 268.299 99.744Z" fill="#442B48"/>
<path d="M467.98 292.244C478.227 286.743 470.838 278.048 465.863 274.388C460.304 272.483 456.027 282.376 451.463 283.977C446.899 285.579 455.171 299.12 467.98 292.244Z" fill="#442B48"/>
<path d="M70.9797 -93.756C81.2268 -99.2568 73.8383 -107.952 68.8632 -111.612C63.3039 -113.517 59.0269 -103.624 54.4628 -102.023C49.8987 -100.421 58.1708 -86.8801 70.9797 -93.756Z" fill="#442B48"/>
<path d="M317.299 147.744C327.546 142.243 320.158 133.548 315.183 129.888C309.623 127.983 305.346 137.876 300.782 139.477C296.218 141.079 304.49 154.62 317.299 147.744Z" fill="#442B48"/>
<path d="M516.98 340.244C527.227 334.743 519.838 326.048 514.863 322.388C509.304 320.483 505.027 330.376 500.463 331.977C495.899 333.579 504.171 347.12 516.98 340.244Z" fill="#442B48"/>
<path d="M119.98 -45.756C130.227 -51.2568 122.838 -59.9518 117.863 -63.6117C112.304 -65.5168 108.027 -55.6241 103.463 -54.0226C98.8987 -52.4211 107.171 -38.8801 119.98 -45.756Z" fill="#442B48"/>
<path d="M368.299 195.744C378.546 190.243 371.158 181.548 366.183 177.888C360.623 175.983 356.346 185.876 351.782 187.477C347.218 189.079 355.49 202.62 368.299 195.744Z" fill="#442B48"/>
<path d="M567.98 388.244C578.227 382.743 570.838 374.048 565.863 370.388C560.304 368.483 556.027 378.376 551.463 379.977C546.899 381.579 555.171 395.12 567.98 388.244Z" fill="#442B48"/>
<path d="M170.98 2.24399C181.227 -3.25676 173.838 -11.9518 168.863 -15.6117C163.304 -17.5168 159.027 -7.62411 154.463 -6.02261C149.899 -4.42112 158.171 9.11992 170.98 2.24399Z" fill="#442B48"/>
<path d="M204 -143.5C190.8 -143.5 200.167 -104.833 206.5 -85.5C209 -77.3429 216.5 -29.5 219 -18.5C221.5 -7.5 230.5 40.5 228.5 65.5C226.5 90.5 235 98 242.5 89.5C250 81 242 72 240 55.5C238 39 223.5 -47.5 217.5 -72.5C211.5 -97.5 220.5 -143.5 204 -143.5Z" fill="#442B48"/>
<path d="M403.681 49C390.481 49 399.847 87.6667 406.181 107C408.681 115.157 416.181 163 418.681 174C421.181 185 430.181 233 428.181 258C426.181 283 434.681 290.5 442.181 282C449.681 273.5 441.681 264.5 439.681 248C437.681 231.5 423.181 145 417.181 120C411.181 95 420.181 49 403.681 49Z" fill="#442B48"/>
<path d="M6.68059 -337C-6.51941 -337 2.84726 -298.333 9.18059 -279C11.6806 -270.843 19.1805 -223 21.6805 -212C24.1805 -201 33.1805 -153 31.1805 -128C29.1805 -103 37.6805 -95.5 45.1805 -104C52.6805 -112.5 44.6805 -121.5 42.6805 -138C40.6805 -154.5 26.1805 -241 20.1805 -266C14.1805 -291 23.1806 -337 6.68059 -337Z" fill="#442B48"/>
<path d="M252.681 -95C239.481 -95 248.847 -56.3333 255.181 -37C257.681 -28.8429 265.181 19 267.681 30C270.181 41 279.181 89 277.181 114C275.181 139 283.681 146.5 291.181 138C298.681 129.5 290.681 120.5 288.681 104C286.681 87.5 272.181 1 266.181 -24C260.181 -49 269.181 -95 252.681 -95Z" fill="#442B48"/>
<path d="M452.361 97.5C439.161 97.5 448.528 136.167 454.861 155.5C457.361 163.657 464.861 211.5 467.361 222.5C469.861 233.5 478.861 281.5 476.861 306.5C474.861 331.5 483.361 339 490.861 330.5C498.361 322 490.361 313 488.361 296.5C486.361 280 471.861 193.5 465.861 168.5C459.861 143.5 468.861 97.5 452.361 97.5Z" fill="#442B48"/>
<path d="M55.3611 -288.5C42.1611 -288.5 51.5278 -249.833 57.8611 -230.5C60.3611 -222.343 67.8611 -174.5 70.3611 -163.5C72.8611 -152.5 81.8611 -104.5 79.8611 -79.5C77.8611 -54.5 86.3611 -47 93.8611 -55.5C101.361 -64 93.3611 -73 91.3611 -89.5C89.3611 -106 74.8611 -192.5 68.8611 -217.5C62.8611 -242.5 71.8611 -288.5 55.3611 -288.5Z" fill="#442B48"/>
<path d="M301.681 -47C288.481 -47 297.847 -8.33334 304.181 11C306.681 19.1571 314.181 67 316.681 78C319.181 89 328.181 137 326.181 162C324.181 187 332.681 194.5 340.181 186C347.681 177.5 339.681 168.5 337.681 152C335.681 135.5 321.181 49 315.181 24C309.181 -1 318.181 -47 301.681 -47Z" fill="#442B48"/>
<path d="M501.361 145.5C488.161 145.5 497.528 184.167 503.861 203.5C506.361 211.657 513.861 259.5 516.361 270.5C518.861 281.5 527.861 329.5 525.861 354.5C523.861 379.5 532.361 387 539.861 378.5C547.361 370 539.361 361 537.361 344.5C535.361 328 520.861 241.5 514.861 216.5C508.861 191.5 517.861 145.5 501.361 145.5Z" fill="#442B48"/>
<path d="M104.361 -240.5C91.1611 -240.5 100.528 -201.833 106.861 -182.5C109.361 -174.343 116.861 -126.5 119.361 -115.5C121.861 -104.5 130.861 -56.5 128.861 -31.5C126.861 -6.5 135.361 1 142.861 -7.5C150.361 -16 142.361 -25 140.361 -41.5C138.361 -58 123.861 -144.5 117.861 -169.5C111.861 -194.5 120.861 -240.5 104.361 -240.5Z" fill="#442B48"/>
<path d="M352.681 1C339.481 1 348.847 39.6667 355.181 59C357.681 67.1571 365.181 115 367.681 126C370.181 137 379.181 185 377.181 210C375.181 235 383.681 242.5 391.181 234C398.681 225.5 390.681 216.5 388.681 200C386.681 183.5 372.181 97 366.181 72C360.181 47 369.181 1 352.681 1Z" fill="#442B48"/>
<path d="M552.361 193.5C539.161 193.5 548.528 232.167 554.861 251.5C557.361 259.657 564.861 307.5 567.361 318.5C569.861 329.5 578.861 377.5 576.861 402.5C574.861 427.5 583.361 435 590.861 426.5C598.361 418 590.361 409 588.361 392.5C586.361 376 571.861 289.5 565.861 264.5C559.861 239.5 568.861 193.5 552.361 193.5Z" fill="#442B48"/>
<path d="M155.361 -192.5C142.161 -192.5 151.528 -153.833 157.861 -134.5C160.361 -126.343 167.861 -78.5 170.361 -67.5C172.861 -56.5 181.861 -8.5 179.861 16.5C177.861 41.5 186.361 49 193.861 40.5C201.361 32 193.361 23 191.361 6.5C189.361 -10 174.861 -96.5 168.861 -121.5C162.861 -146.5 171.861 -192.5 155.361 -192.5Z" fill="#442B48"/>
<path d="M264.817 -231.948C266.873 -252.865 284.304 -264.327 281.402 -252.663C278.5 -241 311.447 -117.598 306.088 -100.218C300.728 -82.838 290 -74.5001 291 -82.0001C292 -89.5001 262.761 -211.032 264.817 -231.948Z" fill="#442B48"/>
<path d="M313.634 -182.32C315.69 -203.237 333.121 -214.699 330.219 -203.035C327.317 -191.372 360.265 -67.9697 354.905 -50.5899C349.545 -33.21 338.817 -24.8722 339.817 -32.3722C340.817 -39.8722 311.579 -161.404 313.634 -182.32Z" fill="#442B48"/>
<path d="M513.315 10.1795C515.371 -10.7373 532.802 -22.1986 529.9 -10.5353C526.998 1.12793 559.945 124.53 554.585 141.91C549.226 159.29 538.498 167.628 539.498 160.128C540.498 152.628 511.259 31.0964 513.315 10.1795Z" fill="#442B48"/>
<path d="M116.315 -375.82C118.371 -396.737 135.802 -408.199 132.9 -396.535C129.998 -384.872 162.945 -261.47 157.585 -244.09C152.226 -226.71 141.498 -218.372 142.498 -225.872C143.498 -233.372 114.259 -354.904 116.315 -375.82Z" fill="#442B48"/>
<path d="M362.315 -133.82C364.371 -154.737 381.802 -166.199 378.9 -154.535C375.998 -142.872 408.945 -19.4697 403.585 -2.08987C398.226 15.29 387.498 23.6278 388.498 16.1278C389.498 8.62783 360.259 -112.904 362.315 -133.82Z" fill="#442B48"/>
<path d="M561.996 58.6795C564.051 37.7627 581.482 26.3014 578.58 37.9647C575.678 49.6279 608.626 173.03 603.266 190.41C597.906 207.79 587.178 216.128 588.178 208.628C589.178 201.128 559.94 79.5964 561.996 58.6795Z" fill="#442B48"/>
<path d="M164.996 -327.32C167.051 -348.237 184.482 -359.699 181.58 -348.035C178.678 -336.372 211.626 -212.97 206.266 -195.59C200.906 -178.21 190.178 -169.872 191.178 -177.372C192.178 -184.872 162.94 -306.404 164.996 -327.32Z" fill="#442B48"/>
<path d="M411.315 -85.8205C413.371 -106.737 430.802 -118.199 427.9 -106.535C424.998 -94.8721 457.945 28.5303 452.585 45.9101C447.226 63.29 436.498 71.6278 437.498 64.1278C438.498 56.6278 409.259 -64.9036 411.315 -85.8205Z" fill="#442B48"/>
<path d="M610.996 106.68C613.051 85.7627 630.482 74.3014 627.58 85.9647C624.678 97.6279 657.626 221.03 652.266 238.41C646.906 255.79 636.178 264.128 637.178 256.628C638.178 249.128 608.94 127.596 610.996 106.68Z" fill="#442B48"/>
<path d="M213.996 -279.32C216.051 -300.237 233.482 -311.699 230.58 -300.035C227.678 -288.372 260.626 -164.97 255.266 -147.59C249.906 -130.21 239.178 -121.872 240.178 -129.372C241.178 -136.872 211.94 -258.404 213.996 -279.32Z" fill="#442B48"/>
<path d="M462.315 -37.8205C464.371 -58.7373 481.802 -70.1986 478.9 -58.5353C475.998 -46.8721 508.945 76.5303 503.585 93.9102C498.226 111.29 487.498 119.628 488.498 112.128C489.498 104.628 460.259 -16.9036 462.315 -37.8205Z" fill="#442B48"/>
<path d="M661.996 154.68C664.051 133.763 681.482 122.301 678.58 133.965C675.678 145.628 708.626 269.03 703.266 286.41C697.906 303.79 687.178 312.128 688.178 304.628C689.178 297.128 659.94 175.596 661.996 154.68Z" fill="#442B48"/>
<path d="M320.035 -205.721C309.635 -201.321 307.701 -212.555 308.035 -218.721C310.035 -224.221 320.035 -221.221 324.035 -223.721C328.035 -226.221 333.035 -211.221 320.035 -205.721Z" fill="#442B48"/>
<path d="M519.715 -13.2214C509.315 -8.82137 507.382 -20.0547 507.715 -26.2214C509.715 -31.7213 519.715 -28.7214 523.715 -31.2214C527.715 -33.7214 532.715 -18.7214 519.715 -13.2214Z" fill="#442B48"/>
<path d="M122.715 -399.221C112.315 -394.821 110.382 -406.055 110.715 -412.221C112.715 -417.721 122.715 -414.721 126.715 -417.221C130.715 -419.721 135.715 -404.721 122.715 -399.221Z" fill="#442B48"/>
<path d="M368.715 -157.221C358.315 -152.821 356.382 -164.055 356.715 -170.221C358.715 -175.721 368.715 -172.721 372.715 -175.221C376.715 -177.721 381.715 -162.721 368.715 -157.221Z" fill="#442B48"/>
<path d="M568.396 35.2786C557.996 39.6786 556.062 28.4453 556.396 22.2786C558.396 16.7787 568.396 19.7786 572.396 17.2786C576.396 14.7786 581.396 29.7786 568.396 35.2786Z" fill="#442B48"/>
<path d="M171.396 -350.721C160.996 -346.321 159.062 -357.555 159.396 -363.721C161.396 -369.221 171.396 -366.221 175.396 -368.721C179.396 -371.221 184.396 -356.221 171.396 -350.721Z" fill="#442B48"/>
<path d="M417.715 -109.221C407.315 -104.821 405.382 -116.055 405.715 -122.221C407.715 -127.721 417.715 -124.721 421.715 -127.221C425.715 -129.721 430.715 -114.721 417.715 -109.221Z" fill="#442B48"/>
<path d="M617.396 83.2786C606.996 87.6786 605.062 76.4453 605.396 70.2786C607.396 64.7787 617.396 67.7786 621.396 65.2786C625.396 62.7786 630.396 77.7786 617.396 83.2786Z" fill="#442B48"/>
<path d="M220.396 -302.721C209.996 -298.321 208.062 -309.555 208.396 -315.721C210.396 -321.221 220.396 -318.221 224.396 -320.721C228.396 -323.221 233.396 -308.221 220.396 -302.721Z" fill="#442B48"/>
<path d="M468.715 -61.2214C458.315 -56.8214 456.382 -68.0547 456.715 -74.2214C458.715 -79.7213 468.715 -76.7214 472.715 -79.2214C476.715 -81.7214 481.715 -66.7214 468.715 -61.2214Z" fill="#442B48"/>
<path d="M668.396 131.279C657.996 135.679 656.062 124.445 656.396 118.279C658.396 112.779 668.396 115.779 672.396 113.279C676.396 110.779 681.396 125.779 668.396 131.279Z" fill="#442B48"/>
<path d="M271.396 -254.721C260.996 -250.321 259.062 -261.555 259.396 -267.721C261.396 -273.221 271.396 -270.221 275.396 -272.721C279.396 -275.221 284.396 -260.221 271.396 -254.721Z" fill="#442B48"/>
<path d="M308.619 -61.756C318.866 -67.2568 311.477 -75.9518 306.502 -79.6117C300.943 -81.5168 296.666 -71.6241 292.102 -70.0226C287.538 -68.4211 295.81 -54.8801 308.619 -61.756Z" fill="#442B48"/>
<path d="M508.299 130.744C518.546 125.243 511.158 116.548 506.183 112.888C500.623 110.983 496.346 120.876 491.782 122.477C487.218 124.079 495.49 137.62 508.299 130.744Z" fill="#442B48"/>
<path d="M111.299 -255.256C121.546 -260.757 114.158 -269.452 109.183 -273.112C103.623 -275.017 99.3463 -265.124 94.7822 -263.523C90.2182 -261.921 98.4903 -248.38 111.299 -255.256Z" fill="#442B48"/>
<path d="M357.299 -13.256C367.546 -18.7568 360.158 -27.4518 355.183 -31.1117C349.623 -33.0168 345.346 -23.1241 340.782 -21.5226C336.218 -19.9211 344.49 -6.38008 357.299 -13.256Z" fill="#442B48"/>
<path d="M556.98 179.244C567.227 173.743 559.838 165.048 554.863 161.388C549.304 159.483 545.027 169.376 540.463 170.977C535.899 172.579 544.171 186.12 556.98 179.244Z" fill="#442B48"/>
<path d="M159.98 -206.756C170.227 -212.257 162.838 -220.952 157.863 -224.612C152.304 -226.517 148.027 -216.624 143.463 -215.023C138.899 -213.421 147.171 -199.88 159.98 -206.756Z" fill="#442B48"/>
<path d="M406.299 34.744C416.546 29.2432 409.158 20.5482 404.183 16.8883C398.623 14.9832 394.346 24.8759 389.782 26.4774C385.218 28.0789 393.49 41.6199 406.299 34.744Z" fill="#442B48"/>
<path d="M605.98 227.244C616.227 221.743 608.838 213.048 603.863 209.388C598.304 207.483 594.027 217.376 589.463 218.977C584.899 220.579 593.171 234.12 605.98 227.244Z" fill="#442B48"/>
<path d="M208.98 -158.756C219.227 -164.257 211.838 -172.952 206.863 -176.612C201.304 -178.517 197.027 -168.624 192.463 -167.023C187.899 -165.421 196.171 -151.88 208.98 -158.756Z" fill="#442B48"/>
<path d="M457.299 82.744C467.546 77.2433 460.158 68.5482 455.183 64.8882C449.623 62.9832 445.346 72.8759 440.782 74.4774C436.218 76.0789 444.49 89.6199 457.299 82.744Z" fill="#442B48"/>
<path d="M656.98 275.244C667.227 269.743 659.838 261.048 654.863 257.388C649.304 255.483 645.027 265.376 640.463 266.977C635.899 268.579 644.171 282.12 656.98 275.244Z" fill="#442B48"/>
<path d="M259.98 -110.756C270.227 -116.257 262.838 -124.952 257.863 -128.612C252.304 -130.517 248.027 -120.624 243.463 -119.023C238.899 -117.421 247.171 -103.88 259.98 -110.756Z" fill="#442B48"/>
<path d="M293 -256.5C279.8 -256.5 289.167 -217.833 295.5 -198.5C298 -190.343 305.5 -142.5 308 -131.5C310.5 -120.5 319.5 -72.5 317.5 -47.5C315.5 -22.5 324 -15 331.5 -23.5C339 -32 331 -41 329 -57.5C327 -74 312.5 -160.5 306.5 -185.5C300.5 -210.5 309.5 -256.5 293 -256.5Z" fill="#442B48"/>
<path d="M492.681 -64C479.481 -64 488.847 -25.3333 495.181 -6C497.681 2.15713 505.181 50 507.681 61C510.181 72 519.181 120 517.181 145C515.181 170 523.681 177.5 531.181 169C538.681 160.5 530.681 151.5 528.681 135C526.681 118.5 512.181 32 506.181 7C500.181 -18 509.181 -64 492.681 -64Z" fill="#442B48"/>
<path d="M95.6806 -450C82.4806 -450 91.8473 -411.333 98.1806 -392C100.681 -383.843 108.181 -336 110.681 -325C113.181 -314 122.181 -266 120.181 -241C118.181 -216 126.681 -208.5 134.181 -217C141.681 -225.5 133.681 -234.5 131.681 -251C129.681 -267.5 115.181 -354 109.181 -379C103.181 -404 112.181 -450 95.6806 -450Z" fill="#442B48"/>
<path d="M341.681 -208C328.481 -208 337.847 -169.333 344.181 -150C346.681 -141.843 354.181 -94 356.681 -83C359.181 -72 368.181 -24 366.181 1C364.181 26 372.681 33.5 380.181 25C387.681 16.5 379.681 7.5 377.681 -9C375.681 -25.5 361.181 -112 355.181 -137C349.181 -162 358.181 -208 341.681 -208Z" fill="#442B48"/>
<path d="M541.361 -15.5C528.161 -15.5 537.528 23.1667 543.861 42.5C546.361 50.6571 553.861 98.5 556.361 109.5C558.861 120.5 567.861 168.5 565.861 193.5C563.861 218.5 572.361 226 579.861 217.5C587.361 209 579.361 200 577.361 183.5C575.361 167 560.861 80.5 554.861 55.5C548.861 30.5 557.861 -15.5 541.361 -15.5Z" fill="#442B48"/>
<path d="M144.361 -401.5C131.161 -401.5 140.528 -362.833 146.861 -343.5C149.361 -335.343 156.861 -287.5 159.361 -276.5C161.861 -265.5 170.861 -217.5 168.861 -192.5C166.861 -167.5 175.361 -160 182.861 -168.5C190.361 -177 182.361 -186 180.361 -202.5C178.361 -219 163.861 -305.5 157.861 -330.5C151.861 -355.5 160.861 -401.5 144.361 -401.5Z" fill="#442B48"/>
<path d="M390.681 -160C377.481 -160 386.847 -121.333 393.181 -102C395.681 -93.8429 403.181 -46 405.681 -35C408.181 -24 417.181 24 415.181 49C413.181 74 421.681 81.5 429.181 73C436.681 64.5 428.681 55.5 426.681 39C424.681 22.5 410.181 -64 404.181 -89C398.181 -114 407.181 -160 390.681 -160Z" fill="#442B48"/>
<path d="M590.361 32.5C577.161 32.5 586.528 71.1667 592.861 90.5C595.361 98.6571 602.861 146.5 605.361 157.5C607.861 168.5 616.861 216.5 614.861 241.5C612.861 266.5 621.361 274 628.861 265.5C636.361 257 628.361 248 626.361 231.5C624.361 215 609.861 128.5 603.861 103.5C597.861 78.5 606.861 32.5 590.361 32.5Z" fill="#442B48"/>
<path d="M193.361 -353.5C180.161 -353.5 189.528 -314.833 195.861 -295.5C198.361 -287.343 205.861 -239.5 208.361 -228.5C210.861 -217.5 219.861 -169.5 217.861 -144.5C215.861 -119.5 224.361 -112 231.861 -120.5C239.361 -129 231.361 -138 229.361 -154.5C227.361 -171 212.861 -257.5 206.861 -282.5C200.861 -307.5 209.861 -353.5 193.361 -353.5Z" fill="#442B48"/>
<path d="M441.681 -112C428.481 -112 437.847 -73.3333 444.181 -54C446.681 -45.8429 454.181 2 456.681 13C459.181 24 468.181 72 466.181 97C464.181 122 472.681 129.5 480.181 121C487.681 112.5 479.681 103.5 477.681 87C475.681 70.5 461.181 -16 455.181 -41C449.181 -66 458.181 -112 441.681 -112Z" fill="#442B48"/>
<path d="M641.361 80.5C628.161 80.5 637.528 119.167 643.861 138.5C646.361 146.657 653.861 194.5 656.361 205.5C658.861 216.5 667.861 264.5 665.861 289.5C663.861 314.5 672.361 322 679.861 313.5C687.361 305 679.361 296 677.361 279.5C675.361 263 660.861 176.5 654.861 151.5C648.861 126.5 657.861 80.5 641.361 80.5Z" fill="#442B48"/>
<path d="M244.361 -305.5C231.161 -305.5 240.528 -266.833 246.861 -247.5C249.361 -239.343 256.861 -191.5 259.361 -180.5C261.861 -169.5 270.861 -121.5 268.861 -96.5C266.861 -71.5 275.361 -64 282.861 -72.5C290.361 -81 282.361 -90 280.361 -106.5C278.361 -123 263.861 -209.5 257.861 -234.5C251.861 -259.5 260.861 -305.5 244.361 -305.5Z" fill="#442B48"/>
</svg>
